<svg width="102" height="111" viewBox="0 0 102 111" fill="none" xmlns="http://www.w3.org/2000/svg">
<path d="M106.803 28.9355H0.923828V110.993H106.803V28.9355Z" fill="#8AAEB3"/>
<path opacity="0.2" d="M106.803 28.9355H0.923828V110.993H106.803V28.9355Z" fill="#2C2C2C"/>
<path opacity="0.2" d="M0.92392 111H41.0251L41.0251 28.9425H0.92392L0.92392 111Z" fill="#2C2C2C"/>
<path d="M3.68848 105.378C6.66318 99.5428 9.60684 93.6889 12.5195 87.8158L21.2144 70.1681L29.809 52.4417C32.6739 46.5257 35.4935 40.5858 38.2676 34.6221C35.3025 40.4569 32.3612 46.3108 29.4438 52.1838L20.7417 69.8387L12.147 87.5652C9.29649 93.4573 6.47696 99.3948 3.68848 105.378Z" fill="#8AAEB3"/>
<path d="M3.68848 34.5859C6.48174 40.5449 9.30126 46.4848 12.147 52.4055L20.7417 70.132L29.4438 87.7797C32.3516 93.6527 35.2929 99.5066 38.2676 105.341C35.4792 99.3825 32.6596 93.445 29.809 87.529L21.2144 69.8025L12.5195 52.1477C9.60207 46.2747 6.65841 40.4208 3.68848 34.5859Z" fill="#8AAEB3"/>
<path d="M26.9802 28.9355H14.8044V38.9483H26.9802V28.9355Z" fill="#B0C8CC"/>
<path d="M84.5571 93.5029H83.7048V105.535H84.5571V93.5029Z" fill="#002E33"/>
<path d="M86.5984 93.5029H85.7461V105.535H86.5984V93.5029Z" fill="#002E33"/>
<path d="M88.6467 93.5029H87.7944V105.535H88.6467V93.5029Z" fill="#002E33"/>
<path d="M90.6953 93.5029H89.843V105.535H90.6953V93.5029Z" fill="#002E33"/>
<path d="M92.7434 93.5029H91.8911V105.535H92.7434V93.5029Z" fill="#002E33"/>
<path d="M94.7918 93.5029H93.9395V105.535H94.7918V93.5029Z" fill="#002E33"/>
<path d="M96.833 93.5029H95.9807V105.535H96.833V93.5029Z" fill="#002E33"/>
<path d="M98.8814 93.5029H98.0291V105.535H98.8814V93.5029Z" fill="#002E33"/>
<path d="M100.93 93.5029H100.078V105.535H100.93V93.5029Z" fill="#002E33"/>
<path d="M75.3322 104.619L78.6125 105.529H70.9131L74.1934 104.612V100.186C71.8442 99.878 70.9131 97.5646 70.9131 93.5107H78.6125C78.6125 97.5502 77.6814 99.878 75.3322 100.186V104.619Z" fill="#263238" fill-opacity="0.6"/>
<path d="M69.1153 99.6416H67.1027V105.529H61.9531V99.6416H59.9333L64.5315 93.5107L69.1153 99.6416Z" fill="#263238" fill-opacity="0.6"/>
<path opacity="0.1" d="M106.803 110.993V105.235L41.0251 94.5703V110.993H106.803Z" fill="#2C2C2C"/>
<path d="M102.985 0H21.1858V28.9353H102.985V0Z" fill="#8AAEB3"/>
<path opacity="0.2" d="M102.985 0H21.1858V28.9353H102.985V0Z" fill="#2C2C2C"/>
<path opacity="0.2" d="M21.1928 28.9355L46.189 28.9355V0.000207901L21.1928 0.000207901L21.1928 28.9355Z" fill="#2C2C2C"/>
<path d="M22.9121 26.9444C24.76 24.8816 26.6006 22.8189 28.4127 20.7491L33.8345 14.5251L39.1918 8.27249C40.968 6.18589 42.7252 4.09213 44.4632 1.99121C42.6106 4.04915 40.7771 6.11425 38.9626 8.18652L33.5337 14.4177L28.1835 20.6703C26.4073 22.7473 24.6501 24.8387 22.9121 26.9444Z" fill="#8AAEB3"/>
<path d="M22.9121 1.99121C24.6501 4.08735 26.4073 6.18112 28.1835 8.27249L33.5337 14.5251L38.9626 20.7491C40.7771 22.8213 42.6106 24.8864 44.4632 26.9444C42.7204 24.8387 40.9633 22.7449 39.1918 20.6631L33.8345 14.4177L28.4127 8.19369C26.6006 6.10949 24.76 4.04677 22.9121 1.99121Z" fill="#8AAEB3"/>
<path d="M37.4298 0H29.8379V6.77545H37.4298V0Z" fill="#B0C8CC"/>
<path d="M89.1194 18.0342H88.5894V25.533H89.1194V18.0342Z" fill="#002E33"/>
<path d="M90.394 18.0342H89.864V25.533H90.394V18.0342Z" fill="#002E33"/>
<path d="M91.6692 18.0342H91.1392V25.533H91.6692V18.0342Z" fill="#002E33"/>
<path d="M92.9438 18.0342H92.4138V25.533H92.9438V18.0342Z" fill="#002E33"/>
<path d="M94.219 18.0342H93.689V25.533H94.219V18.0342Z" fill="#002E33"/>
<path d="M95.4936 18.0342H94.9636V25.533H95.4936V18.0342Z" fill="#002E33"/>
<path d="M96.7756 18.0342H96.2456V25.533H96.7756V18.0342Z" fill="#002E33"/>
<path d="M98.0508 18.0342H97.5208V25.533H98.0508V18.0342Z" fill="#002E33"/>
<path d="M99.3254 18.0342H98.7954V25.533H99.3254V18.0342Z" fill="#002E33"/>
<path d="M83.3681 24.96L85.4164 25.533H80.6106L82.659 24.9529V22.1954C81.2265 22.0092 80.6106 20.5624 80.6106 18.0342H85.4164C85.4164 20.5553 84.8363 22.0092 83.3681 22.1954V24.96Z" fill="#263238" fill-opacity="0.6"/>
<path d="M79.4934 21.8588H78.24V25.533H75.0313V21.8588H73.7708L76.6356 18.0342L79.4934 21.8588Z" fill="#263238" fill-opacity="0.6"/>
<path opacity="0.1" d="M102.985 28.936V25.3477L46.1819 18.7012V28.936H102.985Z" fill="#2C2C2C"/>
</svg>
