<svg width="20" height="20" viewBox="0 0 20 20" fill="none" xmlns="http://www.w3.org/2000/svg">
<path d="M9.93343 7.91667H11.6001V5.41667H14.1001V3.75H11.6001V1.25H9.93343V3.75H7.43343V5.41667H9.93343V7.91667ZM6.6001 15.4167C5.68343 15.4167 4.94176 16.1667 4.94176 17.0833C4.94176 18 5.68343 18.75 6.6001 18.75C7.51676 18.75 8.26676 18 8.26676 17.0833C8.26676 16.1667 7.51676 15.4167 6.6001 15.4167ZM14.9334 15.4167C14.0168 15.4167 13.2751 16.1667 13.2751 17.0833C13.2751 18 14.0168 18.75 14.9334 18.75C15.8501 18.75 16.6001 18 16.6001 17.0833C16.6001 16.1667 15.8501 15.4167 14.9334 15.4167ZM7.51676 11.25H13.7251C14.3501 11.25 14.9001 10.9083 15.1834 10.3917L18.4001 4.55L16.9501 3.75L13.7251 9.58333H7.8751L4.3251 2.08333H1.6001V3.75H3.26676L6.26676 10.075L5.14176 12.1083C4.53343 13.225 5.33343 14.5833 6.6001 14.5833H16.6001V12.9167H6.6001L7.51676 11.25Z" fill="#26890D"/>
</svg>
