<svg width="70" height="25" viewBox="0 0 70 25" fill="none" xmlns="http://www.w3.org/2000/svg">
<path d="M64.3535 9.01669C64.7027 8.8946 64.9901 9.13548 65.0536 9.18332C65.2992 9.37306 65.5632 9.43246 65.7888 9.20147C65.6869 8.8715 65.3644 8.73291 65.0419 8.73291C64.7595 8.73291 64.4805 8.84015 64.3535 9.01669Z" fill="#000104"/>
<path d="M52.5479 16.702C50.9389 19.0827 52.2489 21.4965 52.2489 21.4965C53.6106 24.0175 55.6323 24.7401 56.954 24.7698C57.2413 24.7583 57.5421 24.7253 57.8529 24.6609C57.8662 24.6576 57.8813 24.656 57.8947 24.6527C57.8947 24.6527 57.9364 24.6362 57.9381 24.6081C57.9398 24.5801 57.9197 24.5586 57.893 24.5553C56.5346 24.6296 55.0926 23.9366 53.9548 22.5837C52.8387 21.2638 52.6098 20.0231 52.6164 19.2114C52.6164 18.0779 53.1946 16.961 53.9347 16.1492C53.9347 16.1492 55.3483 14.3905 57.8044 14.6726C57.8295 14.6743 57.8512 14.6561 57.8529 14.6314C57.8545 14.6066 57.8195 14.5885 57.8195 14.5885C57.7944 14.5654 57.4068 14.4152 56.8203 14.3723C55.7359 14.2931 53.9715 14.5769 52.5496 16.6954" fill="#000104"/>
<path d="M23.6303 3.65436C23.6303 3.66426 23.637 3.68076 23.637 3.68076C23.9511 4.36875 25.5184 6.69342 28.0731 7.94897C31.495 9.80508 35.8743 9.97831 39.0088 10.9996C40.7147 11.5259 42.4407 12.3838 43.891 13.4628C46.7365 15.441 50.6897 20.6183 51.8376 22.0917C52.4123 22.8226 53.0623 23.4033 53.2561 23.5633C53.9596 24.1771 55.2561 24.9245 57.0272 24.809C57.1308 24.8024 57.2378 24.7925 57.3464 24.7793C56.0264 24.8453 53.9562 24.2728 52.409 21.859C49.8894 18.2458 47.622 15.3338 45.5117 13.4612C43.4599 11.6414 41.612 10.8263 40.0748 10.2703C37.0338 9.12863 33.1324 9.14678 29.3596 7.79223C28.043 7.32697 27.0405 6.73137 26.2435 6.15391C24.8082 5.11779 24.0814 4.08992 23.7205 3.61971V3.61641C23.7088 3.60651 23.6955 3.60156 23.6804 3.60156C23.652 3.60156 23.627 3.62466 23.627 3.65436" fill="#000104"/>
<path d="M63.3692 10.7013C62.6925 10.8795 61.8003 11.32 61.1487 11.8859C59.6733 13.0078 57.9791 15.6855 56.7844 16.4841C56.091 16.984 55.137 17.3502 54.4536 17.3502C54.4302 17.3502 54.4102 17.3684 54.4102 17.3931C54.4102 17.4146 54.4285 17.4327 54.4503 17.4344C56.6023 17.7726 58.1445 16.3719 59.3793 14.9563C60.5739 13.5852 61.9574 12.1548 62.9081 11.7044C63.5012 11.4058 64.1428 11.2127 64.7711 11.1352C66.4536 10.9257 68.0226 11.3299 68.0226 11.3299C68.0343 11.3299 68.0459 11.3249 68.0543 11.3167C68.0543 11.3167 68.0426 11.2705 67.919 11.188C67.919 11.188 66.5622 10.5148 64.8546 10.5132C64.3784 10.5132 63.8772 10.566 63.3676 10.6996" fill="#000104"/>
<path d="M69.1643 9.08593C68.8635 8.96219 66.384 8.04321 64.526 6.23165C64.526 6.23165 65.3765 4.63788 64.6697 3.19589C63.9629 1.7539 62.4909 1.29029 62.0916 1.22099C62.0916 1.22099 62.0866 1.22099 62.0832 1.22099C62.0548 1.22099 62.0298 1.24409 62.0298 1.27379C61.6004 2.94841 62.5277 5.11634 63.724 6.43129C62.7816 7.73304 61.3865 8.64377 59.2277 8.49858C57.1793 8.41444 55.1759 7.37502 53.0573 6.08482C50.7499 4.76657 48.6279 3.19259 44.5326 3.22064C43.5719 3.22064 41.8392 3.33778 39.8008 3.94493C37.9411 4.52239 35.358 5.57996 31.7456 5.39187C30.0096 5.31103 28.2051 4.77152 26.6947 3.85419C25.084 2.87417 23.7606 1.50642 22.9319 0.5H22.7832C22.9269 0.724383 23.5251 1.61696 24.6145 2.75867C26.1282 4.3145 28.4691 5.80929 31.3697 6.13596C32.7481 6.3125 34.5393 6.263 36.1567 5.96768C38.8902 5.46776 40.2252 4.68243 42.805 4.39535C44.7532 4.14127 46.5159 4.30955 48.0598 4.79132C49.9712 5.38692 51.622 6.46594 53.2194 7.37007C54.9671 8.35669 56.7232 9.13708 58.5059 9.31196C59.841 9.4456 61.059 9.24762 61.9195 8.84175C63.4867 8.04486 64.1484 6.88665 64.1484 6.88665C64.1484 6.88665 65.4015 8.15705 67.196 9.05294C67.602 9.26082 68.0198 9.4687 68.4675 9.61389C68.4675 9.61389 68.3021 10.6946 67.9212 11.1895C68.0465 11.2704 68.0565 11.3166 68.0565 11.3166C68.8969 10.6698 69.196 9.5347 69.1643 9.08758V9.08593ZM64.1066 5.79939C62.4792 4.02413 62.1651 2.16472 62.1668 1.35628C62.1668 1.35628 65.6238 2.58379 64.1066 5.79939Z" fill="#000104"/>
<mask id="mask0_3001_16761" style="mask-type:luminance" maskUnits="userSpaceOnUse" x="17" y="17" width="8" height="8">
<path d="M23.8271 17.1273C23.2256 17.1273 22.7377 17.6107 22.7377 18.2014V22.4498C22.7377 22.4663 22.7344 22.8936 22.4854 23.1395C22.3367 23.2879 22.1128 23.3589 21.7954 23.3589H20.3768C20.0594 23.3589 19.8321 23.2863 19.6868 23.1395C19.4812 22.9349 19.4328 22.5851 19.4361 22.4267V18.1997C19.4361 17.6074 18.9482 17.1257 18.3467 17.1257H17.9558V22.397C17.9508 22.5719 17.9558 23.4711 18.6157 24.1459C18.9132 24.4528 19.4595 24.8174 20.3752 24.8174H21.7937C22.7077 24.8174 23.2574 24.4528 23.5564 24.1459C24.2432 23.4397 24.2148 22.4746 24.2148 22.4333V17.124H23.8255L23.8271 17.1273Z" fill="white"/>
</mask>
<g mask="url(#mask0_3001_16761)">
<path d="M18.0986 16.1879L16.7734 24.6401L24.0981 25.7598L25.4232 17.3076L18.0986 16.1879Z" fill="#000104"/>
</g>
<mask id="mask1_3001_16761" style="mask-type:luminance" maskUnits="userSpaceOnUse" x="10" y="17" width="7" height="8">
<path d="M13.3324 17.1289C13.0901 17.1289 12.2463 17.1751 11.6114 17.7806C11.2989 18.0759 10.9297 18.6171 10.9297 19.5196V22.3392C10.9297 23.2417 11.3006 23.7845 11.6114 24.0782C12.263 24.6985 13.1402 24.7299 13.309 24.7299H15.5997C16.1979 24.7266 16.7075 24.2464 16.7075 23.6541V20.3511H14.9347C14.3365 20.3511 13.8269 20.8345 13.8269 21.4252V21.6265H15.2672V23.2697H13.3324C13.2204 23.2664 12.8478 23.2334 12.6306 23.0206C12.4819 22.8754 12.4084 22.6527 12.4084 22.3392V19.5196C12.4084 19.2061 12.4819 18.9834 12.6306 18.8382C12.8328 18.6402 13.1569 18.589 13.3006 18.589C13.319 18.589 13.3357 18.589 13.3608 18.5923H16.7075V18.2046C16.7075 17.6156 16.1979 17.1322 15.5997 17.1306H13.3307L13.3324 17.1289Z" fill="white"/>
</mask>
<g mask="url(#mask1_3001_16761)">
<path d="M11.0647 16.2653L9.76562 24.5513L16.5734 25.5919L17.8725 17.306L11.0647 16.2653Z" fill="#000104"/>
</g>
<mask id="mask2_3001_16761" style="mask-type:luminance" maskUnits="userSpaceOnUse" x="32" y="17" width="7" height="8">
<path d="M32.627 17.1274V24.6937H33.1132C33.6662 24.6509 34.1057 24.1823 34.1057 23.6279V18.5892H36.4098C36.7356 18.6123 36.9728 18.6965 37.1165 18.8367C37.2652 18.9819 37.3387 19.2046 37.3387 19.5181V20.1484C37.3387 20.4618 37.2669 20.6846 37.1165 20.8314C36.916 21.0277 36.5785 21.0789 36.4281 21.0789H34.7272C35.1265 21.6778 35.83 22.7271 36.4081 23.557C37.1382 24.6063 37.708 24.6937 38.2276 24.6937H38.9862L37.2184 22.1332L37.3989 22.0903C37.7097 22.016 37.957 21.9104 38.1341 21.7768C38.5902 21.432 38.8208 20.8825 38.8208 20.1484V19.5181C38.8208 18.6156 38.4499 18.0745 38.1391 17.7791C37.5042 17.1753 36.647 17.1274 36.3997 17.1274H32.6286H32.627Z" fill="white"/>
</mask>
<g mask="url(#mask2_3001_16761)">
<path d="M32.776 16.1785L31.4688 24.5166L38.8363 25.6428L40.1435 17.3047L32.776 16.1785Z" fill="#000104"/>
</g>
<mask id="mask3_3001_16761" style="mask-type:luminance" maskUnits="userSpaceOnUse" x="24" y="17" width="8" height="8">
<path d="M28.0536 17.1276C27.3201 17.1276 27.006 17.9047 26.9041 18.238L24.6602 24.7022H25.4421C26.2007 24.7022 26.3627 24.4069 26.5098 23.9878C26.6267 23.6595 28.2558 18.6488 28.2558 18.6488C28.2558 18.6488 29.8866 23.6611 30.0035 23.9878C30.1506 24.4069 30.3126 24.7022 31.0695 24.7022H31.8515L29.2232 17.126H28.0536V17.1276Z" fill="white"/>
</mask>
<g mask="url(#mask3_3001_16761)">
<path d="M24.8282 16.055L23.5 24.5269L31.6832 25.7778L33.0114 17.306L24.8282 16.055Z" fill="#000104"/>
</g>
<mask id="mask4_3001_16761" style="mask-type:luminance" maskUnits="userSpaceOnUse" x="40" y="17" width="6" height="8">
<path d="M41.5985 18.5892H43.398C43.4464 18.5892 43.8608 18.6024 44.0997 18.8367C44.2485 18.9819 44.322 19.2046 44.322 19.5181V22.3377C44.322 22.6529 44.2485 22.8756 44.0997 23.0208C43.8976 23.2171 43.5651 23.2683 43.4164 23.2683H41.5985V18.5876V18.5892ZM40.0195 17.1274V23.6906C40.0362 24.1856 40.3921 24.6047 40.8834 24.707L43.3462 24.7037C43.3679 24.7037 43.3963 24.7053 43.4364 24.7053C43.7455 24.7053 44.5241 24.6443 45.119 24.0784C45.4297 23.7847 45.799 23.2435 45.799 22.3394V19.5198C45.799 18.6173 45.4281 18.0761 45.119 17.7808C44.484 17.1769 43.6286 17.1291 43.3813 17.1291H40.0212L40.0195 17.1274Z" fill="white"/>
</mask>
<g mask="url(#mask4_3001_16761)">
<path d="M40.1551 16.265L38.8594 24.5298L45.6639 25.57L46.9596 17.3052L40.1551 16.265Z" fill="#000104"/>
</g>
<mask id="mask5_3001_16761" style="mask-type:luminance" maskUnits="userSpaceOnUse" x="7" y="20" width="3" height="2">
<path d="M8.98729 20.6797C8.43257 20.6797 7.96974 21.0922 7.90625 21.6284H9.54034V20.6797H8.98729Z" fill="white"/>
</mask>
<g mask="url(#mask5_3001_16761)">
<path d="M7.94304 20.4359L7.75977 21.605L9.50176 21.8713L9.68504 20.7022L7.94304 20.4359Z" fill="#000104"/>
</g>
<mask id="mask6_3001_16761" style="mask-type:luminance" maskUnits="userSpaceOnUse" x="0" y="17" width="9" height="8">
<path d="M7.24336 17.1289C6.48814 17.1289 6.32439 17.4242 6.17736 17.8433C6.05873 18.1749 4.42965 23.1806 4.42965 23.1806C4.42965 23.1806 2.80224 18.1782 2.68194 17.8433C2.53491 17.4242 2.36949 17.1289 1.61594 17.1289H0.833984L3.07459 23.5865C3.17818 23.9247 3.49398 24.7035 4.22748 24.7035H5.39707L8.02532 17.1289H7.24336Z" fill="white"/>
</mask>
<g mask="url(#mask6_3001_16761)">
<path d="M1.00396 16.055L-0.324219 24.5269L7.85903 25.7778L9.18721 17.306L1.00396 16.055Z" fill="#000104"/>
</g>
</svg>
