<svg width="70" height="33" viewBox="0 0 70 33" fill="none" xmlns="http://www.w3.org/2000/svg">
<mask id="mask0_1564_10759" style="mask-type:luminance" maskUnits="userSpaceOnUse" x="0" y="0" width="70" height="33">
<path d="M0 0H70V32.2817H0V0Z" fill="white"/>
</mask>
<g mask="url(#mask0_1564_10759)">
<path d="M66.2891 11.2358C66.2895 10.7438 66.4851 10.272 66.8331 9.92413C67.181 9.57623 67.6529 9.38066 68.1449 9.38037C68.637 9.38047 69.1089 9.57599 69.4568 9.92394C69.8048 10.2719 70.0003 10.7438 70.0004 11.2358C70.0004 11.7279 69.8049 12.1999 69.4569 12.5479C69.109 12.8958 68.637 13.0913 68.1449 13.0913C67.6528 13.0911 67.181 12.8956 66.833 12.5477C66.485 12.1998 66.2894 11.7279 66.2891 11.2358Z" fill="#86BC25"/>
<path d="M7.1017 6.32069C7.1017 5.14532 6.87446 4.27347 6.41999 3.70514C6.16512 3.41178 5.84516 3.18212 5.48569 3.03448C5.12623 2.88684 4.73721 2.82532 4.34973 2.85485H3.3645V10.0438H4.11904C5.14752 10.0438 5.90168 9.73798 6.38154 9.12627C6.8614 8.51455 7.10157 7.57973 7.10207 6.3218M10.6163 6.1998C10.6163 8.34104 10.0405 9.99097 8.88877 11.1496C7.73707 12.3082 6.11844 12.8874 4.0329 12.8871H-0.0214844V0.0537109H4.31571C6.32707 0.0537109 7.87977 0.580519 8.9738 1.63413C10.0678 2.68775 10.615 4.20927 10.6152 6.19869" fill="white"/>
</g>
<path d="M21.8445 -6.10352e-05H25.0704V12.8866H21.8445V-6.10352e-05Z" fill="white"/>
<path d="M29.6019 8.07985C29.5682 8.72226 29.6778 9.36412 29.9228 9.95898C30.0167 10.163 30.1702 10.3339 30.3629 10.4492C30.5557 10.5645 30.7788 10.6189 31.003 10.6052C31.2247 10.6191 31.4453 10.5646 31.635 10.449C31.8247 10.3334 31.9743 10.1624 32.0636 9.95898C32.2998 9.36189 32.4051 8.72111 32.3727 8.07985C32.4067 7.4481 32.2998 6.81669 32.0596 6.2314C31.9644 6.03147 31.8112 5.86481 31.62 5.75312C31.4288 5.64143 31.2084 5.58987 30.9875 5.60514C30.7686 5.59164 30.5506 5.64333 30.3611 5.75368C30.1716 5.86403 30.019 6.02809 29.9228 6.22511C29.6755 6.81074 29.5655 7.44516 29.6011 8.07985M35.6559 8.07985C35.6559 9.64462 35.2448 10.8646 34.4226 11.7398C33.6004 12.615 32.4497 13.0529 30.9705 13.0536C30.3429 13.0835 29.7162 12.9791 29.1323 12.7474C28.5483 12.5158 28.0205 12.1621 27.5841 11.7102C26.7449 10.8148 26.3259 9.60407 26.3272 8.078C26.3272 6.51741 26.7384 5.30483 27.5608 4.44025C28.3832 3.57567 29.537 3.14338 31.0222 3.14338C31.872 3.12625 32.7112 3.33332 33.4555 3.74375C34.1578 4.14185 34.7252 4.74056 35.0851 5.46318C35.4822 6.27649 35.6786 7.17315 35.6577 8.078" fill="white"/>
<path d="M36.9375 3.31464H40.163V12.8866H36.9375V3.31464Z" fill="white"/>
<path d="M36.9375 -6.10352e-05H40.163V2.15671H36.9375V-6.10352e-05Z" fill="white"/>
<path d="M46.7007 10.4453C47.2356 10.4247 47.7631 10.3131 48.2604 10.1151V12.5237C47.8617 12.7027 47.4456 12.8398 47.0186 12.9329C46.5632 13.0206 46.1001 13.0617 45.6364 13.0556C44.5519 13.0556 43.7708 12.7838 43.2929 12.2401C42.815 11.6964 42.5761 10.8617 42.5761 9.73584V5.78977H41.4463V3.31507H42.5761V0.871047L45.8267 0.30542V3.31507H47.8852V5.78977H45.8267V9.51587C45.8267 10.1352 46.1181 10.445 46.7007 10.4453Z" fill="white"/>
<path d="M54.1676 10.4453C54.7024 10.4247 55.2297 10.3131 55.727 10.1151V12.5237C55.3285 12.7028 54.9124 12.84 54.4855 12.9329C54.0301 13.0206 53.567 13.0617 53.1033 13.0556C52.0201 13.0556 51.2392 12.7838 50.7606 12.2401C50.2819 11.6964 50.0427 10.8617 50.043 9.73584V5.78977H48.9121V3.31507H50.043V0.834076L53.2937 0.30542V3.31507H55.3528V5.78977H53.2937V9.51587C53.2937 10.1352 53.585 10.445 54.1676 10.4453Z" fill="white"/>
<path d="M59.7977 6.91357C59.8018 6.4872 59.9616 6.07704 60.2468 5.76014C60.3735 5.63895 60.523 5.54408 60.6866 5.48101C60.8502 5.41794 61.0246 5.38791 61.1999 5.39266C61.3846 5.38442 61.5688 5.41732 61.7393 5.48899C61.9098 5.56066 62.0622 5.66931 62.1855 5.80709C62.4434 6.11709 62.5797 6.51041 62.5688 6.91357H59.7977ZM64.3471 4.27361C63.5803 3.52166 62.4929 3.14569 61.0849 3.14569C59.6061 3.14569 58.4674 3.57798 57.6686 4.44256C56.8698 5.30714 56.4712 6.54757 56.4727 8.16386C56.4727 9.72962 56.903 10.9363 57.7636 11.7839C58.6243 12.6314 59.8331 13.0553 61.3903 13.0556C62.037 13.0637 62.683 13.0126 63.3204 12.9029C63.8638 12.7997 64.3889 12.6163 64.8783 12.3587L64.3825 10.202C64.0448 10.3429 63.6963 10.4565 63.3404 10.5417C62.8275 10.6559 62.3032 10.7114 61.7777 10.707C61.248 10.7366 60.7252 10.5749 60.3049 10.2511C60.1241 10.0949 59.9792 9.90141 59.8803 9.68393C59.7813 9.46646 59.7305 9.23015 59.7315 8.99122H65.4986V7.52208C65.4986 6.10814 65.1149 5.02519 64.3474 4.27324" fill="white"/>
<mask id="mask1_1564_10759" style="mask-type:luminance" maskUnits="userSpaceOnUse" x="0" y="0" width="70" height="33">
<path d="M0 0H70V32.2817H0V0Z" fill="white"/>
</mask>
<g mask="url(#mask1_1564_10759)">
<path d="M14.8975 6.91344C14.9016 6.487 15.0615 6.07678 15.347 5.76001C15.4737 5.63873 15.6231 5.5438 15.7867 5.48072C15.9503 5.41764 16.1248 5.38766 16.3001 5.39254C16.4848 5.38445 16.669 5.41743 16.8394 5.48909C17.0099 5.56075 17.1623 5.66931 17.2857 5.80696C17.543 6.11737 17.6793 6.51039 17.6694 6.91344H14.8975ZM19.4473 4.27349C18.6803 3.52154 17.5927 3.14557 16.1844 3.14557C14.7056 3.14557 13.5672 3.57786 12.7692 4.44244C11.9712 5.30702 11.5723 6.54745 11.5725 8.16374C11.5725 9.72949 12.003 10.9362 12.8638 11.7837C13.7247 12.6313 14.9334 13.0552 16.4898 13.0555C17.1366 13.0636 17.7828 13.0125 18.4203 12.9028C18.9639 12.7997 19.4892 12.6163 19.9789 12.3586L19.4835 10.2018C19.1458 10.3428 18.7973 10.4564 18.4413 10.5416C17.9283 10.6558 17.4039 10.7112 16.8783 10.7068C16.3486 10.7364 15.8259 10.5746 15.4055 10.251C15.2245 10.0948 15.0796 9.90138 14.9805 9.68391C14.8813 9.46643 14.8305 9.23009 14.8313 8.9911H20.5985V7.52195C20.5985 6.10801 20.215 5.02507 19.448 4.27312" fill="white"/>
<path d="M8.25956 22.0596C8.25956 20.3238 7.81877 19.0176 6.93718 18.1409C6.0556 17.2642 4.76131 16.8268 3.05433 16.8285H0.823996V27.4567H2.8303C6.44981 27.4567 8.25956 25.6577 8.25956 22.0596ZM9.17972 22.0263C9.17972 24.0604 8.64638 25.5983 7.57971 26.6401C6.51303 27.6818 4.94653 28.2027 2.88021 28.2027H-0.0214844V16.0821H3.25323C5.18744 16.0821 6.65893 16.5873 7.66769 17.5978C8.67645 18.6083 9.18083 20.0845 9.18083 22.0263" fill="white"/>
</g>
<path d="M10.7949 19.1914H11.6156V28.203H10.7949V19.1914Z" fill="white"/>
<path d="M10.7949 17.0107H11.6156V18.1413H10.7949V17.0107Z" fill="white"/>
<path d="M22.1221 19.1913H22.9428V28.2029H22.1221V19.1913Z" fill="white"/>
<path d="M22.1221 17.0108H22.9428V18.1413H22.1221V17.0108Z" fill="white"/>
<path d="M14.0745 22.0016C14.0568 22.3015 14.1043 22.6017 14.2138 22.8815C14.3232 23.1613 14.492 23.414 14.7086 23.6223C15.1794 24.0237 15.786 24.2299 16.4039 24.1986C17.0328 24.2411 17.6533 24.0357 18.1326 23.6264C18.3429 23.4069 18.5049 23.146 18.6085 22.8603C18.712 22.5746 18.7546 22.2704 18.7337 21.9672C18.7578 21.6519 18.7153 21.335 18.6089 21.0373C18.5024 20.7395 18.3345 20.4675 18.116 20.2389C17.6362 19.8304 17.0167 19.6238 16.3877 19.6625C16.0777 19.6453 15.7675 19.6913 15.4758 19.7977C15.1842 19.9041 14.9172 20.0686 14.6912 20.2814C14.4775 20.5116 14.3127 20.7827 14.2067 21.0784C14.1008 21.374 14.0558 21.6881 14.0745 22.0016ZM13.3865 29.7281C13.3865 30.9658 14.3067 31.5848 16.147 31.585C18.513 31.585 19.696 30.8306 19.696 29.3218C19.7148 29.0942 19.6734 28.8657 19.5761 28.6591C19.4788 28.4526 19.3289 28.2752 19.1415 28.1447C18.5869 27.8595 17.9642 27.7332 17.3422 27.7798H15.8653C14.2126 27.7798 13.3863 28.4292 13.3865 29.7281ZM20.682 19.1919V19.7638L18.8165 19.8799C19.2967 20.4512 19.5608 21.1732 19.5626 21.9195C19.5774 22.3126 19.5077 22.7044 19.3583 23.0683C19.2089 23.4323 18.9832 23.76 18.6964 24.0293C18.0559 24.591 17.2218 24.8809 16.371 24.8375C16.0827 24.8454 15.7941 24.8288 15.5086 24.7879C15.2173 24.9305 14.9622 25.1375 14.7625 25.3931C14.598 25.6047 14.5077 25.8645 14.5056 26.1325C14.4975 26.2572 14.5237 26.3817 14.5814 26.4925C14.6392 26.6034 14.7263 26.6962 14.8331 26.761C15.1765 26.9193 15.5544 26.9878 15.9315 26.9599H17.5067C18.3 26.9076 19.0887 27.1152 19.7533 27.5514C20.0154 27.7588 20.2233 28.0268 20.3589 28.3323C20.4946 28.6378 20.5541 28.9716 20.5323 29.3052C20.5485 29.7409 20.4503 30.1733 20.2475 30.5593C20.0447 30.9453 19.7443 31.2714 19.3763 31.5052C18.6051 32.0228 17.5066 32.2815 16.0808 32.2815C15.1572 32.3368 14.2387 32.1082 13.4486 31.6264C13.151 31.4273 12.909 31.1554 12.7458 30.8366C12.5826 30.5178 12.5035 30.1626 12.5159 29.8046C12.4972 29.2348 12.7042 28.6806 13.0919 28.2626C13.5156 27.8311 14.0604 27.5384 14.6542 27.4234C14.398 27.3186 14.1735 27.1486 14.0032 26.9303C13.8412 26.7203 13.755 26.4616 13.7588 26.1964C13.7588 25.5941 14.1429 25.0635 14.9111 24.6046C14.4048 24.4047 13.9751 24.049 13.6841 23.589C13.387 23.1136 13.2343 22.5621 13.2446 22.0016C13.2269 21.6002 13.2942 21.1996 13.4421 20.826C13.5899 20.4524 13.815 20.1143 14.1026 19.8337C14.737 19.2663 15.5699 18.9728 16.4198 19.0171C16.8851 18.9998 17.35 19.0586 17.7962 19.1912H20.6798" fill="white"/>
<path d="M32.8537 27.6235C33.269 27.6462 33.6846 27.5848 34.0756 27.4431C34.4667 27.3013 34.8251 27.0822 35.1295 26.7988C35.417 26.4935 35.6392 26.1328 35.7824 25.7386C35.9256 25.3445 35.9869 24.9253 35.9624 24.5067V23.6194L34.3875 23.6856C33.1217 23.7465 32.2194 23.9437 31.6807 24.2771C31.4167 24.4397 31.202 24.671 31.0596 24.9463C30.9172 25.2216 30.8524 25.5305 30.8722 25.8398C30.8579 26.0832 30.8968 26.3269 30.9861 26.5538C31.0755 26.7807 31.2132 26.9854 31.3897 27.1537C31.8011 27.4891 32.324 27.6569 32.8537 27.6235ZM36.1698 28.204L35.9624 26.7781H35.8962C35.5266 27.286 35.0496 27.7063 34.4992 28.0091C33.9703 28.2605 33.3896 28.384 32.8042 28.3696C32.0544 28.4158 31.3154 28.1724 30.7398 27.6897C30.4888 27.4475 30.2928 27.1541 30.1652 26.8294C30.0376 26.5047 29.9814 26.1563 30.0004 25.808C29.9875 25.4003 30.0822 24.9963 30.275 24.6368C30.4678 24.2774 30.7519 23.975 31.0988 23.7603C31.8313 23.274 32.891 23.0171 34.2781 22.9895L35.9942 22.9396V22.3425C36.0431 21.6556 35.859 20.9723 35.4718 20.4028C35.2612 20.1708 34.9995 19.9909 34.7075 19.8772C34.4155 19.7635 34.1011 19.7192 33.789 19.7477C32.8805 19.7669 31.9902 20.0059 31.1942 20.4442L30.8873 19.7314C31.8019 19.2846 32.8044 19.0467 33.8223 19.0349C34.8116 19.0349 35.551 19.2918 36.0404 19.8057C36.5299 20.3196 36.7745 21.1206 36.7743 22.2087V28.2025H36.1706" fill="white"/>
<path d="M39.082 15.3032H39.9046V28.2028H39.0835L39.082 15.3032Z" fill="white"/>
<path d="M27.8314 27.639C28.2882 27.6454 28.7442 27.6009 29.1911 27.5062V28.1695C28.746 28.3091 28.2812 28.3763 27.8148 28.3683C27.4925 28.3954 27.1681 28.3524 26.8641 28.2423C26.56 28.1321 26.2833 27.9575 26.0532 27.7303C25.6751 27.3049 25.4861 26.6361 25.4861 25.724V19.9039H24.1504V19.1912H25.4861V17.1697L26.3234 17.0107V19.1919H28.9678V19.9047H26.3227V25.6086C26.2827 26.1453 26.4101 26.6811 26.6872 27.1425C26.8226 27.3132 26.9981 27.4478 27.198 27.5346C27.3979 27.6213 27.6161 27.6574 27.8332 27.6397" fill="white"/>
</svg>
