<svg width="38" height="36" viewBox="0 0 38 36" fill="none" xmlns="http://www.w3.org/2000/svg">
<path d="M26.9167 4.5H11.0834C9.34175 4.5 7.91675 5.85 7.91675 7.5V31.5L19.0001 27L30.0834 31.5V7.5C30.0834 5.85 28.6584 4.5 26.9167 4.5Z" fill="url(#paint0_linear_2969_14969)"/>
<path d="M18.2724 21.5968L13.3974 16.7218C13.2024 16.5268 13.0833 16.2559 13.0833 15.958L13.0833 12.1663C13.0833 11.5705 13.5708 11.083 14.1666 11.083L17.9583 11.083C18.2562 11.083 18.527 11.2022 18.7274 11.4026L23.6024 16.2776C23.7974 16.4726 23.9166 16.7434 23.9166 17.0413C23.9166 17.3393 23.7974 17.6101 23.597 17.8051L19.8053 21.5968C19.6103 21.7972 19.3395 21.9163 19.0416 21.9163C18.7437 21.9163 18.4674 21.7918 18.2724 21.5968ZM22.8387 17.0413L17.9583 12.1663L14.1666 12.1663L14.1666 15.958L14.1612 15.958L19.0362 20.833L22.8387 17.0413Z" fill="white"/>
<path d="M16.3333 13.5205C16.3333 13.9692 15.9695 14.333 15.5208 14.333C15.072 14.333 14.7083 13.9692 14.7083 13.5205C14.7083 13.0718 15.072 12.708 15.5208 12.708C15.9695 12.708 16.3333 13.0718 16.3333 13.5205Z" fill="white"/>
<defs>
<linearGradient id="paint0_linear_2969_14969" x1="7.91675" y1="4.5" x2="30.0834" y2="4.5" gradientUnits="userSpaceOnUse">
<stop stop-color="#26890D"/>
<stop offset="0.142857" stop-color="#008D34"/>
<stop offset="0.285714" stop-color="#00914F"/>
<stop offset="0.428571" stop-color="#009467"/>
<stop offset="0.571429" stop-color="#00957D"/>
<stop offset="0.714286" stop-color="#00978F"/>
<stop offset="0.857143" stop-color="#00979E"/>
<stop offset="1" stop-color="#0097A9"/>
</linearGradient>
</defs>
</svg>
