<svg width="360" height="145" viewBox="0 0 360 145" fill="none" xmlns="http://www.w3.org/2000/svg">
<g clip-path="url(#clip0_2810_18979)">
<rect width="360" height="145" fill="#002E33"/>
<g clip-path="url(#clip1_2810_18979)">
<path d="M364.803 62.9355H258.924V144.993H364.803V62.9355Z" fill="#8AAEB3"/>
<path opacity="0.2" d="M364.803 62.9355H258.924V144.993H364.803V62.9355Z" fill="#2C2C2C"/>
<path opacity="0.2" d="M258.924 145H299.025V62.9425H258.924V145Z" fill="#2C2C2C"/>
<path d="M261.688 139.378C264.663 133.543 267.607 127.689 270.519 121.816L279.214 104.168L287.809 86.4417C290.674 80.5257 293.493 74.5858 296.268 68.6221C293.302 74.4569 290.361 80.3108 287.444 86.1838L278.742 103.839L270.147 121.565C267.296 127.457 264.477 133.395 261.688 139.378Z" fill="#8AAEB3"/>
<path d="M261.688 68.5859C264.482 74.5449 267.301 80.4848 270.147 86.4055L278.742 104.132L287.444 121.78C290.352 127.653 293.293 133.507 296.268 139.341C293.479 133.382 290.66 127.445 287.809 121.529L279.214 103.803L270.519 86.1477C267.602 80.2747 264.658 74.4208 261.688 68.5859Z" fill="#8AAEB3"/>
<path d="M284.98 62.9355H272.804V72.9483H284.98V62.9355Z" fill="#B0C8CC"/>
<path d="M342.557 127.503H341.705V139.535H342.557V127.503Z" fill="#002E33"/>
<path d="M344.598 127.503H343.746V139.535H344.598V127.503Z" fill="#002E33"/>
<path d="M346.647 127.503H345.794V139.535H346.647V127.503Z" fill="#002E33"/>
<path d="M348.695 127.503H347.843V139.535H348.695V127.503Z" fill="#002E33"/>
<path d="M350.743 127.503H349.891V139.535H350.743V127.503Z" fill="#002E33"/>
<path d="M352.792 127.503H351.939V139.535H352.792V127.503Z" fill="#002E33"/>
<path d="M354.833 127.503H353.981V139.535H354.833V127.503Z" fill="#002E33"/>
<path d="M356.881 127.503H356.029V139.535H356.881V127.503Z" fill="#002E33"/>
<path d="M358.93 127.503H358.078V139.535H358.93V127.503Z" fill="#002E33"/>
<path d="M333.332 138.619L336.612 139.529H328.913L332.193 138.612V134.186C329.844 133.878 328.913 131.565 328.913 127.511H336.612C336.612 131.55 335.681 133.878 333.332 134.186V138.619Z" fill="#263238" fill-opacity="0.6"/>
<path d="M327.115 133.642H325.103V139.529H319.953V133.642H317.933L322.531 127.511L327.115 133.642Z" fill="#263238" fill-opacity="0.6"/>
<path opacity="0.1" d="M364.803 144.993V139.235L299.025 128.57V144.993H364.803Z" fill="#2C2C2C"/>
<path d="M360.985 34H279.186V62.9353H360.985V34Z" fill="#8AAEB3"/>
<path opacity="0.2" d="M360.985 34H279.186V62.9353H360.985V34Z" fill="#2C2C2C"/>
<path opacity="0.2" d="M279.193 62.9355H304.189V34.0002H279.193V62.9355Z" fill="#2C2C2C"/>
<path d="M280.912 60.9444C282.76 58.8816 284.601 56.8189 286.413 54.749L291.834 48.5251L297.192 42.2725C298.968 40.1859 300.725 38.0921 302.463 35.9912C300.611 38.0492 298.777 40.1143 296.963 42.1865L291.534 48.4177L286.183 54.6703C284.407 56.7473 282.65 58.8387 280.912 60.9444Z" fill="#8AAEB3"/>
<path d="M280.912 35.9912C282.65 38.0874 284.407 40.1811 286.183 42.2725L291.534 48.5251L296.963 54.749C298.777 56.8213 300.611 58.8864 302.463 60.9444C300.72 58.8387 298.963 56.7449 297.192 54.6631L291.834 48.4177L286.413 42.1937C284.601 40.1095 282.76 38.0468 280.912 35.9912Z" fill="#8AAEB3"/>
<path d="M295.43 34H287.838V40.7754H295.43V34Z" fill="#B0C8CC"/>
<path d="M347.119 52.0342H346.589V59.533H347.119V52.0342Z" fill="#002E33"/>
<path d="M348.394 52.0342H347.864V59.533H348.394V52.0342Z" fill="#002E33"/>
<path d="M349.669 52.0342H349.139V59.533H349.669V52.0342Z" fill="#002E33"/>
<path d="M350.944 52.0342H350.414V59.533H350.944V52.0342Z" fill="#002E33"/>
<path d="M352.219 52.0342H351.689V59.533H352.219V52.0342Z" fill="#002E33"/>
<path d="M353.494 52.0342H352.964V59.533H353.494V52.0342Z" fill="#002E33"/>
<path d="M354.776 52.0342H354.246V59.533H354.776V52.0342Z" fill="#002E33"/>
<path d="M356.051 52.0342H355.521V59.533H356.051V52.0342Z" fill="#002E33"/>
<path d="M357.325 52.0342H356.795V59.533H357.325V52.0342Z" fill="#002E33"/>
<path d="M341.368 58.96L343.416 59.533H338.611L340.659 58.9529V56.1954C339.227 56.0092 338.611 54.5624 338.611 52.0342H343.416C343.416 54.5553 342.836 56.0092 341.368 56.1954V58.96Z" fill="#263238" fill-opacity="0.6"/>
<path d="M337.493 55.8588H336.24V59.533H333.031V55.8588H331.771L334.636 52.0342L337.493 55.8588Z" fill="#263238" fill-opacity="0.6"/>
<path opacity="0.1" d="M360.985 62.936V59.3477L304.182 52.7012V62.936H360.985Z" fill="#2C2C2C"/>
</g>
</g>
<defs>
<clipPath id="clip0_2810_18979">
<rect width="360" height="145" fill="white"/>
</clipPath>
<clipPath id="clip1_2810_18979">
<rect width="101" height="111" fill="white" transform="translate(259 34)"/>
</clipPath>
</defs>
</svg>
