<svg width="24" height="24" viewBox="0 0 24 24" fill="none" xmlns="http://www.w3.org/2000/svg">
<path d="M9 12C11.55 12 13.5 10.05 13.5 7.5C13.5 4.95 11.55 3 9 3C6.45 3 4.5 4.95 4.5 7.5C4.5 10.05 6.45 12 9 12ZM9 4.5C10.65 4.5 12 5.85 12 7.5C12 9.15 10.65 10.5 9 10.5C7.35 10.5 6 9.15 6 7.5C6 5.85 7.35 4.5 9 4.5Z" fill="black"/>
<path d="M12.9 14.55C11.85 13.95 10.65 13.5 9.3 13.5H9H8.7C7.35 13.5 6.15 13.95 5.1 14.55C4.05 15.15 3.15 16.2 2.55 17.25C1.8 18.45 1.5 19.65 1.5 21V21.75C1.5 22.2 1.8 22.5 2.25 22.5H15.75C16.2 22.5 16.5 22.2 16.5 21.75V21C16.5 19.8 16.2 18.45 15.6 17.4C14.85 16.2 13.95 15.3 12.9 14.55ZM3 21C3 19.95 3.3 18.9 3.75 18C4.2 17.1 4.95 16.35 5.85 15.9C6.75 15.3 7.65 15 8.7 15H9H9.3C10.35 15 11.25 15.3 12.15 15.9C13.05 16.5 13.8 17.25 14.25 18C14.7 18.9 15 19.95 15 21H3Z" fill="black"/>
<path d="M15 10.5C14.55 10.5 14.25 10.8 14.25 11.25C14.25 11.7 14.55 12 15 12C17.55 12 19.5 10.05 19.5 7.5C19.5 4.95 17.55 3 15 3C14.55 3 14.25 3.3 14.25 3.75C14.25 4.2 14.55 4.5 15 4.5C16.65 4.5 18 5.85 18 7.5C18 9.15 16.65 10.5 15 10.5Z" fill="black"/>
<path d="M21.6 17.2504C21 16.2004 20.1 15.1504 19.05 14.5504C18.3 14.1004 17.55 13.8004 16.8 13.6504C16.2 13.6504 15.9 13.8004 15.75 14.2504C15.75 14.7004 15.9 15.0004 16.35 15.1504C16.95 15.3004 17.55 15.6004 18.15 15.9004C19.05 16.5004 19.8 17.2504 20.25 18.0004C20.7 18.9004 21 19.9504 21 20.8504H18.75C18.3 20.8504 18 21.1504 18 21.6004C18 22.0504 18.3 22.3504 18.75 22.3504H21.75C22.2 22.3504 22.5 22.0504 22.5 21.6004V21.0004C22.5 19.6504 22.2 18.4504 21.6 17.2504Z" fill="black"/>
</svg>
