<svg width="24" height="24" viewBox="0 0 24 24" fill="none" xmlns="http://www.w3.org/2000/svg">
<path d="M19.9498 3.6C19.4998 3.3 19.0498 3 18.2998 3H16.3498C16.0498 2.1 15.2998 1.5 14.2498 1.5H9.74981C8.69981 1.5 7.9498 2.1 7.6498 3H5.6998C4.9498 3 4.4998 3.3 4.0498 3.6C3.5998 3.9 3.2998 4.65 3.2998 5.25V20.25C3.2998 20.85 3.5998 21.45 3.8998 21.9C4.1998 22.35 4.9498 22.5 5.6998 22.5H18.4498C19.0498 22.5 19.6498 22.2 20.0998 21.9C20.5498 21.6 20.6998 20.85 20.6998 20.25V5.25C20.6998 4.65 20.3998 4.05 19.9498 3.6ZM8.9998 3.75C8.9998 3.3 9.29981 3 9.74981 3H14.2498C14.6998 3 14.9998 3.3 14.9998 3.75V4.5C14.9998 4.95 14.6998 5.25 14.2498 5.25H9.74981C9.29981 5.25 8.9998 4.95 8.9998 4.5V3.75ZM19.1998 20.25C19.1998 20.4 19.0498 20.7 19.0498 20.85C19.0498 21 18.5998 21 18.2998 21H5.6998C5.5498 21 5.2498 20.85 5.0998 20.85C4.9498 20.7 4.9498 20.55 4.9498 20.25V5.25C4.9498 5.1 5.0998 4.8 5.0998 4.65C5.0998 4.5 5.3998 4.5 5.6998 4.5H7.4998C7.4998 5.7 8.54981 6.75 9.74981 6.75H14.2498C15.4498 6.75 16.4998 5.7 16.4998 4.5H18.2998C18.4498 4.5 18.7498 4.65 18.8998 4.65C19.0498 4.8 19.0498 4.95 19.0498 5.25V20.25H19.1998Z" fill="black"/>
<path d="M15.1499 10.0499L11.0999 15.4499L9.44985 14.3999C8.99985 14.0999 8.54985 14.2499 8.39985 14.5499C8.09985 14.9999 8.24985 15.4499 8.54985 15.5999L10.7999 17.0999C10.9499 17.2499 11.0999 17.2499 11.2499 17.2499C11.5499 17.2499 11.6999 17.0999 11.8499 16.9499L16.3499 10.9499C16.6499 10.6499 16.4999 10.1999 16.1999 9.89985C15.8999 9.59985 15.4499 9.74985 15.1499 10.0499Z" fill="black"/>
</svg>
