<svg width="24" height="24" viewBox="0 0 24 24" fill="none" xmlns="http://www.w3.org/2000/svg">
<path d="M20.25 1.5H3.75C2.55 1.5 1.5 2.55 1.5 3.75V20.25C1.5 21.45 2.55 22.5 3.75 22.5H20.25C21.45 22.5 22.5 21.45 22.5 20.25V3.75C22.5 2.55 21.45 1.5 20.25 1.5ZM3.75 3H20.25C20.7 3 21 3.3 21 3.75V6H3V3.75C3 3.3 3.3 3 3.75 3ZM20.25 21H3.75C3.3 21 3 20.7 3 20.25V7.5H21V20.25C21 20.7 20.7 21 20.25 21Z" fill="#000104"/>
<path d="M15.75 13.5H12.75V10.5C12.75 10.05 12.45 9.75 12 9.75C11.55 9.75 11.25 10.05 11.25 10.5V13.5H8.25C7.8 13.5 7.5 13.8 7.5 14.25C7.5 14.7 7.8 15 8.25 15H11.25V18C11.25 18.45 11.55 18.75 12 18.75C12.45 18.75 12.75 18.45 12.75 18V15H15.75C16.2 15 16.5 14.7 16.5 14.25C16.5 13.8 16.2 13.5 15.75 13.5Z" fill="#000104"/>
</svg>
