<svg width="30" height="30" viewBox="0 0 30 30" fill="none" xmlns="http://www.w3.org/2000/svg">
<path d="M11.25 13.125C14.4375 13.125 16.875 10.6875 16.875 7.5C16.875 4.3125 14.4375 1.875 11.25 1.875C8.0625 1.875 5.625 4.3125 5.625 7.5C5.625 10.6875 8.0625 13.125 11.25 13.125ZM11.25 3.75C13.3125 3.75 15 5.4375 15 7.5C15 9.5625 13.3125 11.25 11.25 11.25C9.1875 11.25 7.5 9.5625 7.5 7.5C7.5 5.4375 9.1875 3.75 11.25 3.75Z" fill="#2C2C2C"/>
<path d="M14.0625 24.375H3.75C3.75 23.0625 4.125 21.9375 4.6875 20.8125C5.25 19.6875 6.1875 18.75 7.3125 18.1875C8.4375 17.25 9.5625 16.875 10.875 16.875C12.1875 16.875 13.5 17.0625 14.625 17.625C15 17.8125 15.5625 17.625 15.9375 17.25C16.3125 16.875 15.9375 16.3125 15.5625 15.9375C14.0625 15.1875 12.375 15 10.875 15C9.1875 15 7.6875 15.5625 6.375 16.3125C5.0625 17.25 3.9375 18.375 3 19.6875C2.25 21.1875 1.875 22.6875 1.875 24.375V25.3125C1.875 25.875 2.25 26.25 2.8125 26.25H14.0625C14.625 26.25 15 25.875 15 25.3125C15 24.75 14.625 24.375 14.0625 24.375Z" fill="#2C2C2C"/>
<path d="M27.1875 20.625H22.5V15.9375C22.5 15.375 22.125 15 21.5625 15C21 15 20.625 15.375 20.625 15.9375V20.625H15.9375C15.375 20.625 15 21 15 21.5625C15 22.125 15.375 22.5 15.9375 22.5H20.625V27.1875C20.625 27.75 21 28.125 21.5625 28.125C22.125 28.125 22.5 27.75 22.5 27.1875V22.5H27.1875C27.75 22.5 28.125 22.125 28.125 21.5625C28.125 21 27.75 20.625 27.1875 20.625Z" fill="#2C2C2C"/>
</svg>
