<svg width="16" height="16" viewBox="0 0 16 16" fill="none" xmlns="http://www.w3.org/2000/svg">
<path d="M10.5 4H2.5C1.7 4 1 4.7 1 5.5V13.5C1 14.3 1.7 15 2.5 15H10.5C11.3 15 12 14.3 12 13.5V5.5C12 4.7 11.3 4 10.5 4ZM11 13.5C11 13.8 10.8 14 10.5 14H2.5C2.2 14 2 13.8 2 13.5V5.5C2 5.2 2.2 5 2.5 5H10.5C10.8 5 11 5.2 11 5.5V13.5Z" fill="#000104"/>
<path d="M14.6 1.4C14.3 1.2 13.9 1 13.5 1H4.5C4.2 1 4 1.2 4 1.5C4 1.8 4.2 2 4.5 2H13.5C13.6 2 13.8 2.1 13.9 2.1C13.9 2.2 14 2.4 14 2.5V11.5C14 11.8 14.2 12 14.5 12C14.8 12 15 11.8 15 11.5V2.5C15 2.1 14.8 1.7 14.6 1.4Z" fill="#000104"/>
<path d="M9 9H7V7C7 6.7 6.8 6.5 6.5 6.5C6.2 6.5 6 6.7 6 7V9H4C3.7 9 3.5 9.2 3.5 9.5C3.5 9.8 3.7 10 4 10H6V12C6 12.3 6.2 12.5 6.5 12.5C6.8 12.5 7 12.3 7 12V10H9C9.3 10 9.5 9.8 9.5 9.5C9.5 9.2 9.3 9 9 9Z" fill="#000104"/>
</svg>
