<svg width="24" height="24" viewBox="0 0 24 24" fill="none" xmlns="http://www.w3.org/2000/svg">
<path d="M6.3 1.5C3.75 1.5 1.5 3.75 1.5 6.3C1.5 8.85 3.75 11.1 6.3 11.1C8.85 11.1 11.25 9 11.25 6.3C11.25 3.6 9 1.5 6.3 1.5ZM6.3 9.75C4.5 9.75 3 8.25 3 6.3C3 4.35 4.5 3 6.3 3C8.1 3 9.6 4.5 9.6 6.3C9.6 8.1 8.25 9.75 6.3 9.75Z" fill="black"/>
<path d="M17.7 11.25C20.25 11.25 22.5 9 22.5 6.3C22.5 3.6 20.25 1.5 17.7 1.5C15.15 1.5 12.75 3.75 12.75 6.3C12.75 8.85 15 11.25 17.7 11.25ZM17.7 3C19.5 3 21 4.5 21 6.3C21 8.1 19.5 9.6 17.7 9.6C15.9 9.6 14.4 8.1 14.4 6.3C14.4 4.5 15.75 3 17.7 3Z" fill="black"/>
<path d="M6.3 12.75C3.75 12.75 1.5 15 1.5 17.7C1.5 20.4 3.75 22.5 6.3 22.5C8.85 22.5 11.1 20.25 11.1 17.7C11.1 15.15 9 12.75 6.3 12.75ZM6.3 21C4.5 21 3 19.5 3 17.7C3 15.9 4.5 14.4 6.3 14.4C8.1 14.4 9.6 15.9 9.6 17.7C9.6 19.5 8.25 21 6.3 21Z" fill="black"/>
<path d="M17.7 12.75C15 12.75 12.75 15 12.75 17.7C12.75 20.4 15 22.5 17.7 22.5C20.4 22.5 22.5 20.25 22.5 17.7C22.5 15.15 20.25 12.75 17.7 12.75ZM17.7 21C15.9 21 14.4 19.5 14.4 17.7C14.4 15.9 15.9 14.4 17.7 14.4C19.5 14.4 21 15.9 21 17.7C21 19.5 19.5 21 17.7 21Z" fill="black"/>
</svg>
