<svg width="24" height="24" viewBox="0 0 24 24" fill="none" xmlns="http://www.w3.org/2000/svg">
<g clip-path="url(#clip0_6547_97355)">
<path d="M5.70658 18.2924H3.22087C2.59947 18.2407 2.02021 17.9573 1.59799 17.4984C1.17576 17.0396 0.941406 16.4388 0.941406 15.8153C0.941406 15.1917 1.17576 14.591 1.59799 14.1321C2.02021 13.6733 2.59947 13.3899 3.22087 13.3381H7.16372L9.70087 10.801L2.74087 6.51528C2.20505 6.18405 1.81498 5.66172 1.6495 5.05392C1.48402 4.4461 1.55548 3.79814 1.84944 3.24099C1.97921 2.92214 2.17292 2.63324 2.41865 2.39216C2.66436 2.15107 2.95687 1.96287 3.27814 1.83919C3.5994 1.7155 3.94258 1.65895 4.28654 1.67302C4.63051 1.68708 4.96793 1.77147 5.27801 1.92099L14.3637 6.12099L18.7523 1.68099C19.2251 1.20815 19.8664 0.942505 20.5352 0.942505C21.2039 0.942505 21.8452 1.20815 22.318 1.68099C22.7908 2.15383 23.0565 2.79514 23.0565 3.46385C23.0565 4.13254 22.7908 4.77386 22.318 5.24671L17.878 9.63528L22.078 18.8067C22.2162 19.112 22.2916 19.4422 22.2997 19.7774C22.3079 20.1123 22.2488 20.4458 22.1255 20.7576C22.0024 21.0692 21.818 21.3531 21.5831 21.5923C21.3481 21.8314 21.0676 22.021 20.758 22.1496C20.2009 22.4436 19.5529 22.5149 18.9452 22.3495C18.3373 22.184 17.8149 21.7939 17.4837 21.2582L13.198 14.2981L10.6609 16.8353V20.7782C10.6091 21.3996 10.3257 21.9788 9.86689 22.4011C9.40805 22.8233 8.80728 23.0576 8.18372 23.0576C7.56019 23.0576 6.9594 22.8233 6.50057 22.4011C6.04172 21.9788 5.75832 21.3996 5.70658 20.7782V18.2924Z" stroke="#C07300" stroke-width="1.5" stroke-linecap="round" stroke-linejoin="round"/>
</g>
<defs>
<clipPath id="clip0_6547_97355">
<rect width="24" height="24" fill="white"/>
</clipPath>
</defs>
</svg>
