<svg width="16" height="16" viewBox="0 0 16 16" fill="none" xmlns="http://www.w3.org/2000/svg">
<path d="M13.5 1.5H2.5C1.7 1.5 1 2.2 1 3V5C1 5.7 1.4 6.2 2 6.4V13C2 13.4 2.2 13.8 2.4 14.1C2.6 14.4 3.1 14.5 3.5 14.5H12.5C12.9 14.5 13.3 14.3 13.6 14.1C13.9 13.9 14 13.4 14 13V6.4C14.6 6.2 15 5.6 15 5V3C15 2.2 14.3 1.5 13.5 1.5ZM13 13C13 13.1 12.9 13.3 12.9 13.4C12.9 13.5 12.7 13.5 12.5 13.5H3.5C3.4 13.5 3.2 13.4 3.1 13.4C3.1 13.3 3 13.1 3 13V6.5H13V13ZM14 5C14 5.3 13.8 5.5 13.5 5.5H2.5C2.2 5.5 2 5.3 2 5V3C2 2.7 2.2 2.5 2.5 2.5H13.5C13.8 2.5 14 2.7 14 3V5Z" fill="#000104"/>
<path d="M6.5 9.5H9.5C9.8 9.5 10 9.3 10 9C10 8.7 9.8 8.5 9.5 8.5H6.5C6.2 8.5 6 8.7 6 9C6 9.3 6.2 9.5 6.5 9.5Z" fill="#000104"/>
</svg>
