<svg width="24" height="24" viewBox="0 0 24 24" fill="none" xmlns="http://www.w3.org/2000/svg">
<path d="M22.4992 6.45C22.3492 6.3 22.3492 6.15 22.0492 6C21.8992 6 21.8992 6 21.7492 6H15.7492C15.2992 6 14.9992 6.3 14.9992 6.75C14.9992 7.2 15.2992 7.5 15.7492 7.5H19.9492L12.7492 14.7L9.29922 11.25C8.69922 10.65 7.79922 10.65 7.19922 11.25L1.79922 16.65C1.49922 16.95 1.49922 17.4 1.79922 17.7C1.79922 18 2.09922 18 2.24922 18C2.39922 18 2.69922 18 2.84922 17.85L8.24922 12.45L11.6992 15.9C12.2992 16.5 13.1992 16.5 13.7992 15.9L20.9992 8.55V12.75C20.9992 13.2 21.2992 13.5 21.7492 13.5C22.1992 13.5 22.4992 13.2 22.4992 12.75V6.75C22.4992 6.6 22.4992 6.6 22.4992 6.45Z" fill="#000104"/>
</svg>
