<svg width="17" height="16" viewBox="0 0 17 16" fill="none" xmlns="http://www.w3.org/2000/svg">
<path d="M13 3.80078H11.5C11.2 3.80078 11 4.00078 11 4.20078C11 4.40078 11.2 4.80078 11.5 4.80078H13C13.8 4.80078 14.5 5.50078 14.5 6.30078V9.80078C14.5 10.6008 13.8 11.3008 13 11.3008H9.70002L11.1 9.90078C11.3 9.70078 11.3 9.40078 11.1 9.20078C10.9 9.00078 10.6 9.00078 10.4 9.10078L8.20002 11.3008C8.20002 11.3008 8.10002 11.4008 8.10002 11.5008C8.00002 11.6008 8.00002 11.8008 8.10002 11.9008C8.10002 12.0008 8.20002 12.0008 8.20002 12.1008L10.4 14.3008C10.5 14.4008 10.6 14.4008 10.8 14.4008C11 14.4008 11.1 14.4008 11.2 14.3008C11.4 14.1008 11.4 13.8008 11.2 13.6008L9.80002 12.2008H13.1C14.5 12.2008 15.6 11.1008 15.6 9.70078V6.20078C15.5 4.90078 14.4 3.80078 13 3.80078Z" fill="#000104"/>
<path d="M9 4.39922C9.1 4.29922 9.1 4.09922 9 3.99922C9 3.89922 8.9 3.89922 8.9 3.79922L6.6 1.59922C6.4 1.39922 6.1 1.39922 5.9 1.59922C5.7 1.79922 5.7 2.09922 5.9 2.29922L7.3 3.69922H4C2.6 3.79922 1.5 4.89922 1.5 6.19922V9.69922C1.5 11.0992 2.6 12.1992 4 12.1992H5.5C5.8 12.1992 6 11.9992 6 11.6992C6 11.3992 5.8 11.1992 5.5 11.1992H4C3.2 11.1992 2.5 10.5992 2.5 9.79922V6.19922C2.5 5.39922 3.2 4.69922 4 4.69922H7.3L5.9 6.09922C5.7 6.29922 5.7 6.59922 5.9 6.79922C6 6.99922 6.1 6.99922 6.3 6.99922C6.5 6.99922 6.5 6.99922 6.6 6.89922L8.8 4.69922C8.9 4.59922 8.9 4.49922 9 4.39922Z" fill="#000104"/>
</svg>
