<svg width="24" height="24" viewBox="0 0 24 24" fill="none" xmlns="http://www.w3.org/2000/svg">
<path d="M21.9 4.35C21.45 3.9 20.85 3.75 20.25 3.75H18V2.25C18 1.8 17.7 1.5 17.25 1.5C16.8 1.5 16.5 1.8 16.5 2.25V6.75C16.5 7.2 16.8 7.5 17.25 7.5C17.7 7.5 18 7.2 18 6.75V5.25H20.25C20.4 5.25 20.7 5.4 20.85 5.4C20.85 5.55 21 5.85 21 6V20.25C21 20.4 20.85 20.7 20.85 20.85C20.85 21 20.4 21 20.25 21H3.75C3.6 21 3.3 20.85 3.15 20.85C3.15 20.7 3 20.4 3 20.25V6C3 5.85 3.15 5.55 3.15 5.4C3.15 5.25 3.45 5.25 3.75 5.25C4.2 5.25 4.5 4.95 4.5 4.5C4.5 4.05 4.2 3.75 3.75 3.75C3.15 3.75 2.55 4.05 2.1 4.35C1.65 4.65 1.5 5.4 1.5 6V20.25C1.5 20.85 1.8 21.45 2.1 21.9C2.4 22.35 3.15 22.5 3.75 22.5H20.25C20.85 22.5 21.45 22.2 21.9 21.9C22.35 21.6 22.5 20.85 22.5 20.25V6C22.5 5.4 22.2 4.8 21.9 4.35Z" fill="black"/>
<path d="M6.75 7.5C7.2 7.5 7.5 7.2 7.5 6.75V5.25H14.25C14.7 5.25 15 4.95 15 4.5C15 4.05 14.7 3.75 14.25 3.75H7.5V2.25C7.5 1.8 7.2 1.5 6.75 1.5C6.3 1.5 6 1.8 6 2.25V6.75C6 7.2 6.3 7.5 6.75 7.5Z" fill="black"/>
<path d="M14.1 8.69922C13.95 8.69922 13.65 8.69922 13.5 8.84922L7.35 14.9992C7.2 15.1492 7.2 15.2992 7.2 15.4492L6.75 18.2992C6.75 18.5992 6.75 18.7492 6.9 18.8992C7.05 19.0492 7.2 19.0492 7.5 19.0492C7.5 19.0492 7.5 19.0492 7.65 19.0492L10.5 18.5992C10.65 18.5992 10.8 18.4492 10.95 18.4492L17.1 12.2992C17.25 12.1492 17.25 11.9992 17.25 11.6992C17.25 11.3992 17.1 11.2492 17.1 11.0992L14.55 8.84922C14.4 8.69922 14.25 8.69922 14.1 8.69922ZM9.9 17.2492L8.4 17.3992L8.55 15.8992L14.1 10.4992L15.45 11.8492L9.9 17.2492Z" fill="black"/>
</svg>
