<svg width="22" height="18" viewBox="0 0 22 18" fill="none" xmlns="http://www.w3.org/2000/svg">
<path d="M19.55 1.95C18.2 0.75 16.55 0 14.75 0H10.25C9.8 0 9.5 0.3 9.5 0.75C9.5 1.2 9.8 1.5 10.25 1.5H14.75C16.1 1.5 17.45 2.1 18.5 3C19.55 4.05 20 5.25 20 6.75C20 8.25 19.4 9.45 18.5 10.5C17.45 11.55 16.1 12 14.75 12H3.05L6.2 8.85C6.5 8.55 6.5 7.95 6.35 7.65C6.2 7.35 5.45 7.5 5.15 7.65L0.65 12.15C0.65 12.15 0.5 12.3 0.5 12.45C0.5 12.6 0.5 12.9 0.5 13.05C0.5 13.2 0.65 13.2 0.65 13.35L5.15 17.85C5.3 18 5.6 18 5.75 18C5.9 18 6.2 18 6.35 17.85C6.65 17.55 6.65 17.1 6.35 16.8L3.05 13.5H14.75C16.55 13.5 18.2 12.75 19.55 11.55C20.9 10.2 21.5 8.55 21.5 6.75C21.5 4.95 20.75 3.3 19.55 1.95Z" fill="#000104"/>
</svg>
