<svg width="24" height="24" viewBox="0 0 24 24" fill="none" xmlns="http://www.w3.org/2000/svg">
<path d="M18.75 1.5H5.25C4.05 1.5 3 2.55 3 3.75V20.25C3 21.45 4.05 22.5 5.25 22.5H18.75C19.95 22.5 21 21.45 21 20.25V3.75C21 2.55 19.95 1.5 18.75 1.5ZM5.25 3H18.75C19.2 3 19.5 3.3 19.5 3.75V9H4.5V3.75C4.5 3.3 4.8 3 5.25 3ZM18.75 21H5.25C4.8 21 4.5 20.7 4.5 20.25V10.5H19.5V20.25C19.5 20.7 19.2 21 18.75 21Z" fill="#000104"/>
<path d="M8.1 12.75C7.95 12.75 7.95 12.75 7.8 12.75C7.65 12.75 7.65 12.75 7.5 12.75C7.05 12.9 6.75 13.35 6.75 13.8C6.75 14.25 7.05 14.7 7.65 14.85C7.8 14.85 7.8 14.85 7.95 14.85C8.1 14.85 8.1 14.85 8.25 14.85C8.7 14.85 9 14.4 9 13.8C9 13.35 8.7 12.9 8.1 12.75Z" fill="#000104"/>
<path d="M12.2998 12.75C12.1498 12.75 12.1498 12.75 11.9998 12.75C11.8498 12.75 11.8498 12.75 11.6998 12.75C11.2498 12.9 10.7998 13.35 10.7998 13.8C10.7998 14.25 11.0998 14.7 11.6998 14.85C11.8498 15 11.8498 15 11.9998 15C12.1498 15 12.1498 15 12.2998 15C12.7498 14.85 13.1998 14.4 13.1998 13.95C13.1998 13.35 12.7498 12.9 12.2998 12.75Z" fill="#000104"/>
<path d="M16.35 12.75C16.2 12.75 16.2 12.75 16.05 12.75C15.9 12.75 15.9 12.75 15.75 12.75C15.3 12.9 15 13.35 15 13.8C15 14.4 15.3 14.85 15.9 15C16.05 15 16.05 15 16.2 15C16.35 15 16.35 15 16.5 15C16.95 14.85 17.4 14.4 17.4 13.95C17.25 13.35 16.95 12.9 16.35 12.75Z" fill="#000104"/>
<path d="M8.09961 16.5C7.94961 16.5 7.94961 16.5 7.79961 16.5C7.64961 16.5 7.64961 16.5 7.49961 16.5C7.04961 16.65 6.59961 17.1 6.59961 17.55C6.59961 18 6.89961 18.45 7.49961 18.6C7.64961 18.6 7.64961 18.6 7.79961 18.6C7.94961 18.6 7.94961 18.6 8.09961 18.6C8.69961 18.6 8.99961 18.15 8.99961 17.7C8.99961 17.25 8.69961 16.65 8.09961 16.5Z" fill="#000104"/>
<path d="M12.2998 16.5C12.1498 16.5 12.1498 16.5 11.9998 16.5C11.8498 16.5 11.8498 16.5 11.6998 16.5C11.2498 16.65 10.7998 17.1 10.7998 17.55C10.7998 18 11.0998 18.45 11.6998 18.6C11.8498 18.6 11.8498 18.6 11.9998 18.6C12.1498 18.6 12.1498 18.6 12.2998 18.6C12.7498 18.45 13.1998 18 13.1998 17.55C13.1998 17.1 12.7498 16.65 12.2998 16.5Z" fill="#000104"/>
<path d="M16.35 16.5C16.2 16.5 16.2 16.5 16.05 16.5C15.9 16.5 15.9 16.5 15.75 16.5C15.3 16.65 15 17.1 15 17.7C15 18.3 15.3 18.6 15.9 18.75C16.05 18.75 16.05 18.75 16.2 18.75C16.35 18.75 16.35 18.75 16.5 18.75C16.95 18.6 17.4 18.15 17.4 17.7C17.4 17.25 16.95 16.65 16.35 16.5Z" fill="#000104"/>
<path d="M15 6.75H16.5C16.95 6.75 17.25 6.45 17.25 6C17.25 5.55 16.95 5.25 16.5 5.25H15C14.55 5.25 14.25 5.55 14.25 6C14.25 6.45 14.55 6.75 15 6.75Z" fill="#000104"/>
</svg>
