<svg width="24" height="24" viewBox="0 0 24 24" fill="none" xmlns="http://www.w3.org/2000/svg">
<path d="M20.25 16.5V15.75C20.25 14.55 19.2 13.5 18 13.5H12.75V12H15.45C16.65 12 17.7 10.95 17.7 9.75V3.75C17.7 2.55 16.65 1.5 15.45 1.5H8.7C7.35 1.5 6.3 2.55 6.3 3.75V9.75C6.3 10.95 7.35 12 8.7 12H11.4V13.5H6C4.8 13.5 3.75 14.55 3.75 15.75V16.5C2.55 16.5 1.5 17.55 1.5 18.75V20.25C1.5 21.45 2.55 22.5 3.75 22.5H5.25C6.45 22.5 7.5 21.45 7.5 20.25V18.75C7.5 17.55 6.45 16.5 5.25 16.5V15.75C5.25 15.3 5.55 15 6 15H11.25V16.5C10.05 16.5 9 17.55 9 18.75V20.25C9 21.45 10.05 22.5 11.25 22.5H12.75C13.95 22.5 15 21.45 15 20.25V18.75C15 17.55 13.95 16.5 12.75 16.5V15H18C18.45 15 18.75 15.3 18.75 15.75V16.5C17.55 16.5 16.5 17.55 16.5 18.75V20.25C16.5 21.45 17.55 22.5 18.75 22.5H20.25C21.45 22.5 22.5 21.45 22.5 20.25V18.75C22.5 17.55 21.45 16.5 20.25 16.5ZM7.8 9.75V3.75C7.8 3.3 8.25 3 8.7 3H15.45C15.9 3 16.2 3.3 16.2 3.75V9.75C16.2 10.2 15.75 10.5 15.3 10.5H8.7C8.25 10.5 7.8 10.2 7.8 9.75ZM6 18.75V20.25C6 20.7 5.7 21 5.25 21H3.75C3.3 21 3 20.7 3 20.25V18.75C3 18.3 3.3 18 3.75 18H5.25C5.7 18 6 18.3 6 18.75ZM13.5 18.75V20.25C13.5 20.7 13.2 21 12.75 21H11.25C10.8 21 10.5 20.7 10.5 20.25V18.75C10.5 18.3 10.8 18 11.25 18H12.75C13.2 18 13.5 18.3 13.5 18.75ZM21 20.25C21 20.7 20.7 21 20.25 21H18.75C18.3 21 18 20.7 18 20.25V18.75C18 18.3 18.3 18 18.75 18H20.25C20.7 18 21 18.3 21 18.75V20.25Z" fill="black"/>
</svg>
