<svg width="24" height="24" viewBox="0 0 24 24" fill="none" xmlns="http://www.w3.org/2000/svg">
<path d="M21.9 5.55078C21.45 5.10078 20.85 4.95078 20.25 4.95078H11.85L11.55 3.60078C11.4 3.15078 11.1 2.70078 10.65 2.40078C10.35 1.95078 9.75 1.80078 9.3 1.80078H3.75C3.15 1.80078 2.55 2.10078 2.1 2.40078C1.65 2.70078 1.5 3.45078 1.5 4.20078V19.9508C1.5 20.5508 1.8 21.1508 2.1 21.6008C2.4 22.0508 3.15 22.2008 3.75 22.2008H20.25C20.85 22.2008 21.45 21.9008 21.9 21.6008C22.35 21.3008 22.5 20.5508 22.5 19.9508V7.20078C22.5 6.45078 22.2 6.00078 21.9 5.55078ZM21 19.8008C21 19.9508 20.85 20.2508 20.85 20.4008C20.85 20.5508 20.55 20.5508 20.25 20.5508H3.75C3.6 20.5508 3.3 20.4008 3.15 20.4008C3.15 20.2508 3 20.1008 3 19.8008V4.20078C3 4.05078 3.15 3.75078 3.15 3.60078C3.15 3.45078 3.45 3.45078 3.75 3.45078H9.3C9.45 3.45078 9.6 3.45078 9.75 3.60078C9.9 3.75078 10.05 3.90078 10.05 4.05078L10.5 5.85078C10.65 6.15078 10.95 6.45078 11.25 6.45078H20.25C20.4 6.45078 20.7 6.60078 20.85 6.60078C20.85 6.75078 21 6.90078 21 7.20078V19.8008Z" fill="black"/>
<path d="M14.3999 10.0499L10.3499 15.4499L8.69985 14.3999C8.24985 14.0999 7.79985 14.2499 7.64985 14.5499C7.34985 14.9999 7.49985 15.4499 7.79985 15.5999L10.0499 17.0999C10.1999 17.2499 10.3499 17.2499 10.4999 17.2499C10.7999 17.2499 10.9499 17.0999 11.0999 16.9499L15.5999 10.9499C15.8999 10.6499 15.7499 10.1999 15.4499 9.89985C15.1499 9.59985 14.6999 9.74985 14.3999 10.0499Z" fill="black"/>
</svg>
