<svg width="24" height="24" viewBox="0 0 24 24" fill="none" xmlns="http://www.w3.org/2000/svg">
<path d="M21.45 18.2992C20.7 17.5492 19.8 17.2492 18.75 17.2492H16.5V13.7992C16.5 13.1992 16.2 12.4492 15.75 11.9992C14.7 11.0992 13.05 11.0992 12 11.9992C11.55 12.4492 11.25 13.1992 11.25 13.7992V21.5992C11.25 22.1992 11.55 22.4992 12 22.4992C12.45 22.4992 12.75 22.1992 12.75 21.7492V13.7992C12.75 13.4992 12.9 13.1992 13.05 13.0492C13.5 12.5992 14.25 12.5992 14.7 13.0492C14.85 13.3492 15 13.4992 15 13.7992V17.9992C15 18.4492 15.3 18.7492 15.75 18.7492H18.75C19.35 18.7492 19.95 19.0492 20.4 19.3492C20.85 19.6492 21 20.3992 21 20.9992V21.7492C21 22.1992 21.3 22.4992 21.75 22.4992C22.2 22.4992 22.5 22.1992 22.5 21.7492V20.9992C22.5 19.9492 22.05 19.0492 21.45 18.2992Z" fill="#000104"/>
<path d="M11.7 10.35V6.45C13.5 4.65 15.75 3.45 18.15 3C18.3 3 18.3 3 18.45 3C18.6 3 18.6 3 18.6 3.15L18.75 3.3C18.75 3.3 18.75 3.45 18.75 3.6V14.25C18.75 14.4 18.75 14.55 18.6 14.7C18.45 14.85 18.3 14.85 18.3 14.85C17.85 14.85 17.55 15.3 17.7 15.75C17.7 16.2 18 16.35 18.45 16.35C18.45 16.35 18.45 16.35 18.6 16.35C19.05 16.35 19.65 16.05 19.95 15.6C20.25 15.15 20.55 14.7 20.4 14.25V3.6C20.4 3.3 20.4 3 20.25 2.7C20.1 2.4 19.95 2.25 19.65 1.95C19.5 1.8 19.2 1.65 18.9 1.5C18.45 1.5 18.15 1.5 17.85 1.5C15.3 1.95 12.75 3.15 10.95 5.1C9 3.15 6.45 1.95 3.9 1.5C3.6 1.5 3.3 1.5 3 1.65C2.7 1.65 2.4 1.8 2.25 1.95C1.95 2.25 1.8 2.4 1.65 2.7C1.5 3 1.5 3.3 1.5 3.6V14.25C1.5 14.7 1.65 15.3 2.1 15.6C2.4 16.05 2.85 16.2 3.45 16.35C5.4 16.65 7.35 17.4 9 18.6C9.15 18.75 9.3 18.75 9.45 18.75C9.6 18.75 9.9 18.6 10.05 18.45C10.35 18.15 10.2 17.7 9.9 17.4C7.95 16.05 5.85 15.15 3.45 14.85C3.3 14.85 3.15 14.7 3.15 14.7C3 14.55 3 14.4 3 14.25V3.6C3 3.45 3 3.45 3 3.3C3 3.15 3.15 3.15 3.15 3.15L3.3 3C3.45 3 3.45 3 3.45 3C6 3.45 8.25 4.65 9.9 6.45V10.2C9.9 10.65 10.2 10.95 10.65 10.95C11.1 10.95 11.7 10.65 11.7 10.35Z" fill="#000104"/>
</svg>
