<svg width="18" height="18" viewBox="0 0 18 18" fill="none" xmlns="http://www.w3.org/2000/svg">
<path d="M8.51786 3.857C8.87289 3.857 9.16071 3.56918 9.16071 3.21415C9.16071 2.85911 8.87289 2.57129 8.51786 2.57129C8.16282 2.57129 7.875 2.85911 7.875 3.21415C7.875 3.56918 8.16282 3.857 8.51786 3.857Z" stroke="black" stroke-linecap="round" stroke-linejoin="round"/>
<path d="M8.51786 9.64314C8.87289 9.64314 9.16071 9.35532 9.16071 9.00028C9.16071 8.64524 8.87289 8.35742 8.51786 8.35742C8.16282 8.35742 7.875 8.64524 7.875 9.00028C7.875 9.35532 8.16282 9.64314 8.51786 9.64314Z" stroke="black" stroke-linecap="round" stroke-linejoin="round"/>
<path d="M8.51786 15.4283C8.87289 15.4283 9.16071 15.1404 9.16071 14.7854C9.16071 14.4304 8.87289 14.1426 8.51786 14.1426C8.16282 14.1426 7.875 14.4304 7.875 14.7854C7.875 15.1404 8.16282 15.4283 8.51786 15.4283Z" stroke="black" stroke-linecap="round" stroke-linejoin="round"/>
</svg>
