<svg width="24" height="24" viewBox="0 0 24 24" fill="none" xmlns="http://www.w3.org/2000/svg">
<path d="M21.1503 12.6003L18.3003 14.5503L15.9003 12.6003C16.5003 12.4503 17.1003 12.0003 17.4003 11.5503C17.7003 11.2503 17.5503 10.8003 17.2503 10.5003C16.9503 10.2003 16.5003 10.2003 16.2003 10.6503C16.0503 10.8003 15.6003 11.2503 15.0003 11.2503C14.7003 11.2503 14.2503 11.2503 13.8003 10.9503L13.6503 10.8003C13.6503 10.8003 13.6503 10.8003 13.5003 10.8003C13.5003 10.6503 13.3503 10.6503 13.3503 10.6503H13.2003C13.0503 10.6503 12.9003 10.6503 12.9003 10.8003L10.9503 12.1503C10.5003 12.4503 9.90026 12.4503 9.45026 12.0003C9.15026 11.5503 9.30026 10.9503 9.60026 10.5003L11.5503 8.85025C12.3003 8.25025 13.3503 7.95025 14.4003 7.95025L17.4003 8.25025C17.5503 8.25025 17.7003 8.25025 17.8503 8.10025L21.9003 5.85025C22.2003 5.70025 22.3503 5.25025 22.2003 4.80025C22.0503 4.50025 21.6003 4.35025 21.1503 4.50025L17.2503 6.60025H14.5503C13.5003 6.45025 12.3003 6.75025 11.4003 7.35025C10.5003 6.75025 9.45026 6.45025 8.40026 6.60025L5.70026 7.05025L2.70026 5.40025C2.40026 5.25025 1.95026 5.40025 1.65026 5.70025C1.50026 6.15025 1.65026 6.60025 1.95026 6.75025L5.25026 8.55025C5.40026 8.70025 5.55026 8.70025 5.70026 8.70025L8.70026 8.25025C9.15026 8.10025 9.60026 8.25025 10.0503 8.40025L8.70026 9.45025C7.65026 10.3503 7.50026 11.8503 8.25026 12.9003C9.15026 13.9503 10.6503 14.2503 11.7003 13.3503L13.0503 12.3003L16.9503 15.4503L13.2003 18.1503C12.4503 18.7503 11.4003 18.7503 10.6503 18.1503L2.70026 12.6003C2.40026 12.4503 1.95026 12.6003 1.65026 12.9003C1.50026 13.2003 1.50026 13.6503 1.95026 13.9503L9.90026 19.3503C10.5003 19.8003 11.2503 20.1003 12.0003 20.1003C12.7503 20.1003 13.5003 19.8003 14.1003 19.3503L18.6003 16.2003L21.9003 13.9503C22.2003 13.6503 22.3503 13.2003 22.0503 12.9003C22.0503 12.4503 21.4503 12.4503 21.1503 12.6003Z" fill="#000104"/>
</svg>
