<svg width="16" height="16" viewBox="0 0 16 16" fill="none" xmlns="http://www.w3.org/2000/svg">
<path d="M1 5.39998C1.1 4.69998 1.4 3.99998 2 3.49998L2.4 3.09998C2.9 2.59998 3.8 2.59998 4.4 3.09998L5.9 4.79998C6.1 4.99998 6.3 5.39998 6.3 5.69998C6.3 6.09998 6.2 6.39998 5.9 6.69998C5.8 6.79998 5.8 6.89998 5.8 6.99998C5.8 7.09998 5.8 7.19998 5.9 7.29998L8.4 9.89998C8.6 9.99998 8.8 9.99998 9 9.89998C9.5 9.39998 10.4 9.39998 11 9.89998L12.6 11.5C12.9 11.8 13 12.1 13 12.5C13 12.9 12.9 13.2 12.6 13.5L12.2 13.9C11.7 14.4 11 14.7 10.3 14.8C10.2 14.8 10.1 14.8 10 14.8C9.4 14.8 8.8 14.6 8.3 14.3C5.6 12.5 3.4 10.3 1.6 7.59998C1.1 6.89998 0.9 6.19998 1 5.39998ZM2.3 6.99998C4 9.49998 6.2 11.7 8.7 13.4C9.1 13.7 9.6 13.8 10.1 13.7C10.6 13.6 11.1 13.4 11.4 13.1L11.8 12.7C11.9 12.7 12 12.6 12 12.4C12 12.3 12 12.2 11.9 12.1L10.3 10.5C10.2 10.5 10.1 10.5 10 10.5C9.9 10.5 9.8 10.5 9.7 10.6C9.2 11.1 8.2 11.1 7.7 10.6L5.2 7.99998C4.9 7.69998 4.8 7.39998 4.8 6.99998C4.8 6.59998 4.9 6.29998 5.2 5.99998C5.2 5.99998 5.3 5.89998 5.3 5.69998C5.3 5.59998 5.3 5.49998 5.2 5.39998L3.7 3.79998C3.5 3.59998 3.3 3.69998 3.1 3.79998L2.7 4.19998C2.3 4.49998 2.1 4.99998 2 5.49998C2 6.09998 2.1 6.59998 2.3 6.99998Z" fill="#194A87"/>
<path d="M9.9 6.9C9.8 7 9.6 7 9.5 7C9.4 7 9.2 7 9.1 6.9C9 6.7 9 6.3 9.1 6.1L13.3 2H11C10.7 2 10.5 1.8 10.5 1.5C10.5 1.2 10.7 1 11 1H14.5C14.6 1 14.6 1 14.7 1C14.8 1.1 14.9 1.2 15 1.3C15 1.4 15 1.4 15 1.5V5C15 5.3 14.8 5.5 14.5 5.5C14.2 5.5 14 5.3 14 5V2.7L9.9 6.9Z" fill="#194A87"/>
</svg>
