<svg width="17" height="16" viewBox="0 0 17 16" fill="none" xmlns="http://www.w3.org/2000/svg">
<path d="M15.5 5.70002C15.4 5.00002 15 4.30002 14.5 3.80002L14.1 3.40002C13.6 2.90002 12.7 2.90002 12.1 3.40002L10.6 5.00002C10.3 5.30002 10.2 5.60002 10.2 6.00002C10.2 6.40002 10.3 6.70002 10.6 7.00002C10.7 7.10002 10.7 7.20002 10.7 7.30002C10.7 7.40002 10.7 7.50002 10.6 7.60002L8.1 10.1C7.9 10.3 7.6 10.3 7.5 10.1C7 9.60002 6.1 9.60002 5.5 10.1L3.9 11.7C3.6 12 3.5 12.3 3.5 12.7C3.5 13.1 3.6 13.4 3.9 13.7L4.3 14.1C4.8 14.6 5.5 14.9 6.2 15C6.3 15 6.4 15 6.5 15C7.1 15 7.7 14.8 8.2 14.5C10.9 12.7 13.1 10.5 14.9 7.80002C15.4 7.20002 15.5 6.40002 15.5 5.70002ZM14.2 7.20002C12.5 9.70002 10.3 11.9 7.8 13.6C7.3 13.9 6.8 14 6.3 14C5.8 13.9 5.3 13.7 5 13.4L4.6 13C4.5 12.9 4.5 12.8 4.5 12.7C4.5 12.6 4.5 12.5 4.6 12.4L6.2 10.8C6.3 10.7 6.4 10.7 6.5 10.7C6.6 10.7 6.7 10.7 6.8 10.8C7.3 11.3 8.3 11.3 8.8 10.8L11.4 8.20002C11.7 7.90002 11.8 7.60002 11.8 7.20002C11.8 6.80002 11.7 6.50002 11.4 6.20002C11.2 6.20002 11.2 6.10002 11.2 6.00002C11.2 5.90002 11.2 5.80002 11.3 5.70002L12.8 4.10002C13 3.90002 13.2 4.00002 13.4 4.10002L13.8 4.50002C14.2 4.80002 14.4 5.30002 14.5 5.80002C14.5 6.30002 14.4 6.80002 14.2 7.20002Z" fill="#000104"/>
<path d="M6.2 2.5C6.9 2.2 7.7 2 8.5 2C8.8 2 9 1.8 9 1.5C9 1.2 8.8 1 8.5 1C7.6 1 6.7 1.2 5.8 1.5C4.9 1.8 4.2 2.4 3.6 3.1C3 3.8 2.4 4.5 2 5.3C1.6 6.1 1.5 7.1 1.5 8C1.5 8.3 1.7 8.5 2 8.5C2.3 8.5 2.5 8.3 2.5 8C2.5 7.2 2.7 6.4 3 5.7C3.3 5 3.7 4.3 4.3 3.8C4.9 3.3 5.5 2.8 6.2 2.5Z" fill="#000104"/>
<path d="M8.5 3.5C7.3 3.5 6.2 4 5.3 4.8C4.5 5.7 4 6.8 4 8C4 8.3 4.2 8.5 4.5 8.5C4.8 8.5 5 8.3 5 8C5 7.1 5.4 6.2 6 5.5C6.7 4.8 7.5 4.5 8.5 4.5C8.8 4.5 9 4.3 9 4C9 3.7 8.8 3.5 8.5 3.5Z" fill="#000104"/>
</svg>
