<svg width="20" height="20" viewBox="0 0 20 20" fill="none" xmlns="http://www.w3.org/2000/svg">
<path d="M18.75 7.125C18.625 6.25 18.125 5.375 17.5 4.75L17 4.25C16.375 3.625 15.25 3.625 14.5 4.25L12.625 6.25C12.25 6.625 12.125 7 12.125 7.5C12.125 8 12.25 8.375 12.625 8.75C12.75 8.875 12.75 9 12.75 9.125C12.75 9.25 12.75 9.375 12.625 9.5L9.5 12.625C9.25 12.875 8.875 12.875 8.75 12.625C8.125 12 7 12 6.25 12.625L4.25 14.625C3.875 15 3.75 15.375 3.75 15.875C3.75 16.375 3.875 16.75 4.25 17.125L4.75 17.625C5.375 18.25 6.25 18.625 7.125 18.75C7.25 18.75 7.375 18.75 7.5 18.75C8.25 18.75 9 18.5 9.625 18.125C13 15.875 15.75 13.125 18 9.75C18.625 9 18.75 8 18.75 7.125ZM17.125 9C15 12.125 12.25 14.875 9.125 17C8.5 17.375 7.875 17.5 7.25 17.5C6.625 17.375 6 17.125 5.625 16.75L5.125 16.25C5 16.125 5 16 5 15.875C5 15.75 5 15.625 5.125 15.5L7.125 13.5C7.25 13.375 7.375 13.375 7.5 13.375C7.625 13.375 7.75 13.375 7.875 13.5C8.5 14.125 9.75 14.125 10.375 13.5L13.625 10.25C14 9.875 14.125 9.5 14.125 9C14.125 8.5 14 8.125 13.625 7.75C13.375 7.75 13.375 7.625 13.375 7.5C13.375 7.375 13.375 7.25 13.5 7.125L15.375 5.125C15.625 4.875 15.875 5 16.125 5.125L16.625 5.625C17.125 6 17.375 6.625 17.5 7.25C17.5 7.875 17.375 8.5 17.125 9Z" fill="#000104"/>
<path d="M7.125 3.125C8 2.75 9 2.5 10 2.5C10.375 2.5 10.625 2.25 10.625 1.875C10.625 1.5 10.375 1.25 10 1.25C8.875 1.25 7.75 1.5 6.625 1.875C5.5 2.25 4.625 3 3.875 3.875C3.125 4.75 2.375 5.625 1.875 6.625C1.375 7.625 1.25 8.875 1.25 10C1.25 10.375 1.5 10.625 1.875 10.625C2.25 10.625 2.5 10.375 2.5 10C2.5 9 2.75 8 3.125 7.125C3.5 6.25 4 5.375 4.75 4.75C5.5 4.125 6.25 3.5 7.125 3.125Z" fill="#000104"/>
<path d="M10 4.375C8.5 4.375 7.125 5 6 6C5 7.125 4.375 8.5 4.375 10C4.375 10.375 4.625 10.625 5 10.625C5.375 10.625 5.625 10.375 5.625 10C5.625 8.875 6.125 7.75 6.875 6.875C7.75 6 8.75 5.625 10 5.625C10.375 5.625 10.625 5.375 10.625 5C10.625 4.625 10.375 4.375 10 4.375Z" fill="#000104"/>
</svg>
