<svg width="30" height="30" viewBox="0 0 30 30" fill="none" xmlns="http://www.w3.org/2000/svg">
<path d="M10.3125 21.5625C9.75 21.5625 9.375 21.9375 9.375 22.5C9.375 23.0625 9.75 23.4375 10.3125 23.4375H12.1875C12.75 23.4375 13.125 23.0625 13.125 22.5C13.125 21.9375 12.75 21.5625 12.1875 21.5625H10.3125Z" fill="#C07300"/>
<path d="M19.6875 17.8125C19.125 17.8125 18.75 18.1875 18.75 18.75V25.3125C18.75 25.875 18.375 26.25 17.8125 26.25H4.6875C4.125 26.25 3.75 25.875 3.75 25.3125V4.6875C3.75 4.125 4.125 3.75 4.6875 3.75H11.25C11.8125 3.75 12.1875 3.375 12.1875 2.8125C12.1875 2.25 11.8125 1.875 11.25 1.875H4.6875C3.1875 1.875 1.875 3.1875 1.875 4.6875V25.3125C1.875 26.8125 3.1875 28.125 4.6875 28.125H17.8125C19.3125 28.125 20.625 26.8125 20.625 25.3125V18.75C20.625 18.1875 20.25 17.8125 19.6875 17.8125Z" fill="#C07300"/>
<path d="M27.375 5.4375C26.8125 4.875 26.0625 4.6875 25.3125 4.6875H24.9375L23.25 2.25C23.0625 2.0625 22.875 1.875 22.5 1.875H18.75C18.375 1.875 18.1875 2.0625 18 2.25L16.3125 4.6875H15.9375C15.1875 4.6875 14.4375 5.0625 13.875 5.4375C13.3125 5.8125 13.125 6.75 13.125 7.5V12.1875C13.125 12.9375 13.5 13.6875 13.875 14.25C14.25 14.8125 15.1875 15 15.9375 15H25.3125C26.0625 15 26.8125 14.625 27.375 14.25C27.9375 13.875 28.125 12.9375 28.125 12.1875V7.5C28.125 6.75 27.75 6 27.375 5.4375ZM26.25 12.1875C26.25 12.375 26.0625 12.75 26.0625 12.9375C25.875 12.9375 25.5 13.125 25.3125 13.125H15.9375C15.75 13.125 15.375 12.9375 15.1875 12.9375C15 12.9375 15 12.375 15 12.1875V7.5C15 7.3125 15.1875 6.9375 15.1875 6.75C15.1875 6.5625 15.5625 6.5625 15.9375 6.5625H16.875C17.25 6.5625 17.4375 6.375 17.625 6.1875L19.3125 3.75H22.125L23.8125 6.1875C24 6.375 24.1875 6.5625 24.5625 6.5625H25.5C25.6875 6.5625 26.0625 6.75 26.25 6.75C26.0625 6.9375 26.25 7.3125 26.25 7.5V12.1875Z" fill="#C07300"/>
<path d="M21 7.875C20.8125 7.875 20.8125 7.875 20.625 7.875C20.4375 7.875 20.4375 7.875 20.25 7.875C19.5 8.0625 18.9375 8.625 18.9375 9.375C18.9375 10.125 19.5 10.6875 20.25 10.875C20.4375 10.875 20.4375 10.875 20.625 10.875C20.8125 10.875 20.8125 10.875 21 10.875C21.75 10.6875 22.3125 10.125 22.3125 9.375C22.3125 8.625 21.75 8.0625 21 7.875Z" fill="#C07300"/>
</svg>
