<svg width="120" height="120" viewBox="0 0 120 120" fill="none" xmlns="http://www.w3.org/2000/svg">
<path d="M60.0179 62.1431C58.8344 62.1431 57.875 61.1837 57.875 60.0003C57.875 58.8168 58.8344 57.8574 60.0179 57.8574" stroke="#DAE7F8" stroke-width="5" stroke-linecap="round" stroke-linejoin="round"/>
<path d="M60.0195 62.1431C61.203 62.1431 62.1624 61.1837 62.1624 60.0003C62.1624 58.8168 61.203 57.8574 60.0195 57.8574" stroke="#DAE7F8" stroke-width="5" stroke-linecap="round" stroke-linejoin="round"/>
<path d="M36.4475 62.1431C35.2641 62.1431 34.3047 61.1837 34.3047 60.0003C34.3047 58.8168 35.2641 57.8574 36.4475 57.8574" stroke="#DAE7F8" stroke-width="5" stroke-linecap="round" stroke-linejoin="round"/>
<path d="M36.4492 62.1431C37.6327 62.1431 38.5921 61.1837 38.5921 60.0003C38.5921 58.8168 37.6327 57.8574 36.4492 57.8574" stroke="#DAE7F8" stroke-width="5" stroke-linecap="round" stroke-linejoin="round"/>
<path d="M83.5882 62.1431C82.4047 62.1431 81.4453 61.1837 81.4453 60.0003C81.4453 58.8168 82.4047 57.8574 83.5882 57.8574" stroke="#DAE7F8" stroke-width="5" stroke-linecap="round" stroke-linejoin="round"/>
<path d="M83.5898 62.1431C84.7733 62.1431 85.7331 61.1837 85.7331 60.0003C85.7331 58.8168 84.7733 57.8574 83.5898 57.8574" stroke="#DAE7F8" stroke-width="5" stroke-linecap="round" stroke-linejoin="round"/>
<path d="M59.9853 4.8047C50.0011 4.80781 40.2046 7.51899 31.6394 12.6495C23.0742 17.78 16.061 25.1376 11.3467 33.9387C6.63238 42.7399 4.39361 52.655 4.86879 62.6278C5.34397 72.6008 8.51531 82.258 14.0451 90.5709L4.78906 115.197L35.7838 109.593C43.2473 113.24 51.4377 115.155 59.7445 115.197C68.0513 115.238 76.2603 113.403 83.7595 109.83C91.2585 106.257 97.8551 101.037 103.055 94.56C108.257 88.0834 111.929 80.5157 113.798 72.4218C115.667 64.328 115.686 55.9166 113.852 47.8147C112.018 39.7127 108.379 32.1292 103.206 25.6295C98.0334 19.1297 91.46 13.8814 83.9766 10.2757C76.4931 6.66992 68.2922 4.79979 59.9853 4.8047Z" stroke="#DAE7F8" stroke-width="5" stroke-linecap="round" stroke-linejoin="round"/>
</svg>
