<svg width="24" height="24" viewBox="0 0 24 24" fill="none" xmlns="http://www.w3.org/2000/svg">
<path d="M15 7.5C15 7.95 15.3 8.25 15.75 8.25C16.2 8.25 16.5 7.95 16.5 7.5V2.25C16.5 2.1 16.5 2.1 16.5 1.95C16.35 1.8 16.2 1.65 16.05 1.5C15.9 1.5 15.9 1.5 15.75 1.5H10.5C10.05 1.5 9.74998 1.8 9.74998 2.25C9.74998 2.7 10.05 3 10.5 3H13.95L3.14998 13.65C2.99998 13.95 2.99998 14.55 3.14998 14.85C3.29998 15 3.59998 15 3.74998 15C3.89998 15 4.19998 15 4.34998 14.85L15 4.05V7.5Z" fill="#000104"/>
<path d="M20.85 9.15005C20.55 8.85005 20.1 8.85005 19.8 9.15005L9 19.95V16.5C9 16.05 8.7 15.75 8.25 15.75C7.8 15.75 7.5 16.05 7.5 16.5V21.75C7.5 21.9 7.5 21.9 7.5 22.05C7.65 22.2 7.65 22.35 7.95 22.5C8.1 22.5 8.1 22.5 8.25 22.5H13.5C13.95 22.5 14.25 22.2 14.25 21.75C14.25 21.3 13.95 21 13.5 21H10.05L20.7 10.35C21 10.05 21 9.45005 20.85 9.15005Z" fill="#000104"/>
</svg>
