<svg width="24" height="24" viewBox="0 0 24 24" fill="none" xmlns="http://www.w3.org/2000/svg">
<path d="M14.9996 7.5C14.9996 7.95 15.2996 8.25 15.7496 8.25C16.1996 8.25 16.4996 7.95 16.4996 7.5V2.25C16.4996 2.1 16.4996 2.1 16.4996 1.95C16.3496 1.8 16.1996 1.65 16.0496 1.5C15.8996 1.5 15.8996 1.5 15.7496 1.5H10.4996C10.0496 1.5 9.74961 1.8 9.74961 2.25C9.74961 2.7 10.0496 3 10.4996 3H13.9496L3.14961 13.65C2.99961 13.95 2.99961 14.55 3.14961 14.85C3.29961 15 3.59961 15 3.74961 15C3.89961 15 4.19961 15 4.34961 14.85L14.9996 4.05V7.5Z" fill="#000104"/>
<path d="M20.85 9.15078C20.55 8.85078 20.1 8.85078 19.8 9.15078L9 19.9508V16.5008C9 16.0508 8.7 15.7508 8.25 15.7508C7.8 15.7508 7.5 16.0508 7.5 16.5008V21.7508C7.5 21.9008 7.5 21.9008 7.5 22.0508C7.65 22.2008 7.65 22.3508 7.95 22.5008C8.1 22.5008 8.1 22.5008 8.25 22.5008H13.5C13.95 22.5008 14.25 22.2008 14.25 21.7508C14.25 21.3008 13.95 21.0008 13.5 21.0008H10.05L20.7 10.3508C21 10.0508 21 9.45078 20.85 9.15078Z" fill="#000104"/>
</svg>
