<svg width="16" height="16" viewBox="0 0 16 16" fill="none" xmlns="http://www.w3.org/2000/svg">
<path d="M1.31665 0.376465L0.376648 1.31646L3.30331 4.24313L4.77665 7.3498L3.87665 8.98313C3.76998 9.1698 3.70998 9.3898 3.70998 9.62313C3.70998 10.3565 4.30998 10.9565 5.04331 10.9565H10.0166L10.9366 11.8765C10.6033 12.1165 10.3833 12.5098 10.3833 12.9565C10.3833 13.6898 10.9766 14.2898 11.71 14.2898C12.1566 14.2898 12.55 14.0698 12.79 13.7298L14.6833 15.6231L15.6233 14.6831L1.31665 0.376465ZM5.04331 9.62313L5.77665 8.2898H7.34998L8.68332 9.62313H5.04331ZM13.71 2.2898H5.12331L6.45665 3.62313H12.5833L10.7433 6.95646H9.78331L11.0766 8.2498C11.4366 8.15646 11.7366 7.92313 11.91 7.60313L14.2966 3.27646C14.5433 2.83646 14.2166 2.2898 13.71 2.2898ZM5.04331 11.6231C4.30998 11.6231 3.71665 12.2231 3.71665 12.9565C3.71665 13.6898 4.30998 14.2898 5.04331 14.2898C5.77665 14.2898 6.37665 13.6898 6.37665 12.9565C6.37665 12.2231 5.77665 11.6231 5.04331 11.6231Z" fill="#26890D"/>
</svg>
