<svg width="55" height="54" viewBox="0 0 55 54" fill="none" xmlns="http://www.w3.org/2000/svg">
<path d="M32 23.625H27.5V19.125H32V23.625ZM32 14.625H27.5V3.375H32V14.625ZM18.5 41.625C16.025 41.625 14.0225 43.65 14.0225 46.125C14.0225 48.6 16.025 50.625 18.5 50.625C20.975 50.625 23 48.6 23 46.125C23 43.65 20.975 41.625 18.5 41.625ZM41 41.625C38.525 41.625 36.5225 43.65 36.5225 46.125C36.5225 48.6 38.525 50.625 41 50.625C43.475 50.625 45.5 48.6 45.5 46.125C45.5 43.65 43.475 41.625 41 41.625ZM20.975 30.375H37.7375C39.425 30.375 40.91 29.4525 41.675 28.0575L50 12.285L46.0625 10.125L37.7375 25.875H21.9425L12.3575 5.625H5V10.125H9.5L17.6 27.2025L14.5625 32.6925C12.92 35.7075 15.08 39.375 18.5 39.375H45.5V34.875H18.5L20.975 30.375Z" fill="#656767"/>
</svg>
