<svg width="18" height="22" viewBox="0 0 18 22" fill="none" xmlns="http://www.w3.org/2000/svg">
<path d="M16.9501 2.6C16.5001 2.3 16.05 2 15.3 2H13.35C13.05 1.1 12.3 0.5 11.25 0.5H6.75005C5.70005 0.5 4.95005 1.1 4.65005 2H2.70005C1.95005 2 1.50005 2.3 1.05005 2.6C0.600049 2.9 0.300049 3.65 0.300049 4.25V19.25C0.300049 19.85 0.600049 20.45 0.900049 20.9C1.20005 21.35 1.95005 21.5 2.70005 21.5H15.4501C16.0501 21.5 16.65 21.2 17.1 20.9C17.5501 20.6 17.7001 19.85 17.7001 19.25V4.25C17.7001 3.65 17.4001 3.05 16.9501 2.6ZM6.00005 2.75C6.00005 2.3 6.30005 2 6.75005 2H11.25C11.7001 2 12 2.3 12 2.75V3.5C12 3.95 11.7001 4.25 11.25 4.25H6.75005C6.30005 4.25 6.00005 3.95 6.00005 3.5V2.75ZM16.2001 19.25C16.2001 19.4 16.05 19.7 16.05 19.85C16.05 20 15.6 20 15.3 20H2.70005C2.55005 20 2.25005 19.85 2.10005 19.85C1.95005 19.7 1.95005 19.55 1.95005 19.25V4.25C1.95005 4.1 2.10005 3.8 2.10005 3.65C2.10005 3.5 2.40005 3.5 2.70005 3.5H4.50005C4.50005 4.7 5.55005 5.75 6.75005 5.75H11.25C12.4501 5.75 13.5001 4.7 13.5001 3.5H15.3C15.4501 3.5 15.7501 3.65 15.9001 3.65C16.0501 3.8 16.05 3.95 16.05 4.25V19.25H16.2001Z" fill="#5A3600"/>
</svg>
