<svg width="17" height="16" viewBox="0 0 17 16" fill="none" xmlns="http://www.w3.org/2000/svg">
<path d="M11 9H6C5.7 9 5.5 9.2 5.5 9.5C5.5 9.8 5.7 10 6 10H11C11.3 10 11.5 9.8 11.5 9.5C11.5 9.2 11.3 9 11 9Z" fill="#000104"/>
<path d="M13.8002 2.4C13.5002 2.2 13.2002 2 12.7002 2H11.4002C11.2002 1.4 10.7002 1 10.0002 1H7.0002C6.3002 1 5.8002 1.4 5.6002 2H4.3002C3.8002 2 3.5002 2.2 3.2002 2.4C2.9002 2.6 2.7002 3.1 2.7002 3.5V13.5C2.7002 13.9 2.9002 14.3 3.1002 14.6C3.3002 14.9 3.8002 15 4.3002 15H12.8002C13.2002 15 13.6002 14.8 13.9002 14.6C14.2002 14.4 14.3002 13.9 14.3002 13.5V3.5C14.3002 3.1 14.1002 2.7 13.8002 2.4ZM6.5002 2.5C6.5002 2.2 6.7002 2 7.0002 2H10.0002C10.3002 2 10.5002 2.2 10.5002 2.5V3C10.5002 3.3 10.3002 3.5 10.0002 3.5H7.0002C6.7002 3.5 6.5002 3.3 6.5002 3V2.5ZM13.3002 13.5C13.3002 13.6 13.2002 13.8 13.2002 13.9C13.2002 14 12.9002 14 12.7002 14H4.3002C4.2002 14 4.0002 13.9 3.9002 13.9C3.8002 13.8 3.8002 13.7 3.8002 13.5V3.5C3.8002 3.4 3.9002 3.2 3.9002 3.1C3.9002 3 4.1002 3 4.3002 3H5.5002C5.5002 3.8 6.2002 4.5 7.0002 4.5H10.0002C10.8002 4.5 11.5002 3.8 11.5002 3H12.7002C12.8002 3 13.0002 3.1 13.1002 3.1C13.2002 3.2 13.2002 3.3 13.2002 3.5V13.5H13.3002Z" fill="#000104"/>
</svg>
