<svg width="18" height="22" viewBox="0 0 18 22" fill="none" xmlns="http://www.w3.org/2000/svg">
<path d="M17.4 16.4C17.85 15.95 18 15.35 18 14.75V2.75C18 2.15 17.7 1.55 17.4 1.1C17.1 0.65 16.35 0.5 15.75 0.5H3C2.25 0.5 1.5 0.8 0.9 1.4C0.3 1.85 0 2.6 0 3.5V18.5C0 19.25 0.3 20 0.9 20.6C1.5 21.2 2.25 21.5 3 21.5H17.25C17.7 21.5 18 21.2 18 20.75C18 20.3 17.7 20 17.25 20H16.5V16.85C16.8 16.7 17.1 16.55 17.4 16.4ZM1.5 3.5C1.5 3.05 1.65 2.75 1.95 2.45C2.25 2.15 2.55 2 3 2H15.75C15.9 2 16.2 2.15 16.35 2.15C16.35 2.3 16.5 2.6 16.5 2.75V14.75C16.5 14.9 16.35 15.2 16.35 15.35C16.35 15.5 15.9 15.5 15.75 15.5H3C2.4 15.5 1.95 15.65 1.5 15.95V3.5ZM3 20C2.55 20 2.25 19.85 1.95 19.55C1.65 19.25 1.5 18.95 1.5 18.5C1.5 18.05 1.65 17.75 1.95 17.45C2.25 17.15 2.55 17 3 17H15V20H3Z" fill="#5A3600"/>
</svg>
