<svg width="24" height="24" viewBox="0 0 24 24" fill="none" xmlns="http://www.w3.org/2000/svg">
<path d="M15.4252 12.8571C19.6857 12.8571 23.1395 11.3221 23.1395 9.42857C23.1395 7.53502 19.6857 6 15.4252 6C11.1647 6 7.71094 7.53502 7.71094 9.42857C7.71094 11.3221 11.1647 12.8571 15.4252 12.8571Z" stroke="#C07300" stroke-width="1.5" stroke-linecap="round" stroke-linejoin="round"/>
<path d="M7.71094 9.42853V19.7142C7.71094 21.6 11.1395 23.1428 15.4252 23.1428C19.7109 23.1428 23.1395 21.6 23.1395 19.7142V9.42853" stroke="#C07300" stroke-width="1.5" stroke-linecap="round" stroke-linejoin="round"/>
<path d="M23.1395 14.5714C23.1395 16.4571 19.7109 18 15.4252 18C11.1395 18 7.71094 16.4571 7.71094 14.5714" stroke="#C07300" stroke-width="1.5" stroke-linecap="round" stroke-linejoin="round"/>
<path d="M15.2555 2.58645C13.2523 1.35024 10.9206 0.752361 8.56975 0.872162C4.30118 0.872162 0.855469 2.41503 0.855469 4.30074C0.855469 5.31217 1.84975 6.22074 3.4269 6.87217" stroke="#C07300" stroke-width="1.5" stroke-linecap="round" stroke-linejoin="round"/>
<path d="M3.4269 17.1579C1.84975 16.5065 0.855469 15.5979 0.855469 14.5865V4.30078" stroke="#C07300" stroke-width="1.5" stroke-linecap="round" stroke-linejoin="round"/>
<path d="M3.4269 12.015C1.84975 11.3636 0.855469 10.455 0.855469 9.4436" stroke="#C07300" stroke-width="1.5" stroke-linecap="round" stroke-linejoin="round"/>
</svg>
