<svg width="24" height="24" viewBox="0 0 24 24" fill="none" xmlns="http://www.w3.org/2000/svg">
<path d="M9.3 13.1992H3C2.1 13.1992 1.5 13.7992 1.5 14.6992V20.9992C1.5 21.8992 2.1 22.4992 3 22.4992H9.3C10.2 22.4992 10.8 21.8992 10.8 20.9992V14.6992C10.8 13.7992 10.2 13.1992 9.3 13.1992ZM9.3 20.9992H3V14.6992H9.3V20.9992Z" fill="#000104"/>
<path d="M21.0002 13.1992H14.7002C13.8002 13.1992 13.2002 13.7992 13.2002 14.6992V20.9992C13.2002 21.8992 13.8002 22.4992 14.7002 22.4992H21.0002C21.9002 22.4992 22.5002 21.8992 22.5002 20.9992V14.6992C22.5002 13.7992 21.9002 13.1992 21.0002 13.1992ZM21.0002 20.9992H14.7002V14.6992H21.0002V20.9992Z" fill="#000104"/>
<path d="M8.8501 10.8H15.1501C16.0501 10.8 16.6501 10.2 16.6501 9.3V3C16.6501 2.1 16.0501 1.5 15.1501 1.5H8.8501C7.9501 1.5 7.3501 2.1 7.3501 3V9.3C7.3501 10.2 7.9501 10.8 8.8501 10.8ZM8.8501 3H15.1501V9.3H8.8501V3Z" fill="#000104"/>
</svg>
