<svg width="24" height="24" viewBox="0 0 24 24" fill="none" xmlns="http://www.w3.org/2000/svg">
<path d="M22.5 4.5C22.5 3.3 21.45 2.25 20.25 2.25H3.75C2.55 2.25 1.5 3.3 1.5 4.5V10.5C1.5 11.1 1.8 11.55 2.1 12C1.65 12.45 1.5 12.9 1.5 13.5V19.5C1.5 20.1 1.8 20.7 2.1 21.15C2.4 21.6 3.15 21.75 3.75 21.75H20.25C20.85 21.75 21.45 21.45 21.9 21.15C22.35 20.85 22.5 20.1 22.5 19.5V13.5C22.5 12.9 22.35 12.45 21.9 12C22.2 11.55 22.5 11.1 22.5 10.5V4.5ZM3 4.5C3 4.05 3.3 3.75 3.75 3.75H20.25C20.7 3.75 21 4.05 21 4.5V10.5C21 10.95 20.7 11.25 20.25 11.25H3.75C3.3 11.25 3 10.95 3 10.5V4.5ZM21 19.5C21 19.65 20.85 19.95 20.85 20.1C20.85 20.25 20.55 20.25 20.25 20.25H3.75C3.6 20.25 3.3 20.1 3.15 20.1C3.15 19.95 3 19.65 3 19.5V13.5C3 13.35 3.15 13.05 3.15 12.9C3.15 12.75 3.45 12.75 3.75 12.75H20.25C20.4 12.75 20.7 12.9 20.85 12.9C20.85 13.05 21 13.35 21 13.5V19.5Z" fill="#000104"/>
<path d="M6.75 9C7.65 9 8.25 8.4 8.25 7.5C8.25 6.6 7.65 6 6.75 6C5.85 6 5.25 6.6 5.25 7.5C5.25 8.4 5.85 9 6.75 9Z" fill="#000104"/>
<path d="M12.75 8.25H18C18.45 8.25 18.75 7.95 18.75 7.5C18.75 7.05 18.45 6.75 18 6.75H12.75C12.3 6.75 12 7.05 12 7.5C12 7.95 12.3 8.25 12.75 8.25Z" fill="#000104"/>
<path d="M6.75 15C5.85 15 5.25 15.6 5.25 16.5C5.25 17.4 5.85 18 6.75 18C7.65 18 8.25 17.4 8.25 16.5C8.25 15.6 7.65 15 6.75 15Z" fill="#000104"/>
<path d="M18 15.75H12.75C12.3 15.75 12 16.05 12 16.5C12 16.95 12.3 17.25 12.75 17.25H18C18.45 17.25 18.75 16.95 18.75 16.5C18.75 16.05 18.45 15.75 18 15.75Z" fill="#000104"/>
</svg>
