<svg width="24" height="24" viewBox="0 0 24 24" fill="none" xmlns="http://www.w3.org/2000/svg">
<path d="M9 1.5H3.75C2.55 1.5 1.5 2.55 1.5 3.75V9C1.5 10.2 2.55 11.25 3.75 11.25H9C10.2 11.25 11.25 10.2 11.25 9V3.75C11.25 2.55 10.2 1.5 9 1.5ZM9.75 9C9.75 9.45 9.45 9.75 9 9.75H3.75C3.3 9.75 3 9.45 3 9V3.75C3 3.3 3.3 3 3.75 3H9C9.45 3 9.75 3.3 9.75 3.75V9Z" fill="#000104"/>
<path d="M20.25 12.75H15C13.8 12.75 12.75 13.8 12.75 15V20.25C12.75 21.45 13.8 22.5 15 22.5H20.25C21.45 22.5 22.5 21.45 22.5 20.25V15C22.5 13.8 21.45 12.75 20.25 12.75ZM21 20.25C21 20.7 20.7 21 20.25 21H15C14.55 21 14.25 20.7 14.25 20.25V15C14.25 14.55 14.55 14.25 15 14.25H20.25C20.7 14.25 21 14.55 21 15V20.25Z" fill="#000104"/>
<path d="M9 12.75H3.75C2.55 12.75 1.5 13.8 1.5 15V20.25C1.5 21.45 2.55 22.5 3.75 22.5H9C10.2 22.5 11.25 21.45 11.25 20.25V15C11.25 13.8 10.2 12.75 9 12.75ZM9.75 20.25C9.75 20.7 9.45 21 9 21H3.75C3.3 21 3 20.7 3 20.25V15C3 14.55 3.3 14.25 3.75 14.25H9C9.45 14.25 9.75 14.55 9.75 15V20.25Z" fill="#000104"/>
<path d="M13.5 7.2H16.8V10.5C16.8 10.95 17.1 11.25 17.55 11.25C18 11.25 18.3 10.95 18.3 10.5V7.2H21.6C22.05 7.2 22.35 6.9 22.35 6.45C22.35 6 22.05 5.7 21.6 5.7H18.3V2.25C18.3 1.8 18 1.5 17.7 1.5C17.4 1.5 16.95 1.8 16.95 2.25V5.55H13.5C13.05 5.7 12.75 6 12.75 6.3C12.75 6.6 13.05 7.2 13.5 7.2Z" fill="#000104"/>
</svg>
