<svg width="20" height="20" viewBox="0 0 20 20" fill="none" xmlns="http://www.w3.org/2000/svg">
<path d="M18.25 3.625C17.875 3.25 17.375 3.125 16.875 3.125H15V1.875C15 1.5 14.75 1.25 14.375 1.25C14 1.25 13.75 1.5 13.75 1.875V5.625C13.75 6 14 6.25 14.375 6.25C14.75 6.25 15 6 15 5.625V4.375H16.875C17 4.375 17.25 4.5 17.375 4.5C17.375 4.625 17.5 4.875 17.5 5V7.5H2.5V5C2.5 4.875 2.625 4.625 2.625 4.5C2.625 4.375 2.875 4.375 3.125 4.375C3.5 4.375 3.75 4.125 3.75 3.75C3.75 3.375 3.5 3.125 3.125 3.125C2.625 3.125 2.125 3.375 1.75 3.625C1.375 3.875 1.25 4.5 1.25 5V16.875C1.25 17.375 1.5 17.875 1.75 18.25C2 18.625 2.625 18.75 3.125 18.75H16.875C17.375 18.75 17.875 18.5 18.25 18.25C18.625 18 18.75 17.375 18.75 16.875V5C18.75 4.5 18.5 4 18.25 3.625ZM17.375 17.375C17.25 17.5 17.125 17.5 16.875 17.5H3.125C3 17.5 2.75 17.375 2.625 17.375C2.625 17.25 2.5 17 2.5 16.875V8.75H17.5V16.875C17.5 17 17.375 17.25 17.375 17.375Z" fill="#000104"/>
<path d="M5.625 6.25C6 6.25 6.25 6 6.25 5.625V4.375H11.875C12.25 4.375 12.5 4.125 12.5 3.75C12.5 3.375 12.25 3.125 11.875 3.125H6.25V1.875C6.25 1.5 6 1.25 5.625 1.25C5.25 1.25 5 1.5 5 1.875V5.625C5 6 5.25 6.25 5.625 6.25Z" fill="#000104"/>
</svg>
