<svg width="30" height="30" viewBox="0 0 30 30" fill="none" xmlns="http://www.w3.org/2000/svg">
<path d="M26.25 7.5H23.4375H20.625C20.625 6 20.0625 4.5 18.9375 3.5625C16.875 1.3125 13.125 1.3125 11.0625 3.5625C9.9375 4.5 9.375 6 9.375 7.5H6.5625H3.75C3.1875 7.5 2.8125 7.875 2.8125 8.4375C2.8125 9 3.1875 9.375 3.75 9.375H5.625V25.3125C5.625 26.0625 6 26.8125 6.375 27.375C6.75 27.9375 7.6875 28.125 8.4375 28.125H21.5625C22.3125 28.125 23.0625 27.75 23.625 27.375C24.1875 27 24.375 26.0625 24.375 25.3125V9.375H26.25C26.8125 9.375 27.1875 9 27.1875 8.4375C27.1875 7.875 26.8125 7.5 26.25 7.5ZM12.375 4.875C13.875 3.375 16.3125 3.375 17.625 4.875C18.375 5.625 18.75 6.5625 18.75 7.5H11.25C11.25 6.5625 11.625 5.625 12.375 4.875ZM22.5 25.3125C22.5 25.5 22.3125 25.875 22.3125 26.0625C22.3125 26.25 21.75 26.25 21.5625 26.25H8.4375C8.25 26.25 7.875 26.0625 7.6875 26.0625C7.6875 25.875 7.5 25.5 7.5 25.3125V9.375H22.5V25.3125Z" fill="#C07300"/>
<path d="M12.1875 13.125C11.625 13.125 11.25 13.5 11.25 14.0625V21.5625C11.25 22.125 11.625 22.5 12.1875 22.5C12.75 22.5 13.125 22.125 13.125 21.5625V14.0625C13.125 13.5 12.75 13.125 12.1875 13.125Z" fill="#C07300"/>
<path d="M17.8125 13.125C17.25 13.125 16.875 13.5 16.875 14.0625V21.5625C16.875 22.125 17.25 22.5 17.8125 22.5C18.375 22.5 18.75 22.125 18.75 21.5625V14.0625C18.75 13.5 18.375 13.125 17.8125 13.125Z" fill="#C07300"/>
</svg>
