<svg width="24" height="24" viewBox="0 0 24 24" fill="none" xmlns="http://www.w3.org/2000/svg">
<path d="M21 6H18.75H16.5C16.5 4.8 16.05 3.6 15.15 2.85C13.5 1.05 10.5 1.05 8.85 2.85C7.95 3.6 7.5 4.8 7.5 6H5.25H3C2.55 6 2.25 6.3 2.25 6.75C2.25 7.2 2.55 7.5 3 7.5H4.5V20.25C4.5 20.85 4.8 21.45 5.1 21.9C5.4 22.35 6.15 22.5 6.75 22.5H17.25C17.85 22.5 18.45 22.2 18.9 21.9C19.35 21.6 19.5 20.85 19.5 20.25V7.5H21C21.45 7.5 21.75 7.2 21.75 6.75C21.75 6.3 21.45 6 21 6ZM9.9 3.9C11.1 2.7 13.05 2.7 14.1 3.9C14.7 4.5 15 5.25 15 6H9C9 5.25 9.3 4.5 9.9 3.9ZM18 20.25C18 20.4 17.85 20.7 17.85 20.85C17.85 21 17.4 21 17.25 21H6.75C6.6 21 6.3 20.85 6.15 20.85C6.15 20.7 6 20.4 6 20.25V7.5H18V20.25Z" fill="#EB4028"/>
<path d="M9.75 10.5C9.3 10.5 9 10.8 9 11.25V17.25C9 17.7 9.3 18 9.75 18C10.2 18 10.5 17.7 10.5 17.25V11.25C10.5 10.8 10.2 10.5 9.75 10.5Z" fill="#EB4028"/>
<path d="M14.25 10.5C13.8 10.5 13.5 10.8 13.5 11.25V17.25C13.5 17.7 13.8 18 14.25 18C14.7 18 15 17.7 15 17.25V11.25C15 10.8 14.7 10.5 14.25 10.5Z" fill="#EB4028"/>
</svg>
