<svg width="32" height="32" viewBox="0 0 32 32" fill="none" xmlns="http://www.w3.org/2000/svg">
<path d="M16 25.3333C14.5333 25.3333 13.3333 26.5333 13.3333 28C13.3333 29.4666 14.5333 30.6666 16 30.6666C17.4667 30.6666 18.6667 29.4666 18.6667 28C18.6667 26.5333 17.4667 25.3333 16 25.3333ZM8.00001 1.33331C6.53334 1.33331 5.33334 2.53331 5.33334 3.99998C5.33334 5.46665 6.53334 6.66665 8.00001 6.66665C9.46668 6.66665 10.6667 5.46665 10.6667 3.99998C10.6667 2.53331 9.46668 1.33331 8.00001 1.33331ZM8.00001 9.33331C6.53334 9.33331 5.33334 10.5333 5.33334 12C5.33334 13.4666 6.53334 14.6666 8.00001 14.6666C9.46668 14.6666 10.6667 13.4666 10.6667 12C10.6667 10.5333 9.46668 9.33331 8.00001 9.33331ZM8.00001 17.3333C6.53334 17.3333 5.33334 18.5333 5.33334 20C5.33334 21.4666 6.53334 22.6666 8.00001 22.6666C9.46668 22.6666 10.6667 21.4666 10.6667 20C10.6667 18.5333 9.46668 17.3333 8.00001 17.3333ZM24 6.66665C25.4667 6.66665 26.6667 5.46665 26.6667 3.99998C26.6667 2.53331 25.4667 1.33331 24 1.33331C22.5333 1.33331 21.3333 2.53331 21.3333 3.99998C21.3333 5.46665 22.5333 6.66665 24 6.66665ZM16 17.3333C14.5333 17.3333 13.3333 18.5333 13.3333 20C13.3333 21.4666 14.5333 22.6666 16 22.6666C17.4667 22.6666 18.6667 21.4666 18.6667 20C18.6667 18.5333 17.4667 17.3333 16 17.3333ZM24 17.3333C22.5333 17.3333 21.3333 18.5333 21.3333 20C21.3333 21.4666 22.5333 22.6666 24 22.6666C25.4667 22.6666 26.6667 21.4666 26.6667 20C26.6667 18.5333 25.4667 17.3333 24 17.3333ZM24 9.33331C22.5333 9.33331 21.3333 10.5333 21.3333 12C21.3333 13.4666 22.5333 14.6666 24 14.6666C25.4667 14.6666 26.6667 13.4666 26.6667 12C26.6667 10.5333 25.4667 9.33331 24 9.33331ZM16 9.33331C14.5333 9.33331 13.3333 10.5333 13.3333 12C13.3333 13.4666 14.5333 14.6666 16 14.6666C17.4667 14.6666 18.6667 13.4666 18.6667 12C18.6667 10.5333 17.4667 9.33331 16 9.33331ZM16 1.33331C14.5333 1.33331 13.3333 2.53331 13.3333 3.99998C13.3333 5.46665 14.5333 6.66665 16 6.66665C17.4667 6.66665 18.6667 5.46665 18.6667 3.99998C18.6667 2.53331 17.4667 1.33331 16 1.33331Z" fill="#2C2C2C"/>
</svg>
