<svg width="24" height="24" viewBox="0 0 24 24" fill="none" xmlns="http://www.w3.org/2000/svg">
<path d="M16.3501 7.20001C15.9001 7.20001 15.6001 7.50001 15.6001 7.95001V10.05C15.6001 10.5 15.9001 10.8 16.3501 10.8C16.8001 10.8 17.1001 10.5 17.1001 10.05V7.95001C17.1001 7.50001 16.8001 7.20001 16.3501 7.20001Z" fill="#000104"/>
<path d="M16.3502 4.34998C15.9002 4.34998 15.4502 4.79998 15.4502 5.24998C15.4502 5.69998 15.9002 6.14998 16.3502 6.14998C16.8002 6.14998 17.2502 5.69998 17.2502 5.24998C17.2502 4.79998 16.8002 4.34998 16.3502 4.34998Z" fill="#000104"/>
<path d="M20.8501 20.1H12.7501V19.35C12.7501 17.25 11.5501 15.45 9.7501 14.55C10.5001 13.8 11.1001 12.9 11.1001 11.7C11.1001 9.74998 9.4501 8.09998 7.5001 8.09998C5.5501 8.09998 3.9001 9.74998 3.9001 11.7C3.9001 12.75 4.3501 13.8 5.1001 14.4C3.3001 15.3 2.1001 17.1 2.1001 19.2V20.7C2.1001 21.15 2.4001 21.45 2.8501 21.45H12.0001H20.8501C21.3001 21.45 21.6001 21.15 21.6001 20.7C21.6001 20.25 21.1501 20.1 20.8501 20.1ZM7.3501 9.59998C8.5501 9.59998 9.4501 10.5 9.4501 11.7C9.4501 12.9 8.5501 13.8 7.3501 13.8C6.1501 13.8 5.2501 12.9 5.2501 11.7C5.2501 10.5 6.1501 9.59998 7.3501 9.59998ZM7.3501 15.45C9.4501 15.45 11.2501 17.25 11.2501 19.35V20.1H3.6001V19.35C3.6001 17.1 5.2501 15.45 7.3501 15.45Z" fill="#000104"/>
<path d="M10.9502 8.25002C11.4002 8.25002 11.7002 7.95002 11.7002 7.50002C11.8502 5.10002 13.8002 3.15002 16.2002 3.15002C18.7502 3.15002 20.8502 5.25002 20.8502 7.80002C20.8502 10.35 18.7502 12.45 16.2002 12.45C15.0002 12.45 13.8002 12 13.0502 11.1C12.7502 10.8 12.3002 10.8 12.0002 11.1C11.7002 11.4 11.7002 11.85 12.0002 12.15C13.2002 13.2 14.7002 13.95 16.2002 13.95C19.5002 13.95 22.3502 11.25 22.3502 7.80002C22.3502 4.35002 19.6502 1.65002 16.2002 1.65002C12.9002 1.65002 10.3502 4.20002 10.2002 7.50002C10.2002 7.95002 10.5002 8.25002 10.9502 8.25002Z" fill="#000104"/>
</svg>
