<svg width="16" height="16" viewBox="0 0 16 16" fill="none" xmlns="http://www.w3.org/2000/svg">
<path d="M13.9 4.6L10.4 1.1C10.3 1.1 10.1 1 10 1H3.5C3.1 1 2.7 1.2 2.4 1.4C2.1 1.6 2 2.1 2 2.5V13.5C2 13.9 2.2 14.3 2.4 14.6C2.6 14.9 3.1 15 3.5 15H12.5C12.9 15 13.3 14.8 13.6 14.6C13.9 14.4 14 13.9 14 13.5V5C14 4.9 13.9 4.7 13.9 4.6ZM13 13.5C13 13.6 12.9 13.8 12.9 13.9C12.9 14 12.6 14 12.5 14H3.5C3.4 14 3.2 13.9 3.1 13.9C3.1 13.8 3 13.6 3 13.5V2.5C3 2.4 3.1 2.2 3.1 2.1C3.1 2 3.4 2 3.5 2H9.8L13 5.2V13.5Z" fill="black"/>
<path d="M8.50005 9.8V5.5C8.50005 5.2 8.30005 5 8.00005 5C7.70005 5 7.50005 5.2 7.50005 5.5V9.8L6.40005 8.6C6.20005 8.4 5.90005 8.4 5.70005 8.6C5.50005 8.8 5.50005 9.1 5.70005 9.3L7.70005 11.3C7.70005 11.3 7.80005 11.4 7.90005 11.4C8.00005 11.4 8.00005 11.4 8.10005 11.4C8.20005 11.4 8.20005 11.4 8.30005 11.4C8.40005 11.4 8.40005 11.3 8.50005 11.3L10.5 9.3C10.7 9.1 10.7 8.8 10.5 8.6C10.3 8.4 10 8.4 9.80005 8.6L8.50005 9.8Z" fill="black"/>
</svg>
