<svg width="16" height="16" viewBox="0 0 16 16" fill="none" xmlns="http://www.w3.org/2000/svg">
<path d="M14.9 3.7002C14.8 3.5002 14.7 3.4002 14.6 3.2002L12.8 1.4002C12.7 1.3002 12.5 1.1002 12.3 1.1002C11.9 0.900195 11.5 0.900195 11.1 1.1002C10.9 1.2002 10.8 1.3002 10.6 1.4002L2.4 9.6002C2.3 9.7002 2.3 9.80019 2.3 9.9002L1 14.4002C1 14.6002 1 14.8002 1.1 14.9002C1.2 14.9002 1.4 15.0002 1.5 15.0002H1.6L6.1 13.7002C6.2 13.7002 6.3 13.6002 6.3 13.6002L14.5 5.4002C14.6 5.3002 14.8 5.1002 14.8 4.9002C15 4.7002 15 4.5002 15 4.3002C15 4.1002 15 3.9002 14.9 3.7002ZM14 4.5002C14 4.6002 13.9 4.6002 13.9 4.7002L5.8 12.8002L2.3 13.8002L3.3 10.3002L11.5 2.2002C11.5 2.2002 11.6 2.1002 11.7 2.1002C11.6 2.0002 11.8 2.0002 11.9 2.0002C12 2.0002 12 2.1002 12.1 2.1002L13.9 3.9002C13.9 3.9002 14 4.0002 14 4.1002C14 4.2002 14 4.2002 14 4.3002C14 4.4002 14 4.4002 14 4.5002Z" fill="#644D00"/>
</svg>
