<svg width="17" height="16" viewBox="0 0 17 16" fill="none" xmlns="http://www.w3.org/2000/svg">
<path d="M15.3004 6.7002C15.2004 6.5002 15.1004 6.4002 15.0004 6.2002L13.7004 4.9002C13.6004 4.8002 13.4004 4.6002 13.2004 4.6002C12.8004 4.4002 12.4004 4.4002 12.0004 4.6002C11.8004 4.7002 11.6004 4.8002 11.5004 4.9002L5.30039 11.1002C5.20039 11.2002 5.20039 11.3002 5.20039 11.4002L4.90039 14.4002C4.90039 14.5002 4.90039 14.7002 5.00039 14.8002C5.20039 14.9002 5.30039 15.0002 5.40039 15.0002L8.40039 14.7002C8.50039 14.7002 8.60039 14.6002 8.70039 14.6002L14.9004 8.4002C15.0004 8.3002 15.2004 8.1002 15.2004 7.9002C15.3004 7.7002 15.3004 7.5002 15.3004 7.3002C15.3004 7.1002 15.4004 6.9002 15.3004 6.7002ZM14.4004 7.4002C14.4004 7.5002 14.3004 7.5002 14.3004 7.6002L8.20039 13.7002L6.00039 13.9002L6.20039 11.7002L12.3004 5.6002C12.3004 5.6002 12.4004 5.5002 12.5004 5.5002C12.6004 5.4002 12.8004 5.4002 12.9004 5.5002C13.0004 5.5002 13.0004 5.6002 13.1004 5.6002L14.4004 6.9002C14.4004 6.9002 14.5004 7.0002 14.5004 7.1002C14.5004 7.2002 14.5004 7.2002 14.5004 7.3002C14.4004 7.3002 14.4004 7.4002 14.4004 7.4002Z" fill="#000104"/>
<path d="M5.19961 8.3C5.59961 8.3 5.89961 8 5.99961 7.7V7.6C6.19961 6.5 7.09961 5.7 8.19961 5.5C8.59961 5.4 8.89961 5.1 8.89961 4.7C8.89961 4.3 8.59961 4 8.19961 3.9C7.09961 3.7 6.29961 2.9 5.99961 1.8V1.7C5.99961 1.3 5.59961 1 5.19961 1C4.79961 1 4.49961 1.3 4.39961 1.8C4.19961 2.9 3.29961 3.7 2.29961 3.9C1.89961 3.9 1.59961 4.3 1.59961 4.7C1.59961 5.1 1.89961 5.4 2.29961 5.5C3.39961 5.7 4.19961 6.5 4.49961 7.7C4.49961 8 4.79961 8.3 5.19961 8.3ZM3.09961 4.7C4.09961 4.3 4.89961 3.6 5.29961 2.5C5.69961 3.5 6.49961 4.3 7.49961 4.7C6.39961 5 5.59961 5.8 5.19961 6.8C4.89961 5.8 4.09961 5 3.09961 4.7Z" fill="#000104"/>
</svg>
