<svg width="18" height="16" viewBox="0 0 18 16" fill="none" xmlns="http://www.w3.org/2000/svg">
<path d="M15.875 0.75H2.125C1.125 0.75 0.25 1.625 0.25 2.75V13.375C0.25 14.375 1.125 15.25 2.125 15.25H15.875C16.875 15.25 17.75 14.375 17.75 13.375V2.75C17.75 1.625 16.875 0.75 15.875 0.75ZM2.125 2H15.875C16.25 2 16.5 2.25 16.5 2.625L9.5 6.875C9.25 7 8.75 7 8.5 6.875L1.5 2.625C1.5 2.375 1.75 2 2.125 2ZM15.875 14H2.125C1.75 14 1.5 13.75 1.5 13.375V4.125L7.875 8C8.25 8.125 8.625 8.25 9 8.25C9.375 8.25 9.75 8.125 10.125 8L16.5 4.125V13.375C16.5 13.625 16.25 14 15.875 14Z" fill="#000104"/>
</svg>
