<svg width="120" height="120" viewBox="0 0 120 120" fill="none" xmlns="http://www.w3.org/2000/svg">
<path d="M107.145 107.142C107.145 109.415 106.242 111.596 104.635 113.203C103.027 114.81 100.847 115.714 98.5737 115.714H21.4308C19.1575 115.714 16.9773 114.81 15.3699 113.203C13.7625 111.596 12.8594 109.415 12.8594 107.142V12.8566C12.8594 10.5833 13.7625 8.40313 15.3699 6.79567C16.9773 5.18822 19.1575 4.28516 21.4308 4.28516H75.4882C76.5491 4.28516 77.5665 4.70658 78.3167 5.45673L105.974 33.1136C106.724 33.8637 107.145 34.8811 107.145 35.942V107.142Z" stroke="#DAE7F8" stroke-width="3" stroke-linecap="round" stroke-linejoin="round"/>
<path d="M45.4276 30.1414C34.3382 33.427 80.5751 89.1444 85.5062 76.3945C90.4375 63.6448 24.7733 80.0806 35.5879 89.1444C46.4025 98.2078 56.5171 26.8558 45.4276 30.1414Z" stroke="#DAE7F8" stroke-width="3" stroke-linecap="round" stroke-linejoin="round"/>
</svg>
