<svg width="120" height="120" viewBox="0 0 120 120" fill="none" xmlns="http://www.w3.org/2000/svg">
<path d="M44.9994 4.28613H8.57087C6.20394 4.28613 4.28516 6.20492 4.28516 8.57185V45.0004C4.28516 47.3673 6.20394 49.2861 8.57087 49.2861H44.9994C47.3664 49.2861 49.2852 47.3673 49.2852 45.0004V8.57185C49.2852 6.20492 47.3664 4.28613 44.9994 4.28613Z" stroke="#DAE7F8" stroke-width="3" stroke-linecap="round" stroke-linejoin="round"/>
<path d="M111.427 4.28613H74.9986C72.6317 4.28613 70.7129 6.20492 70.7129 8.57185V45.0004C70.7129 47.3673 72.6317 49.2861 74.9986 49.2861H111.427C113.794 49.2861 115.713 47.3673 115.713 45.0004V8.57185C115.713 6.20492 113.794 4.28613 111.427 4.28613Z" stroke="#DAE7F8" stroke-width="3" stroke-linecap="round" stroke-linejoin="round"/>
<path d="M44.9994 70.7148H8.57087C6.20394 70.7148 4.28516 72.6336 4.28516 75.0006V111.429C4.28516 113.796 6.20394 115.715 8.57087 115.715H44.9994C47.3664 115.715 49.2852 113.796 49.2852 111.429V75.0006C49.2852 72.6336 47.3664 70.7148 44.9994 70.7148Z" stroke="#DAE7F8" stroke-width="3" stroke-linecap="round" stroke-linejoin="round"/>
<path d="M111.427 70.7148H74.9986C72.6317 70.7148 70.7129 72.6336 70.7129 75.0006V111.429C70.7129 113.796 72.6317 115.715 74.9986 115.715H111.427C113.794 115.715 115.713 113.796 115.713 111.429V75.0006C115.713 72.6336 113.794 70.7148 111.427 70.7148Z" stroke="#DAE7F8" stroke-width="3" stroke-linecap="round" stroke-linejoin="round"/>
<path d="M4.28516 30H49.2852" stroke="#DAE7F8" stroke-width="3" stroke-linecap="round" stroke-linejoin="round"/>
<path d="M70.7129 30H115.713" stroke="#DAE7F8" stroke-width="3" stroke-linecap="round" stroke-linejoin="round"/>
<path d="M70.7129 96.4287H115.713" stroke="#DAE7F8" stroke-width="3" stroke-linecap="round" stroke-linejoin="round"/>
<path d="M4.28516 96.4287H49.2852" stroke="#DAE7F8" stroke-width="3" stroke-linecap="round" stroke-linejoin="round"/>
</svg>
