<svg width="24" height="24" viewBox="0 0 24 24" fill="none" xmlns="http://www.w3.org/2000/svg">
<path d="M22.5 18.3C22.65 18.15 22.65 17.85 22.5 17.7C22.5 17.55 22.35 17.55 22.35 17.4L19.35 14.4C19.05 14.1 18.6 14.1 18.3 14.4C18 14.7 18 15.15 18.3 15.45L19.95 17.1H12.6C12.3 16.2 11.55 15.45 10.5 15.15V10.95L16.8 7.35C17.1 7.2 17.25 6.9 17.25 6.75C17.25 6.6 17.1 6.3 16.8 6.15L10.05 2.4C9.9 2.4 9.9 2.25 9.75 2.25C9.6 2.25 9.6 2.25 9.45 2.4L9.3 2.55C9.3 2.55 9.3 2.55 9.3 2.7C9 2.7 9 2.85 9 3V10.5V15.15C7.95 15.45 7.2 16.2 6.9 17.25H2.25C1.8 17.25 1.5 17.55 1.5 18C1.5 18.45 1.8 18.75 2.25 18.75H6.9C7.2 20.1 8.4 21 9.75 21C11.1 21 12.3 20.1 12.6 18.75H19.95L18.3 20.4C18 20.7 18 21.15 18.3 21.45C18.45 21.6 18.6 21.6 18.9 21.6C19.2 21.6 19.35 21.6 19.5 21.45L22.5 18.45C22.35 18.45 22.35 18.45 22.5 18.3ZM10.5 9.3V4.2L15 6.75L10.5 9.3ZM9.75 19.5C8.85 19.5 8.25 18.9 8.25 18C8.25 17.1 8.85 16.5 9.75 16.5C10.65 16.5 11.25 17.1 11.25 18C11.25 18.9 10.65 19.5 9.75 19.5Z" fill="#000104"/>
</svg>
