<svg width="24" height="24" viewBox="0 0 24 24" fill="none" xmlns="http://www.w3.org/2000/svg">
<path d="M21.9 2.1C21.45 1.8 20.85 1.5 20.25 1.5H7.5C6.9 1.5 6.3 1.8 5.85 2.1C5.4 2.4 5.25 3.15 5.25 3.75V9C5.25 9.45 5.55 9.75 6 9.75C6.45 9.75 6.75 9.45 6.75 9V7.5H21V15.75C21 15.9 20.85 16.2 20.85 16.35C20.85 16.5 20.4 16.5 20.25 16.5H18C17.55 16.5 17.25 16.8 17.25 17.25C17.25 17.7 17.55 18 18 18H20.25C20.85 18 21.45 17.7 21.9 17.4C22.35 17.1 22.5 16.35 22.5 15.75V3.75C22.5 3.15 22.2 2.55 21.9 2.1ZM6.75 6V3.75C6.75 3.6 6.9 3.3 6.9 3.15C6.9 3 7.35 3 7.5 3H20.25C20.4 3 20.7 3.15 20.85 3.15C20.85 3.3 21 3.6 21 3.75V6H6.75Z" fill="#000104"/>
<path d="M12.75 12H3.75C2.55 12 1.5 13.05 1.5 14.25V20.25C1.5 21.45 2.55 22.5 3.75 22.5H12.75C13.95 22.5 15 21.45 15 20.25V14.25C15 13.05 13.95 12 12.75 12ZM3.75 13.5H12.75C13.2 13.5 13.5 13.8 13.5 14.25V15.75H3V14.25C3 13.8 3.3 13.5 3.75 13.5ZM12.75 21H3.75C3.3 21 3 20.7 3 20.25V17.25H13.5V20.25C13.5 20.7 13.2 21 12.75 21Z" fill="#000104"/>
</svg>
