<svg width="24" height="24" viewBox="0 0 24 24" fill="none" xmlns="http://www.w3.org/2000/svg">
<path d="M20.25 1.5H3.75C2.55 1.5 1.5 2.55 1.5 3.75V12.75C1.5 13.95 2.55 15 3.75 15H20.25C21.45 15 22.5 13.95 22.5 12.75V3.75C22.5 2.55 21.45 1.5 20.25 1.5ZM21 12.75C21 13.2 20.7 13.5 20.25 13.5H3.75C3.3 13.5 3 13.2 3 12.75V3.75C3 3.3 3.3 3 3.75 3H20.25C20.7 3 21 3.3 21 3.75V12.75Z" fill="#000104"/>
<path d="M12 5.25C10.35 5.25 9 6.6 9 8.25C9 9.9 10.35 11.25 12 11.25C13.65 11.25 15 9.9 15 8.25C15 6.6 13.65 5.25 12 5.25ZM12 9.75C11.1 9.75 10.5 9.15 10.5 8.25C10.5 7.35 11.1 6.75 12 6.75C12.9 6.75 13.5 7.35 13.5 8.25C13.5 9.15 12.9 9.75 12 9.75Z" fill="#000104"/>
<path d="M20.25 17.25H3.75C3.3 17.25 3 17.55 3 18C3 18.45 3.3 18.75 3.75 18.75H20.25C20.7 18.75 21 18.45 21 18C21 17.55 20.7 17.25 20.25 17.25Z" fill="#000104"/>
<path d="M18.75 21H5.25C4.8 21 4.5 21.3 4.5 21.75C4.5 22.2 4.8 22.5 5.25 22.5H18.75C19.2 22.5 19.5 22.2 19.5 21.75C19.5 21.3 19.2 21 18.75 21Z" fill="#000104"/>
<path d="M6 7.19922C5.85 7.19922 5.85 7.19922 5.7 7.19922C5.55 7.19922 5.55 7.19922 5.4 7.19922C4.95 7.34922 4.5 7.79922 4.5 8.24922C4.5 8.69922 4.8 9.14922 5.4 9.29922C5.55 9.29922 5.55 9.29922 5.7 9.29922C5.85 9.29922 5.85 9.29922 6 9.29922C6.45 9.14922 6.9 8.69922 6.9 8.24922C6.9 7.79922 6.45 7.34922 6 7.19922Z" fill="#000104"/>
<path d="M18.5996 7.19922C18.4496 7.19922 18.4496 7.19922 18.2996 7.19922C18.1496 7.19922 18.1496 7.19922 17.9996 7.19922C17.5496 7.34922 17.0996 7.79922 17.0996 8.24922C17.0996 8.69922 17.3996 9.14922 17.9996 9.29922C18.1496 9.29922 18.1496 9.29922 18.2996 9.29922C18.4496 9.29922 18.4496 9.29922 18.5996 9.29922C19.0496 9.14922 19.4996 8.69922 19.4996 8.24922C19.4996 7.79922 19.0496 7.34922 18.5996 7.19922Z" fill="#000104"/>
</svg>
