<svg width="30" height="30" viewBox="0 0 30 30" fill="none" xmlns="http://www.w3.org/2000/svg">
<g clip-path="url(#clip0_5638_90944)">
<path d="M20.8933 6.42969H9.10756C8.51583 6.42969 8.03613 6.90939 8.03613 7.50112V27.5904C8.03613 28.182 8.51583 28.6618 9.10756 28.6618H20.8933C21.4849 28.6618 21.9647 28.182 21.9647 27.5904V7.50112C21.9647 6.90939 21.4849 6.42969 20.8933 6.42969Z" stroke="#C07300" stroke-width="2" stroke-linecap="round" stroke-linejoin="round"/>
<path d="M15.0008 20.2243C16.4802 20.2243 17.6794 19.0251 17.6794 17.5458C17.6794 16.0664 16.4802 14.8672 15.0008 14.8672C13.5215 14.8672 12.3223 16.0664 12.3223 17.5458C12.3223 19.0251 13.5215 20.2243 15.0008 20.2243Z" stroke="#C07300" stroke-width="2" stroke-linecap="round" stroke-linejoin="round"/>
<path d="M4.0841 9.82142H2.29782C2.01706 9.82142 1.74782 9.70854 1.5493 9.50762C1.35078 9.30669 1.23926 9.03416 1.23926 8.75V2.32142C1.23926 2.03727 1.35078 1.76475 1.5493 1.56381C1.74782 1.36288 2.01706 1.25 2.29782 1.25H27.7031C27.9838 1.25 28.2529 1.36288 28.4516 1.56381C28.65 1.76475 28.7616 2.03727 28.7616 2.32142V8.75C28.7616 9.03416 28.65 9.30669 28.4516 9.50762C28.2529 9.70854 27.9838 9.82142 27.7031 9.82142H25.9168" stroke="#C07300" stroke-width="2" stroke-linecap="round" stroke-linejoin="round"/>
<path d="M15.0003 11.1646C14.8523 11.1646 14.7324 11.0447 14.7324 10.8968C14.7324 10.7488 14.8523 10.6289 15.0003 10.6289" stroke="#C07300" stroke-width="2" stroke-linecap="round" stroke-linejoin="round"/>
<path d="M15 11.1646C15.1479 11.1646 15.2679 11.0447 15.2679 10.8968C15.2679 10.7488 15.1479 10.6289 15 10.6289" stroke="#C07300" stroke-width="2" stroke-linecap="round" stroke-linejoin="round"/>
<path d="M15.0003 24.5787C14.8524 24.5787 14.7324 24.4587 14.7324 24.3108C14.7324 24.1628 14.8524 24.043 15.0003 24.043" stroke="#C07300" stroke-width="2" stroke-linecap="round" stroke-linejoin="round"/>
<path d="M15 24.5787C15.1479 24.5787 15.2679 24.4587 15.2679 24.3108C15.2679 24.1628 15.1479 24.043 15 24.043" stroke="#C07300" stroke-width="2" stroke-linecap="round" stroke-linejoin="round"/>
</g>
<defs>
<clipPath id="clip0_5638_90944">
<rect width="30" height="30" fill="white"/>
</clipPath>
</defs>
</svg>
