<svg width="24" height="24" viewBox="0 0 24 24" fill="none" xmlns="http://www.w3.org/2000/svg">
<path d="M20.25 1.5H3.75C2.55 1.5 1.5 2.55 1.5 3.75V20.25C1.5 21.45 2.55 22.5 3.75 22.5H20.25C21.45 22.5 22.5 21.45 22.5 20.25V3.75C22.5 2.55 21.45 1.5 20.25 1.5ZM3 7.5H11.25V13.5H3V7.5ZM12.75 7.5H21V13.5H12.75V7.5ZM3.75 3H20.25C20.7 3 21 3.3 21 3.75V6H3V3.75C3 3.3 3.3 3 3.75 3ZM3 20.25V15H11.25V21H3.75C3.3 21 3 20.7 3 20.25ZM20.25 21H12.75V15H21V20.25C21 20.7 20.7 21 20.25 21Z" fill="#000104"/>
</svg>
