<svg width="20" height="20" viewBox="0 0 20 20" fill="none" xmlns="http://www.w3.org/2000/svg">
<path d="M17.375 5.75L13 1.375C12.875 1.375 12.625 1.25 12.5 1.25H4.375C3.875 1.25 3.375 1.5 3 1.75C2.625 2 2.5 2.625 2.5 3.125V16.875C2.5 17.375 2.75 17.875 3 18.25C3.25 18.625 3.875 18.75 4.375 18.75H15.625C16.125 18.75 16.625 18.5 17 18.25C17.375 18 17.5 17.375 17.5 16.875V6.25C17.5 6.125 17.375 5.875 17.375 5.75ZM16.25 16.875C16.25 17 16.125 17.25 16.125 17.375C16.125 17.5 15.75 17.5 15.625 17.5H4.375C4.25 17.5 4 17.375 3.875 17.375C3.875 17.25 3.75 17 3.75 16.875V3.125C3.75 3 3.875 2.75 3.875 2.625C3.875 2.5 4.25 2.5 4.375 2.5H12.25L16.25 6.5V16.875Z" fill="black"/>
<path d="M10.625 12.25V6.875C10.625 6.5 10.375 6.25 10 6.25C9.625 6.25 9.375 6.5 9.375 6.875V12.25L8 10.75C7.75 10.5 7.375 10.5 7.125 10.75C6.875 11 6.875 11.375 7.125 11.625L9.625 14.125C9.625 14.125 9.75 14.25 9.875 14.25C10 14.25 10 14.25 10.125 14.25C10.25 14.25 10.25 14.25 10.375 14.25C10.5 14.25 10.5 14.125 10.625 14.125L13.125 11.625C13.375 11.375 13.375 11 13.125 10.75C12.875 10.5 12.5 10.5 12.25 10.75L10.625 12.25Z" fill="black"/>
</svg>
