<svg width="14" height="14" viewBox="0 0 14 14" fill="none" xmlns="http://www.w3.org/2000/svg">
<path d="M13.8984 0.3C13.8984 0.1 13.6984 0 13.4984 0H0.498437C0.298437 0 0.0984375 0.1 0.0984375 0.3C-0.0015625 0.4 -0.0015625 0.6 0.0984375 0.8L4.99844 7.7V13.5C4.99844 13.7 5.09844 13.9 5.29844 13.9C5.29844 14 5.39844 14 5.49844 14C5.59844 14 5.69844 14 5.79844 13.9L8.79844 11.9C8.89844 11.8 8.99844 11.7 8.99844 11.5V7.7L13.8984 0.8C13.9984 0.6 13.9984 0.4 13.8984 0.3ZM8.09844 7.2C7.99844 7.3 7.99844 7.4 7.99844 7.5V11.2L5.99844 12.5V7.5C5.99844 7.4 5.99844 7.3 5.89844 7.2L1.49844 1H12.5984L8.09844 7.2Z" fill="black"/>
</svg>
