<svg width="24" height="24" viewBox="0 0 24 24" fill="none" xmlns="http://www.w3.org/2000/svg">
<path d="M15.75 1.5C12 1.5 9 4.5 9 8.25C9 12 12 15 15.75 15C19.5 15 22.5 12 22.5 8.25C22.5 4.5 19.5 1.5 15.75 1.5ZM15.75 13.5C12.9 13.5 10.5 11.1 10.5 8.25C10.5 5.4 12.9 3 15.75 3C18.6 3 21 5.4 21 8.25C21 11.1 18.6 13.5 15.75 13.5Z" fill="#000104"/>
<path d="M15.75 6C15.3 6 15 6.3 15 6.75V9.75C15 10.2 15.3 10.5 15.75 10.5C16.2 10.5 16.5 10.2 16.5 9.75V6.75C16.5 6.3 16.2 6 15.75 6Z" fill="#000104"/>
<path d="M16.1999 17.25H11.2499C11.3999 16.95 11.3999 16.8 11.3999 16.5C11.3999 15.9 11.0999 15.3 10.6499 14.85L8.84985 13.05C8.24985 12.45 7.19985 12 6.29985 12H2.24985C1.79985 12 1.49985 12.3 1.49985 12.75C1.49985 13.2 1.79985 13.5 2.24985 13.5H6.29985C6.89985 13.5 7.49985 13.8 7.94985 14.1L9.74985 15.9C9.74985 16.05 9.89985 16.35 9.89985 16.5C9.89985 16.65 9.74985 16.95 9.59985 17.1C9.29985 17.4 8.69985 17.4 8.39985 17.1L7.34985 15.9C7.04985 15.6 6.59985 15.6 6.29985 15.9C5.99985 16.2 5.99985 16.65 6.29985 16.95L7.49985 18.15C7.94985 18.6 8.54985 18.9 9.14985 18.9C9.29985 18.9 9.59985 18.9 9.74985 18.75H16.3499C17.2499 18.75 18.1499 19.5 18.1499 20.55C18.1499 20.85 17.9999 21 17.6999 21H7.79985C7.19985 21 6.74985 20.85 6.29985 20.55L2.69985 17.55C2.39985 17.25 1.94985 17.4 1.64985 17.7C1.34985 18 1.49985 18.45 1.79985 18.75L5.39985 21.75C5.99985 22.35 6.89985 22.65 7.79985 22.65H17.3999C18.4499 22.65 19.3499 21.75 19.3499 20.7C19.4999 18.75 17.9999 17.25 16.1999 17.25Z" fill="#000104"/>
</svg>
