<svg width="30" height="30" viewBox="0 0 30 30" fill="none" xmlns="http://www.w3.org/2000/svg">
<path d="M27.375 6.9375C26.8125 6.375 26.0625 6.1875 25.3125 6.1875H14.8125L14.4375 4.5C14.25 3.9375 13.875 3.375 13.3125 3C12.9375 2.4375 12.1875 2.25 11.625 2.25H4.6875C3.9375 2.25 3.1875 2.625 2.625 3C2.0625 3.375 1.875 4.3125 1.875 5.25V24.9375C1.875 25.6875 2.25 26.4375 2.625 27C3 27.5625 3.9375 27.75 4.6875 27.75H25.3125C26.0625 27.75 26.8125 27.375 27.375 27C27.9375 26.625 28.125 25.6875 28.125 24.9375V9C28.125 8.0625 27.75 7.5 27.375 6.9375ZM26.25 24.75C26.25 24.9375 26.0625 25.3125 26.0625 25.5C26.0625 25.6875 25.6875 25.6875 25.3125 25.6875H4.6875C4.5 25.6875 4.125 25.5 3.9375 25.5C3.9375 25.3125 3.75 25.125 3.75 24.75V5.25C3.75 5.0625 3.9375 4.6875 3.9375 4.5C3.9375 4.3125 4.3125 4.3125 4.6875 4.3125H11.625C11.8125 4.3125 12 4.3125 12.1875 4.5C12.375 4.6875 12.5625 4.875 12.5625 5.0625L13.125 7.3125C13.3125 7.6875 13.6875 8.0625 14.0625 8.0625H25.3125C25.5 8.0625 25.875 8.25 26.0625 8.25C26.0625 8.4375 26.25 8.625 26.25 9V24.75Z" fill="#C07300"/>
</svg>
