<svg width="24" height="24" viewBox="0 0 24 24" fill="none" xmlns="http://www.w3.org/2000/svg">
<path d="M12 1.5C6.15 1.5 1.5 6.15 1.5 12C1.5 17.85 6.15 22.5 12 22.5C17.85 22.5 22.5 17.85 22.5 12C22.5 6.15 17.85 1.5 12 1.5ZM12 21C7.05 21 3 16.95 3 12C3 7.05 7.05 3 12 3C16.95 3 21 7.05 21 12C21 16.95 16.95 21 12 21Z" fill="black"/>
<path d="M14.25 15.75H12.75V11.25C12.75 10.8 12.45 10.5 12 10.5H10.5C10.05 10.5 9.75 10.8 9.75 11.25C9.75 11.7 10.05 12 10.5 12H11.25V15.75H9.75C9.3 15.75 9 16.05 9 16.5C9 16.95 9.3 17.25 9.75 17.25H14.25C14.7 17.25 15 16.95 15 16.5C15 16.05 14.7 15.75 14.25 15.75Z" fill="black"/>
<path d="M11.6998 8.55007C11.8498 8.55007 11.8498 8.55007 11.9998 8.55007C12.1498 8.55007 12.1498 8.55007 12.2998 8.55007C12.7498 8.40007 13.1998 7.95007 13.1998 7.50007C13.1998 7.05007 12.7498 6.60007 12.2998 6.45007C12.1498 6.45007 12.1498 6.45007 11.9998 6.45007C11.8498 6.45007 11.8498 6.45007 11.6998 6.45007C11.2498 6.60007 10.7998 7.05007 10.7998 7.50007C10.7998 7.95007 11.2498 8.40007 11.6998 8.55007Z" fill="black"/>
</svg>
