<svg width="24" height="24" viewBox="0 0 24 24" fill="none" xmlns="http://www.w3.org/2000/svg">
<path d="M1.5 8.5501C1.65 7.5001 2.25 6.4501 3 5.7001L3.6 5.1001C4.35 4.3501 5.7 4.3501 6.6 5.1001L8.85 7.5001C9.3 7.9501 9.45 8.4001 9.45 9.0001C9.45 9.6001 9.3 10.0501 8.85 10.5001C8.7 10.6501 8.7 10.8001 8.7 10.9501C8.7 11.1001 8.7 11.2501 8.85 11.4001L12.6 15.1501C12.9 15.4501 13.35 15.4501 13.5 15.1501C14.25 14.4001 15.6 14.4001 16.5 15.1501L18.9 17.5501C19.35 18.0001 19.5 18.4501 19.5 19.0501C19.5 19.6501 19.35 20.1001 18.9 20.5501L18.3 21.1501C17.55 21.9001 16.5 22.3501 15.45 22.5001C15.3 22.5001 15.15 22.5001 15 22.5001C14.1 22.5001 13.2 22.2001 12.45 21.7501C8.4 19.0501 5.1 15.7501 2.4 11.7001C1.65 10.8001 1.5 9.6001 1.5 8.5501ZM3.45 10.8001C6 14.5501 9.3 17.8501 13.05 20.4001C13.8 20.8501 14.55 21.0001 15.3 21.0001C16.05 20.8501 16.8 20.5501 17.25 20.1001L17.85 19.5001C18 19.3501 18 19.2001 18 19.0501C18 18.9001 18 18.7501 17.85 18.6001L15.45 16.2001C15.3 16.0501 15.15 16.0501 15 16.0501C14.85 16.0501 14.7 16.0501 14.55 16.2001C13.8 16.9501 12.3 16.9501 11.55 16.2001L7.65 12.3001C7.2 11.8501 7.05 11.4001 7.05 10.8001C7.05 10.2001 7.2 9.7501 7.65 9.3001C7.95 9.3001 7.95 9.1501 7.95 9.0001C7.95 8.8501 7.95 8.7001 7.8 8.5501L5.55 6.1501C5.25 5.8501 4.95 6.0001 4.65 6.1501L4.05 6.7501C3.45 7.2001 3.15 7.9501 3 8.7001C3 9.4501 3.15 10.2001 3.45 10.8001Z" fill="currentColor"/>
<path d="M15.45 3.75C14.4 3.3 13.2 3 12 3C11.55 3 11.25 2.7 11.25 2.25C11.25 1.8 11.55 1.5 12 1.5C13.35 1.5 14.7 1.8 16.05 2.25C17.4 2.7 18.45 3.6 19.35 4.65C20.25 5.7 21.15 6.75 21.75 7.95C22.35 9.15 22.5 10.65 22.5 12C22.5 12.45 22.2 12.75 21.75 12.75C21.3 12.75 21 12.45 21 12C21 10.8 20.7 9.6 20.25 8.55C19.8 7.5 19.2 6.45 18.3 5.7C17.4 4.95 16.5 4.2 15.45 3.75Z" fill="currentColor"/>
<path d="M12 5.25C13.8 5.25 15.45 6 16.8 7.2C18 8.55 18.75 10.2 18.75 12C18.75 12.45 18.45 12.75 18 12.75C17.55 12.75 17.25 12.45 17.25 12C17.25 10.65 16.65 9.3 15.75 8.25C14.7 7.2 13.5 6.75 12 6.75C11.55 6.75 11.25 6.45 11.25 6C11.25 5.55 11.55 5.25 12 5.25Z" fill="currentColor"/>
</svg>
