<svg width="24" height="24" viewBox="0 0 24 24" fill="none" xmlns="http://www.w3.org/2000/svg">
<path d="M22.35 10.9501C22.2 10.6501 22.05 10.3501 21.75 10.2001L12.45 1.6501C12.15 1.5001 11.85 1.5001 11.55 1.6501L2.25 10.2001C1.95 10.5001 1.8 10.6501 1.65 10.9501C1.5 11.2501 1.5 11.5501 1.5 11.8501V20.2501C1.5 20.8501 1.8 21.4501 2.1 21.9001C2.4 22.3501 3.15 22.5001 3.75 22.5001H20.25C20.85 22.5001 21.45 22.2001 21.9 21.9001C22.35 21.6001 22.5 20.8501 22.5 20.2501V11.8501C22.5 11.5501 22.5 11.2501 22.35 10.9501ZM21 11.8501V20.2501C21 20.4001 20.85 20.7001 20.85 20.8501C20.85 21.0001 20.4 21.0001 20.25 21.0001H12.75V15.7501C12.75 15.3001 12.45 15.0001 12 15.0001C11.55 15.0001 11.25 15.3001 11.25 15.7501V21.0001H3.75C3.6 21.0001 3.3 20.8501 3.15 20.8501C3.15 20.7001 3 20.4001 3 20.2501V11.8501C3 11.7001 3 11.7001 3 11.5501C3 11.4001 3.15 11.4001 3.15 11.2501L12 3.3001L20.7 11.4001C20.85 11.4001 20.85 11.5501 20.85 11.7001C21 11.7001 21 11.8501 21 11.8501Z" fill="currentColor"/>
</svg>
