<svg width="24" height="24" viewBox="0 0 24 24" fill="none" xmlns="http://www.w3.org/2000/svg">
<path d="M21.75 16.5C21.3 16.5 21 16.8 21 17.25V20.25C21 20.4 20.85 20.7 20.85 20.85C20.85 21 20.4 21 20.25 21H17.25C16.8 21 16.5 21.3 16.5 21.75C16.5 22.2 16.8 22.5 17.25 22.5H20.25C20.85 22.5 21.45 22.2 21.9 21.9C22.35 21.6 22.5 20.85 22.5 20.25V17.25C22.5 16.8 22.2 16.5 21.75 16.5Z" fill="black"/>
<path d="M21.9 2.1C21.45 1.8 20.85 1.5 20.25 1.5H17.25C16.8 1.5 16.5 1.8 16.5 2.25C16.5 2.7 16.8 3 17.25 3H20.25C20.4 3 20.7 3.15 20.85 3.15C20.85 3.3 21 3.6 21 3.75V6.75C21 7.2 21.3 7.5 21.75 7.5C22.2 7.5 22.5 7.2 22.5 6.75V3.75C22.5 3.15 22.2 2.55 21.9 2.1Z" fill="black"/>
<path d="M2.25 7.5C2.7 7.5 3 7.2 3 6.75V3.75C3 3.6 3.15 3.3 3.15 3.15C3.15 3 3.6 3 3.75 3H6.75C7.2 3 7.5 2.7 7.5 2.25C7.5 1.8 7.2 1.5 6.75 1.5H3.75C3.15 1.5 2.55 1.8 2.1 2.1C1.65 2.4 1.5 3.15 1.5 3.75V6.75C1.5 7.2 1.8 7.5 2.25 7.5Z" fill="black"/>
<path d="M6.75 21H3.75C3.6 21 3.3 20.85 3.15 20.85C3.15 20.7 3 20.4 3 20.25V17.25C3 16.8 2.7 16.5 2.25 16.5C1.8 16.5 1.5 16.8 1.5 17.25V20.25C1.5 20.85 1.8 21.45 2.1 21.9C2.4 22.35 3.15 22.5 3.75 22.5H6.75C7.2 22.5 7.5 22.2 7.5 21.75C7.5 21.3 7.2 21 6.75 21Z" fill="black"/>
<path d="M12 12C14.1 12 15.75 10.35 15.75 8.25C15.75 6.15 14.1 4.5 12 4.5C9.9 4.5 8.25 6.15 8.25 8.25C8.25 10.35 9.9 12 12 12ZM12 6C13.2 6 14.25 7.05 14.25 8.25C14.25 9.45 13.2 10.5 12 10.5C10.8 10.5 9.75 9.45 9.75 8.25C9.75 7.05 10.8 6 12 6Z" fill="black"/>
<path d="M5.55078 17.7001C5.55078 18.0001 5.55078 18.1501 5.70078 18.3001C5.85078 18.4501 6.00078 18.6001 6.30078 18.6001H17.7008C18.0008 18.6001 18.1508 18.4501 18.3008 18.3001C18.4508 18.1501 18.4508 17.8501 18.4508 17.7001C18.0008 16.3501 17.1008 15.3001 15.9008 14.4001C13.6508 12.7501 10.3508 12.7501 7.95078 14.4001C6.90078 15.3001 6.00078 16.3501 5.55078 17.7001ZM8.85078 15.6001C10.6508 14.2501 13.2008 14.2501 15.0008 15.6001C15.6008 16.0501 16.0508 16.6501 16.5008 17.2501H7.50078C7.80078 16.6501 8.25078 16.0501 8.85078 15.6001Z" fill="black"/>
</svg>
