<svg width="20" height="20" viewBox="0 0 20 20" fill="none" xmlns="http://www.w3.org/2000/svg">
<g clip-path="url(#clip0_3289_409)">
<path d="M14.1665 0.834679H5.83317C4.9165 0.834679 4.1665 1.58468 4.1665 2.50135V17.5013C4.1665 18.418 4.9165 19.168 5.83317 19.168H14.1665C15.0832 19.168 15.8332 18.418 15.8332 17.5013V2.50135C15.8332 1.58468 15.0832 0.834679 14.1665 0.834679ZM5.83317 3.33468V2.50135H14.1665V3.33468H5.83317ZM5.83317 15.0013V5.00134H14.1665V15.0013H5.83317ZM5.83317 17.5013V16.668H14.1665V17.5013H5.83317Z" fill="#656767"/>
<path d="M13.3332 5.83468H6.6665V7.50134H13.3332V5.83468Z" fill="#656767"/>
</g>
<defs>
<clipPath id="clip0_3289_409">
<rect width="20" height="20" fill="white" transform="translate(0 0.00134277)"/>
</clipPath>
</defs>
</svg>
