<svg width="24" height="24" viewBox="0 0 24 24" fill="none" xmlns="http://www.w3.org/2000/svg">
<path d="M21.1498 12.6003L18.2998 14.5503L15.8998 12.6003C16.4998 12.4503 17.0998 12.0003 17.3998 11.5503C17.6998 11.2503 17.5498 10.8003 17.2498 10.5003C16.9498 10.2003 16.4998 10.2003 16.1998 10.6503C16.0498 10.8003 15.5998 11.2503 14.9998 11.2503C14.6998 11.2503 14.2498 11.2503 13.7998 10.9503L13.6498 10.8003C13.6498 10.8003 13.6498 10.8003 13.4998 10.8003C13.4998 10.6503 13.3498 10.6503 13.3498 10.6503H13.1998C13.0498 10.6503 12.8998 10.6503 12.8998 10.8003L10.9498 12.1503C10.4998 12.4503 9.89977 12.4503 9.44977 12.0003C9.14977 11.5503 9.29977 10.9503 9.59977 10.5003L11.5498 8.85025C12.2998 8.25025 13.3498 7.95025 14.3998 7.95025L17.3998 8.25025C17.5498 8.25025 17.6998 8.25025 17.8498 8.10025L21.8998 5.85025C22.1998 5.70025 22.3498 5.25025 22.1998 4.80025C22.0498 4.50025 21.5998 4.35025 21.1498 4.50025L17.2498 6.60025H14.5498C13.4998 6.45025 12.2998 6.75025 11.3998 7.35025C10.4998 6.75025 9.44977 6.45025 8.39977 6.60025L5.69977 7.05025L2.69977 5.40025C2.39977 5.25025 1.94977 5.40025 1.64977 5.70025C1.49977 6.15025 1.64977 6.60025 1.94977 6.75025L5.24977 8.55025C5.39977 8.70025 5.54977 8.70025 5.69977 8.70025L8.69977 8.25025C9.14977 8.10025 9.59977 8.25025 10.0498 8.40025L8.69977 9.45025C7.64977 10.3503 7.49977 11.8503 8.24977 12.9003C9.14977 13.9503 10.6498 14.2503 11.6998 13.3503L13.0498 12.3003L16.9498 15.4503L13.1998 18.1503C12.4498 18.7503 11.3998 18.7503 10.6498 18.1503L2.69977 12.6003C2.39977 12.4503 1.94977 12.6003 1.64977 12.9003C1.49977 13.2003 1.49977 13.6503 1.94977 13.9503L9.89977 19.3503C10.4998 19.8003 11.2498 20.1003 11.9998 20.1003C12.7498 20.1003 13.4998 19.8003 14.0998 19.3503L18.5998 16.2003L21.8998 13.9503C22.1998 13.6503 22.3498 13.2003 22.0498 12.9003C22.0498 12.4503 21.4498 12.4503 21.1498 12.6003Z" fill="#000104"/>
</svg>
