<svg width="20" height="20" viewBox="0 0 20 20" fill="none" xmlns="http://www.w3.org/2000/svg">
<path d="M10 1.25C5.125 1.25 1.25 5.125 1.25 10C1.25 14.875 5.125 18.75 10 18.75C14.875 18.75 18.75 14.875 18.75 10C18.75 5.125 14.875 1.25 10 1.25ZM10 17.5C5.875 17.5 2.5 14.125 2.5 10C2.5 5.875 5.875 2.5 10 2.5C14.125 2.5 17.5 5.875 17.5 10C17.5 14.125 14.125 17.5 10 17.5Z" />
<path d="M11.875 13.125H10.625V9.375C10.625 9 10.375 8.75 10 8.75H8.75C8.375 8.75 8.125 9 8.125 9.375C8.125 9.75 8.375 10 8.75 10H9.375V13.125H8.125C7.75 13.125 7.5 13.375 7.5 13.75C7.5 14.125 7.75 14.375 8.125 14.375H11.875C12.25 14.375 12.5 14.125 12.5 13.75C12.5 13.375 12.25 13.125 11.875 13.125Z" />
<path d="M9.75 7.125C9.875 7.125 9.875 7.125 10 7.125C10.125 7.125 10.125 7.125 10.25 7.125C10.625 7 11 6.625 11 6.25C11 5.875 10.625 5.5 10.25 5.375C10.125 5.375 10.125 5.375 10 5.375C9.875 5.375 9.875 5.375 9.75 5.375C9.375 5.5 9 5.875 9 6.25C9 6.625 9.375 7 9.75 7.125Z" />
</svg>
