<svg width="24" height="24" viewBox="0 0 24 24" fill="none" xmlns="http://www.w3.org/2000/svg">
<path d="M21.75 18H21.45V6H21.75C22.2 6 22.5 5.7 22.5 5.25C22.5 4.8 22.2 4.5 21.75 4.5H20.55H3.3H2.25C1.8 4.5 1.5 4.8 1.5 5.25C1.5 5.7 1.8 6 2.25 6H2.55V18H2.25C1.8 18 1.5 18.3 1.5 18.75C1.5 19.2 1.8 19.5 2.25 19.5H3.45H20.7H21.9C22.35 19.5 22.65 19.2 22.65 18.75C22.65 18.3 22.2 18 21.75 18ZM4.2 18V6H19.95V18H4.2Z" fill="#000104"/>
<path d="M7.5 8.25C7.05 8.25 6.75 8.55 6.75 9V15C6.75 15.45 7.05 15.75 7.5 15.75C7.95 15.75 8.25 15.45 8.25 15V9C8.25 8.55 7.95 8.25 7.5 8.25Z" fill="#000104"/>
<path d="M12 8.25C11.55 8.25 11.25 8.55 11.25 9V15C11.25 15.45 11.55 15.75 12 15.75C12.45 15.75 12.75 15.45 12.75 15V9C12.75 8.55 12.45 8.25 12 8.25Z" fill="#000104"/>
<path d="M16.5 8.25C16.05 8.25 15.75 8.55 15.75 9V15C15.75 15.45 16.05 15.75 16.5 15.75C16.95 15.75 17.25 15.45 17.25 15V9C17.25 8.55 16.95 8.25 16.5 8.25Z" fill="#000104"/>
</svg>
