<svg width="24" height="24" viewBox="0 0 24 24" fill="none" xmlns="http://www.w3.org/2000/svg">
<path d="M6 12H13.5C13.95 12 14.25 11.7 14.25 11.25C14.25 10.8 13.95 10.5 13.5 10.5H6C5.55 10.5 5.25 10.8 5.25 11.25C5.25 11.7 5.55 12 6 12Z" fill="#000104"/>
<path d="M21.6 2.4C21 1.8 20.25 1.5 19.5 1.5H5.25C4.2 1.5 3.3 1.95 2.55 2.55C1.8 3.15 1.5 4.2 1.5 5.25V21.75C1.5 22.05 1.65 22.2 1.95 22.35C2.25 22.5 2.4 22.5 2.7 22.35L6 20.4L9.3 22.35C9.6 22.5 9.9 22.5 10.05 22.35L13.5 20.4L16.8 22.35C16.95 22.35 17.1 22.5 17.25 22.5C17.4 22.5 17.55 22.5 17.55 22.35C17.85 22.2 18 21.9 18 21.75V10.5H21.75C22.2 10.5 22.5 10.2 22.5 9.75V4.5C22.5 3.75 22.2 3 21.6 2.4ZM16.5 4.5V20.4L13.95 18.9C13.65 18.75 13.35 18.75 13.2 18.9L9.9 20.85L6.6 18.9C6.45 18.9 6.3 18.75 6.15 18.75C6 18.75 5.85 18.75 5.7 18.9L3.15 20.4V5.25C3.15 4.65 3.45 4.05 3.75 3.6C4.05 3.15 4.65 3 5.25 3H16.95C16.65 3.45 16.5 3.9 16.5 4.5ZM21 9H18V4.5C18 4.05 18.15 3.75 18.45 3.45C19.05 2.85 19.95 2.85 20.55 3.45C20.85 3.75 21 4.05 21 4.5V9Z" fill="#000104"/>
</svg>
