<svg width="17" height="16" viewBox="0 0 17 16" fill="none" xmlns="http://www.w3.org/2000/svg">
<path d="M14 2.5H3C2.2 2.5 1.5 3.2 1.5 4V12C1.5 12.8 2.2 13.5 3 13.5H14C14.8 13.5 15.5 12.8 15.5 12V4C15.5 3.2 14.8 2.5 14 2.5ZM3 3.5H14C14.3 3.5 14.5 3.7 14.5 4V9.3C13.9 9.1 13.2 9 12.6 9C11.6 9 10.6 9.2 9.6 9.6C9.2 9.2 8.8 8.8 8.4 8.4C7 7.3 5.2 6.7 3.4 6.7C3.1 6.7 2.8 6.7 2.5 6.7V4C2.5 3.7 2.7 3.5 3 3.5ZM2.5 12V7.8C2.8 7.8 3.1 7.7 3.4 7.7C5 7.7 6.5 8.2 7.7 9.2C8.8 10.1 9.5 11.2 9.9 12.5H3C2.7 12.5 2.5 12.3 2.5 12ZM14 12.5H11C10.8 11.8 10.5 11.1 10.2 10.5C10.9 10.2 11.7 10 12.5 10C13.2 10 13.8 10.1 14.4 10.3V12C14.5 12.3 14.3 12.5 14 12.5Z" fill="#000104"/>
<path d="M10.9998 7.70078C11.9998 7.70078 12.6998 6.90078 12.6998 6.00078C12.6998 5.10078 11.8998 4.30078 10.9998 4.30078C10.0998 4.30078 9.2998 5.00078 9.2998 6.00078C9.2998 7.00078 9.9998 7.70078 10.9998 7.70078ZM10.9998 5.20078C11.3998 5.20078 11.6998 5.50078 11.6998 5.90078C11.6998 6.30078 11.3998 6.70078 10.9998 6.70078C10.5998 6.70078 10.2998 6.40078 10.2998 6.00078C10.2998 5.60078 10.5998 5.20078 10.9998 5.20078Z" fill="#000104"/>
</svg>
