<svg width="17" height="16" viewBox="0 0 17 16" fill="none" xmlns="http://www.w3.org/2000/svg">
<path d="M15 7.50084H6.2L8.8 4.90084C9 4.70084 9 4.40084 8.8 4.20084C8.6 4.00084 8.3 4.00084 8.1 4.10084L4.6 7.60084C4.6 7.60084 4.5 7.70084 4.5 7.80084C4.5 7.90084 4.5 8.10084 4.5 8.20084C4.5 8.30084 4.6 8.30084 4.6 8.40084L8.1 11.9008C8.2 12.0008 8.4 12.0008 8.5 12.0008C8.6 12.0008 8.8 12.0008 8.9 11.9008C9.1 11.7008 9.1 11.4008 8.9 11.2008L6.2 8.50084H15C15.3 8.50084 15.5 8.30084 15.5 8.00084C15.5 7.70084 15.3 7.50084 15 7.50084Z" fill="#000104"/>
<path d="M2 4C1.7 4 1.5 4.2 1.5 4.5V11.5C1.5 11.8 1.7 12 2 12C2.3 12 2.5 11.8 2.5 11.5V4.5C2.5 4.2 2.3 4 2 4Z" fill="#000104"/>
</svg>
