<svg width="17" height="16" viewBox="0 0 17 16" fill="none" xmlns="http://www.w3.org/2000/svg">
<path d="M8.5 7C7.9 7 7.5 7.4 7.5 8C7.5 8.6 7.9 9 8.5 9C9.1 9 9.5 8.6 9.5 8C9.5 7.4 9.1 7 8.5 7Z" fill="#000104"/>
<path d="M15 7.5H13.4C13.2 5.1 11.3 3.3 9 3.1V1.5C9 1.2 8.8 1 8.5 1C8.2 1 8 1.2 8 1.5V3.1C5.6 3.3 3.8 5.1 3.6 7.5H2C1.7 7.5 1.5 7.7 1.5 8C1.5 8.3 1.7 8.5 2 8.5H3.6C3.8 10.9 5.7 12.7 8 12.9V14.5C8 14.8 8.2 15 8.5 15C8.8 15 9 14.8 9 14.5V12.9C11.4 12.7 13.2 10.8 13.4 8.5H15C15.3 8.5 15.5 8.3 15.5 8C15.5 7.7 15.3 7.5 15 7.5ZM8.5 12C6.3 12 4.5 10.2 4.5 8C4.5 5.8 6.3 4 8.5 4C10.7 4 12.5 5.8 12.5 8C12.5 10.2 10.7 12 8.5 12Z" fill="#000104"/>
</svg>
