<svg width="20" height="20" viewBox="0 0 20 20" fill="none" xmlns="http://www.w3.org/2000/svg">
<path d="M9.625 16.125C9.75 16.25 9.875 16.25 10 16.25C10.125 16.25 10.25 16.25 10.375 16.125C10.625 15.875 16.25 11.5 16.25 7.5C16.25 4.125 13.375 1.25 10 1.25C6.625 1.25 3.75 4.125 3.75 7.5C3.75 11.5 9.375 15.875 9.625 16.125ZM10 2.5C12.75 2.5 15 4.75 15 7.5C15 10.375 11.25 13.75 10 14.875C8.25 13.375 5 10.125 5 7.5C5 4.75 7.25 2.5 10 2.5Z" fill="#2161B2"/>
<path d="M12.5 7.5C12.5 6.125 11.375 5 10 5C8.625 5 7.5 6.125 7.5 7.5C7.5 8.875 8.625 10 10 10C11.375 10 12.5 8.875 12.5 7.5ZM8.75 7.5C8.75 6.75 9.25 6.25 10 6.25C10.75 6.25 11.25 6.75 11.25 7.5C11.25 8.25 10.75 8.75 10 8.75C9.25 8.75 8.75 8.25 8.75 7.5Z" fill="#2161B2"/>
<path d="M18.75 17.875L16.875 13.5C16.75 13.25 16.5 13.125 16.25 13.125H15.125C14.75 13.125 14.5 13.375 14.5 13.75C14.5 14.125 14.75 14.375 15.125 14.375H15.875L17.25 17.5H2.875L4.25 14.375H5C5.375 14.375 5.625 14.125 5.625 13.75C5.625 13.375 5.25 13.125 4.875 13.125H3.75C3.5 13.125 3.25 13.25 3.125 13.5L1.25 17.875C1.125 18.125 1.125 18.25 1.25 18.5C1.5 18.625 1.625 18.75 1.875 18.75H18.125C18.375 18.75 18.5 18.625 18.625 18.5C18.75 18.25 18.75 18.125 18.75 17.875Z" fill="#2161B2"/>
</svg>
