<svg width="20" height="20" viewBox="0 0 20 20" fill="none" xmlns="http://www.w3.org/2000/svg">
<path d="M13.125 13.75C12.75 13.75 12.5 14 12.5 14.375V16.875C12.5 17 12.375 17.25 12.375 17.375C12.375 17.5 12 17.5 11.875 17.5H3.125C3 17.5 2.75 17.375 2.625 17.375C2.625 17.25 2.5 17 2.5 16.875V3.125C2.5 3 2.625 2.75 2.625 2.625C2.625 2.5 3 2.5 3.125 2.5H11.875C12 2.5 12.25 2.625 12.375 2.625C12.375 2.75 12.5 3 12.5 3.125V5.625C12.5 6 12.75 6.25 13.125 6.25C13.5 6.25 13.75 6 13.75 5.625V3.125C13.75 2.625 13.5 2.125 13.25 1.75C13 1.375 12.375 1.25 11.875 1.25H3.125C2.625 1.25 2.125 1.5 1.75 1.75C1.375 2 1.25 2.625 1.25 3.125V16.875C1.25 17.375 1.5 17.875 1.75 18.25C2 18.625 2.625 18.75 3.125 18.75H11.875C12.375 18.75 12.875 18.5 13.25 18.25C13.625 18 13.75 17.375 13.75 16.875V14.375C13.75 14 13.5 13.75 13.125 13.75Z" fill="black"/>
<path d="M18.75 10.25C18.75 10.125 18.75 9.875 18.75 9.75C18.75 9.625 18.625 9.625 18.625 9.5L16.125 7C15.875 6.75 15.5 6.75 15.25 7C15 7.25 15 7.625 15.25 7.875L16.625 9.25H9.375C9 9.375 8.75 9.625 8.75 10C8.75 10.375 9 10.625 9.375 10.625H16.625L15.25 12C15 12.25 15 12.625 15.25 12.875C15.375 13 15.5 13 15.75 13C16 13 16.125 13 16.25 12.875L18.75 10.375C18.625 10.375 18.625 10.375 18.75 10.25Z" fill="black"/>
</svg>
