<svg width="24" height="24" viewBox="0 0 24 24" fill="none" xmlns="http://www.w3.org/2000/svg">
<g clip-path="url(#clip0_1343_32500)">
<path d="M9.99507 1.71099C11.1892 0.739567 12.9012 0.739567 14.0953 1.71099L14.6658 2.17506L15.3919 2.05841C16.9118 1.81421 18.3944 2.67018 18.9428 4.10854L19.205 4.79569L19.892 5.0577C21.3303 5.60616 22.1864 7.08877 21.9421 8.60864L21.8254 9.33474L22.2896 9.90522C23.2609 11.0994 23.2609 12.8113 22.2896 14.0055L21.8254 14.576L21.9421 15.3021C22.1864 16.8219 21.3303 18.3045 19.892 18.8531L19.205 19.115L18.9428 19.8021C18.3944 21.2406 16.9118 22.0965 15.3919 21.8522L14.6658 21.7357L14.0953 22.1997C12.9012 23.1712 11.1892 23.1712 9.99507 22.1997L9.42457 21.7357L8.69849 21.8522C7.17862 22.0965 5.696 21.2406 5.14755 19.8021L4.88552 19.115L4.19838 18.8531C2.76003 18.3045 1.90405 16.8219 2.14825 15.3021L2.26491 14.576L1.80083 14.0055C0.829409 12.8113 0.829409 11.0994 1.80083 9.90522L2.26491 9.33474L2.14825 8.60864C1.90405 7.08877 2.76003 5.60616 4.19838 5.0577L4.88552 4.79569L5.14755 4.10854C5.696 2.67018 7.17862 1.81421 8.69849 2.05841L9.42457 2.17506L9.99507 1.71099Z" stroke="black" stroke-width="1.5" stroke-linecap="round" stroke-linejoin="round"/>
<path d="M7.75977 16.2413L16.3312 7.66992" stroke="black" stroke-width="1.5" stroke-linecap="round" stroke-linejoin="round"/>
<path d="M8.61691 9.38421C9.09029 9.38421 9.47405 9.00045 9.47405 8.52706C9.47405 8.05368 9.09029 7.66992 8.61691 7.66992C8.14353 7.66992 7.75977 8.05368 7.75977 8.52706C7.75977 9.00045 8.14353 9.38421 8.61691 9.38421Z" stroke="black" stroke-width="1.5" stroke-linecap="round" stroke-linejoin="round"/>
<path d="M15.4743 16.2407C15.9477 16.2407 16.3315 15.8569 16.3315 15.3835C16.3315 14.9101 15.9477 14.5264 15.4743 14.5264C15.0009 14.5264 14.6172 14.9101 14.6172 15.3835C14.6172 15.8569 15.0009 16.2407 15.4743 16.2407Z" stroke="black" stroke-width="1.5" stroke-linecap="round" stroke-linejoin="round"/>
</g>
<defs>
<clipPath id="clip0_1343_32500">
<rect width="24" height="24" fill="white"/>
</clipPath>
</defs>
</svg>
