<svg width="24" height="24" viewBox="0 0 24 24" fill="none" xmlns="http://www.w3.org/2000/svg">
<path d="M20.25 13.5C19.8 13.5 19.5 13.8 19.5 14.25V21H14.25V14.25C14.25 13.8 13.95 13.5 13.5 13.5C13.05 13.5 12.75 13.8 12.75 14.25V15.75H4.5V14.25C4.5 13.8 4.2 13.5 3.75 13.5C3.3 13.5 3 13.8 3 14.25V21C3 21.45 3.15 21.75 3.45 22.05C3.75 22.35 4.05 22.5 4.5 22.5H19.5C19.95 22.5 20.25 22.35 20.55 22.05C20.85 21.75 21 21.45 21 21V14.25C21 13.8 20.7 13.5 20.25 13.5ZM4.5 17.25H12.75V21H4.5V17.25Z" fill="#000104"/>
<path d="M22.5 7.2L20.25 1.95C20.1 1.65 19.8 1.5 19.5 1.5H4.5C4.2 1.5 3.9 1.65 3.75 1.95L1.5 7.2C1.5 7.35 1.5 7.35 1.5 7.5V9C1.5 10.05 1.95 10.95 2.55 11.7C3.15 12.45 4.2 12.75 5.25 12.75H5.7C6.75 12.75 7.65 12.3 8.4 11.7C8.55 11.55 8.55 11.4 8.7 11.25C8.7 11.4 8.85 11.55 9 11.7C9.75 12.45 10.65 12.75 11.7 12.75H12.45C13.5 12.75 14.4 12.3 15.15 11.7C15.3 11.55 15.45 11.4 15.45 11.25C15.6 11.4 15.6 11.55 15.75 11.7C16.5 12.45 17.4 12.75 18.45 12.75H18.75C19.8 12.75 20.7 12.3 21.45 11.7C22.2 11.1 22.5 10.05 22.5 9V7.5C22.5 7.35 22.5 7.35 22.5 7.2ZM4.95 3H18.9L20.55 6.75H3.45L4.95 3ZM7.2 10.65C6.9 10.95 6.3 11.25 5.7 11.25H5.25C4.65 11.25 4.05 10.95 3.6 10.65C3.15 10.35 3 9.6 3 9V8.25H7.8V9C7.8 9.15 7.8 9.15 7.8 9.3C7.8 9.75 7.65 10.2 7.2 10.65ZM13.95 10.65C13.5 10.95 12.9 11.25 12.3 11.25H11.7C11.1 11.25 10.5 10.95 10.05 10.65C9.6 10.2 9.45 9.75 9.45 9.3C9.45 9.15 9.45 9.15 9.45 9V8.25H14.7V9C14.7 9.6 14.4 10.2 13.95 10.65ZM20.4 10.65C19.95 11.1 19.35 11.25 18.75 11.25H18.45C17.85 11.25 17.25 10.95 16.8 10.65C16.35 10.35 16.2 9.6 16.2 9V8.25H21V9C21 9.6 20.7 10.2 20.4 10.65Z" fill="#000104"/>
</svg>
