<svg width="24" height="24" viewBox="0 0 24 24" fill="none" xmlns="http://www.w3.org/2000/svg">
<path d="M22.35 6.9L17.1 1.65C16.95 1.65 16.65 1.5 16.5 1.5H6.75C6.15 1.5 5.55 1.8 5.1 2.1C4.65 2.4 4.5 3.15 4.5 3.75V9C4.5 9.45 4.8 9.75 5.25 9.75C5.7 9.75 6 9.45 6 9V3.75C6 3.6 6.15 3.3 6.15 3.15C6.15 3 6.6 3 6.75 3H16.2L21 7.8V20.25C21 20.4 20.85 20.7 20.85 20.85C20.85 21 20.4 21 20.25 21H12.75C12.3 21 12 21.3 12 21.75C12 22.2 12.3 22.5 12.75 22.5H20.25C20.85 22.5 21.45 22.2 21.9 21.9C22.35 21.6 22.5 20.85 22.5 20.25V7.5C22.5 7.35 22.35 7.05 22.35 6.9Z" fill="black"/>
<path d="M11.25 16.5H7.5V12.75C7.5 12.3 7.2 12 6.75 12C6.3 12 6 12.3 6 12.75V16.5H2.25C1.8 16.5 1.5 16.8 1.5 17.25C1.5 17.7 1.8 18 2.25 18H6V21.75C6 22.2 6.3 22.5 6.75 22.5C7.2 22.5 7.5 22.2 7.5 21.75V18H11.25C11.7 18 12 17.7 12 17.25C12 16.8 11.7 16.5 11.25 16.5Z" fill="black"/>
</svg>
