<svg width="16" height="16" viewBox="0 0 16 16" fill="none" xmlns="http://www.w3.org/2000/svg">
<path d="M14.7999 6.69922C14.6999 6.49922 14.5999 6.39922 14.4999 6.19922L13.1999 4.89922C13.0999 4.79922 12.8999 4.59922 12.6999 4.59922C12.2999 4.39922 11.8999 4.39922 11.4999 4.59922C11.2999 4.69922 11.0999 4.79922 10.9999 4.89922L4.7999 11.0992C4.6999 11.1992 4.6999 11.2992 4.6999 11.3992L4.3999 14.3992C4.3999 14.4992 4.3999 14.6992 4.4999 14.7992C4.6999 14.8992 4.7999 14.9992 4.8999 14.9992L7.8999 14.6992C7.9999 14.6992 8.0999 14.5992 8.1999 14.5992L14.3999 8.39922C14.4999 8.29922 14.6999 8.09922 14.6999 7.89922C14.7999 7.69922 14.7999 7.49922 14.7999 7.29922C14.7999 7.09922 14.8999 6.89922 14.7999 6.69922ZM13.8999 7.39922C13.8999 7.49922 13.7999 7.49922 13.7999 7.59922L7.6999 13.6992L5.4999 13.8992L5.6999 11.6992L11.7999 5.59922C11.7999 5.59922 11.8999 5.49922 11.9999 5.49922C12.0999 5.39922 12.2999 5.39922 12.3999 5.49922C12.4999 5.49922 12.4999 5.59922 12.5999 5.59922L13.8999 6.89922C13.8999 6.89922 13.9999 6.99922 13.9999 7.09922C13.9999 7.19922 13.9999 7.19922 13.9999 7.29922C13.8999 7.29922 13.8999 7.39922 13.8999 7.39922Z" fill="#194A87"/>
<path d="M4.7001 8.3C5.1001 8.3 5.4001 8 5.5001 7.7V7.6C5.7001 6.5 6.6001 5.7 7.7001 5.5C8.1001 5.4 8.4001 5.1 8.4001 4.7C8.4001 4.3 8.1001 4 7.7001 3.9C6.6001 3.7 5.8001 2.9 5.5001 1.8V1.7C5.5001 1.3 5.1001 1 4.7001 1C4.3001 1 4.0001 1.3 3.9001 1.8C3.7001 2.9 2.8001 3.7 1.8001 3.9C1.4001 3.9 1.1001 4.3 1.1001 4.7C1.1001 5.1 1.4001 5.4 1.8001 5.5C2.9001 5.7 3.7001 6.5 4.0001 7.7C4.0001 8 4.3001 8.3 4.7001 8.3ZM2.6001 4.7C3.6001 4.3 4.4001 3.6 4.8001 2.5C5.2001 3.5 6.0001 4.3 7.0001 4.7C5.9001 5 5.1001 5.8 4.7001 6.8C4.4001 5.8 3.6001 5 2.6001 4.7Z" fill="#194A87"/>
</svg>
