<svg width="24" height="24" viewBox="0 0 24 24" fill="none" xmlns="http://www.w3.org/2000/svg">
<path d="M15 4.5H6C4.8 4.5 3.75 5.55 3.75 6.75V20.25C3.75 21.45 4.8 22.5 6 22.5H15C16.2 22.5 17.25 21.45 17.25 20.25V6.75C17.25 5.55 16.2 4.5 15 4.5ZM15.75 20.25C15.75 20.7 15.45 21 15 21H6C5.55 21 5.25 20.7 5.25 20.25V6.75C5.25 6.3 5.55 6 6 6H15C15.45 6 15.75 6.3 15.75 6.75V20.25Z" fill="#000104"/>
<path d="M13.5 8.25H7.5C7.05 8.25 6.75 8.55 6.75 9C6.75 9.45 7.05 9.75 7.5 9.75H13.5C13.95 9.75 14.25 9.45 14.25 9C14.25 8.55 13.95 8.25 13.5 8.25Z" fill="#000104"/>
<path d="M13.5 12H7.5C7.05 12 6.75 12.3 6.75 12.75C6.75 13.2 7.05 13.5 7.5 13.5H13.5C13.95 13.5 14.25 13.2 14.25 12.75C14.25 12.3 13.95 12 13.5 12Z" fill="black"/>
<path d="M10.5 15.75H7.5C7.05 15.75 6.75 16.05 6.75 16.5C6.75 16.95 7.05 17.25 7.5 17.25H10.5C10.95 17.25 11.25 16.95 11.25 16.5C11.25 16.05 10.95 15.75 10.5 15.75Z" fill="black"/>
<path d="M19.65 2.1C19.2 1.8 18.6 1.5 18 1.5H8.25C7.8 1.5 7.5 1.8 7.5 2.25C7.5 2.7 7.8 3 8.25 3H18C18.15 3 18.45 3.15 18.6 3.15C18.75 3.3 18.75 3.45 18.75 3.75V18C18.75 18.45 19.05 18.75 19.5 18.75C19.95 18.75 20.25 18.45 20.25 18V3.75C20.25 3.15 19.95 2.55 19.65 2.1Z" fill="black"/>
</svg>
