<svg width="30" height="30" viewBox="0 0 30 30" fill="none" xmlns="http://www.w3.org/2000/svg">
<g clip-path="url(#clip0_6395_87471)">
<path d="M22.7146 9.21624C24.8448 9.21624 26.5717 7.48934 26.5717 5.3591C26.5717 3.22885 24.8448 1.50195 22.7146 1.50195C20.5843 1.50195 18.8574 3.22885 18.8574 5.3591C18.8574 7.48934 20.5843 9.21624 22.7146 9.21624Z" stroke="#C07300" stroke-width="2" stroke-linecap="round" stroke-linejoin="round"/>
<path d="M28.5005 18.859V16.9304C28.5005 13.7349 25.9102 11.1445 22.7148 11.1445C20.5358 11.1445 18.6382 12.3491 17.6514 14.1285" stroke="#C07300" stroke-width="2" stroke-linecap="round" stroke-linejoin="round"/>
<path d="M7.28585 9.21624C9.41609 9.21624 11.143 7.48934 11.143 5.3591C11.143 3.22885 9.41609 1.50195 7.28585 1.50195C5.15561 1.50195 3.42871 3.22885 3.42871 5.3591C3.42871 7.48934 5.15561 9.21624 7.28585 9.21624Z" stroke="#C07300" stroke-width="2" stroke-linecap="round" stroke-linejoin="round"/>
<path d="M1.5 18.859V16.9304C1.5 13.7349 4.09041 11.1445 7.28584 11.1445C9.46481 11.1445 11.3624 12.3491 12.3492 14.1285" stroke="#C07300" stroke-width="2" stroke-linecap="round" stroke-linejoin="round"/>
<path d="M15.0027 20.7826C17.1329 20.7826 18.8598 19.0557 18.8598 16.9255C18.8598 14.7953 17.1329 13.0684 15.0027 13.0684C12.8724 13.0684 11.1455 14.7953 11.1455 16.9255C11.1455 19.0557 12.8724 20.7826 15.0027 20.7826Z" stroke="#C07300" stroke-width="2" stroke-linecap="round" stroke-linejoin="round"/>
<path d="M20.7885 28.4967C20.7885 25.3012 18.198 22.7109 15.0026 22.7109C11.8072 22.7109 9.2168 25.3012 9.2168 28.4967" stroke="#C07300" stroke-width="2" stroke-linecap="round" stroke-linejoin="round"/>
</g>
<defs>
<clipPath id="clip0_6395_87471">
<rect width="30" height="30" fill="white"/>
</clipPath>
</defs>
</svg>
