<svg width="24" height="24" viewBox="0 0 24 24" fill="none" xmlns="http://www.w3.org/2000/svg">
<path d="M13.5 3.75H21.75C22.2 3.75 22.5 3.45 22.5 3C22.5 2.55 22.2 2.25 21.75 2.25H13.5C13.05 2.25 12.75 2.55 12.75 3C12.75 3.45 13.05 3.75 13.5 3.75Z" fill="black"/>
<path d="M21.75 6.75H13.5C13.05 6.75 12.75 7.05 12.75 7.5C12.75 7.95 13.05 8.25 13.5 8.25H21.75C22.2 8.25 22.5 7.95 22.5 7.5C22.5 7.05 22.2 6.75 21.75 6.75Z" fill="black"/>
<path d="M21.75 11.25H13.5C13.05 11.25 12.75 11.55 12.75 12C12.75 12.45 13.05 12.75 13.5 12.75H21.75C22.2 12.75 22.5 12.45 22.5 12C22.5 11.55 22.2 11.25 21.75 11.25Z" fill="black"/>
<path d="M21.75 20.25H13.5C13.05 20.25 12.75 20.55 12.75 21C12.75 21.45 13.05 21.75 13.5 21.75H21.75C22.2 21.75 22.5 21.45 22.5 21C22.5 20.55 22.2 20.25 21.75 20.25Z" fill="black"/>
<path d="M21.75 15.75H13.5C13.05 15.75 12.75 16.05 12.75 16.5C12.75 16.95 13.05 17.25 13.5 17.25H21.75C22.2 17.25 22.5 16.95 22.5 16.5C22.5 16.05 22.2 15.75 21.75 15.75Z" fill="black"/>
<path d="M9 2.25H3C2.1 2.25 1.5 2.85 1.5 3.75V9.75C1.5 10.65 2.1 11.25 3 11.25H9C9.9 11.25 10.5 10.65 10.5 9.75V3.75C10.5 2.85 9.9 2.25 9 2.25ZM9 9.75H3V3.75H9V9.75Z" fill="black"/>
<path d="M9 12.75H3C2.1 12.75 1.5 13.35 1.5 14.25V20.25C1.5 21.15 2.1 21.75 3 21.75H9C9.9 21.75 10.5 21.15 10.5 20.25V14.25C10.5 13.35 9.9 12.75 9 12.75ZM9 20.25H3V14.25H9V20.25Z" fill="black"/>
</svg>
