<svg width="24" height="24" viewBox="0 0 24 24" fill="none" xmlns="http://www.w3.org/2000/svg">
<path d="M12 18C11.55 18 11.25 18.3 11.25 18.75V21.75C11.25 22.2 11.55 22.5 12 22.5C12.45 22.5 12.75 22.2 12.75 21.75V18.75C12.75 18.3 12.45 18 12 18Z" fill="#000104"/>
<path d="M15.75 16.5C15.3 16.5 15 16.8 15 17.25V20.25C15 20.7 15.3 21 15.75 21C16.2 21 16.5 20.7 16.5 20.25V17.25C16.5 16.8 16.2 16.5 15.75 16.5Z" fill="#000104"/>
<path d="M8.25 16.5C7.8 16.5 7.5 16.8 7.5 17.25V20.25C7.5 20.7 7.8 21 8.25 21C8.7 21 9 20.7 9 20.25V17.25C9 16.8 8.7 16.5 8.25 16.5Z" fill="#000104"/>
<path d="M20.25 1.5H3.75C2.55 1.5 1.5 2.55 1.5 3.75V12.75C1.5 13.95 2.55 15 3.75 15H20.25C21.45 15 22.5 13.95 22.5 12.75V3.75C22.5 2.55 21.45 1.5 20.25 1.5ZM21 12.75C21 13.2 20.7 13.5 20.25 13.5H3.75C3.3 13.5 3 13.2 3 12.75V3.75C3 3.3 3.3 3 3.75 3H20.25C20.7 3 21 3.3 21 3.75V12.75Z" fill="#000104"/>
<path d="M12.0002 4.80078C10.2002 4.80078 8.7002 6.30078 8.7002 8.10078C8.7002 9.90078 10.2002 11.4008 12.0002 11.4008C13.8002 11.4008 15.3002 9.90078 15.3002 8.10078C15.3002 6.30078 13.8002 4.80078 12.0002 4.80078ZM12.0002 10.2008C10.9502 10.2008 10.2002 9.30078 10.2002 8.40078C10.2002 7.50078 10.9502 6.30078 12.0002 6.30078C13.0502 6.30078 13.8002 7.20078 13.8002 8.10078C13.8002 9.00078 13.0502 10.2008 12.0002 10.2008Z" fill="#000104"/>
<path d="M6 7.19922C5.85 7.19922 5.85 7.19922 5.7 7.19922C5.55 7.19922 5.55 7.19922 5.4 7.19922C4.95 7.34922 4.5 7.79922 4.5 8.24922C4.5 8.69922 4.8 9.14922 5.4 9.29922C5.55 9.29922 5.55 9.29922 5.7 9.29922C5.85 9.29922 5.85 9.29922 6 9.29922C6.45 9.14922 6.9 8.69922 6.9 8.24922C6.9 7.79922 6.45 7.34922 6 7.19922Z" fill="#000104"/>
<path d="M18.5996 7.19922C18.4496 7.19922 18.4496 7.19922 18.2996 7.19922C18.1496 7.19922 18.1496 7.19922 17.9996 7.19922C17.5496 7.34922 17.0996 7.79922 17.0996 8.24922C17.0996 8.69922 17.3996 9.14922 17.9996 9.29922C18.1496 9.29922 18.1496 9.29922 18.2996 9.29922C18.4496 9.29922 18.4496 9.29922 18.5996 9.29922C19.0496 9.14922 19.4996 8.69922 19.4996 8.24922C19.4996 7.79922 19.0496 7.34922 18.5996 7.19922Z" fill="#000104"/>
</svg>
