<svg width="120" height="120" viewBox="0 0 120 120" fill="none" xmlns="http://www.w3.org/2000/svg">
<path d="M44.9999 4.28564H8.57136C6.20443 4.28564 4.28564 6.20443 4.28564 8.57136V44.9999C4.28564 47.3668 6.20443 49.2856 8.57136 49.2856H44.9999C47.3668 49.2856 49.2856 47.3668 49.2856 44.9999V8.57136C49.2856 6.20443 47.3668 4.28564 44.9999 4.28564Z" stroke="#DAE7F8" stroke-width="3" stroke-linecap="round" stroke-linejoin="round"/>
<path d="M111.428 4.28564H74.9998C72.6329 4.28564 70.7141 6.20443 70.7141 8.57136V44.9999C70.7141 47.3668 72.6329 49.2856 74.9998 49.2856H111.428C113.795 49.2856 115.714 47.3668 115.714 44.9999V8.57136C115.714 6.20443 113.795 4.28564 111.428 4.28564Z" stroke="#DAE7F8" stroke-width="3" stroke-linecap="round" stroke-linejoin="round"/>
<path d="M44.9999 70.7141H8.57136C6.20443 70.7141 4.28564 72.6329 4.28564 74.9998V111.428C4.28564 113.795 6.20443 115.714 8.57136 115.714H44.9999C47.3668 115.714 49.2856 113.795 49.2856 111.428V74.9998C49.2856 72.6329 47.3668 70.7141 44.9999 70.7141Z" stroke="#DAE7F8" stroke-width="3" stroke-linecap="round" stroke-linejoin="round"/>
<path d="M111.428 70.7141H74.9998C72.6329 70.7141 70.7141 72.6329 70.7141 74.9998V111.428C70.7141 113.795 72.6329 115.714 74.9998 115.714H111.428C113.795 115.714 115.714 113.795 115.714 111.428V74.9998C115.714 72.6329 113.795 70.7141 111.428 70.7141Z" stroke="#DAE7F8" stroke-width="3" stroke-linecap="round" stroke-linejoin="round"/>
<path d="M4.28564 30H49.2856" stroke="#DAE7F8" stroke-width="3" stroke-linecap="round" stroke-linejoin="round"/>
<path d="M70.7141 30H115.714" stroke="#DAE7F8" stroke-width="3" stroke-linecap="round" stroke-linejoin="round"/>
<path d="M70.7141 96.4285H115.714" stroke="#DAE7F8" stroke-width="3" stroke-linecap="round" stroke-linejoin="round"/>
<path d="M4.28564 96.4285H49.2856" stroke="#DAE7F8" stroke-width="3" stroke-linecap="round" stroke-linejoin="round"/>
</svg>
