<svg width="120" height="120" viewBox="0 0 120 120" fill="none" xmlns="http://www.w3.org/2000/svg">
<path d="M4.28516 94.2854C4.28516 99.0194 8.11632 102.857 12.8423 102.857H107.157C111.882 102.857 115.714 99.0194 115.714 94.2854V76.8509C108.305 74.8396 102.856 68.0571 102.856 59.9997C102.856 51.9423 108.305 45.1598 115.714 43.1485V25.714C115.714 20.9802 111.882 17.1426 107.157 17.1426H12.8423C8.11633 17.1426 4.28516 20.9801 4.28516 25.714V43.1108C11.7654 45.074 17.2842 51.8912 17.2842 59.9997C17.2842 68.1082 11.7654 74.9255 4.28516 76.8886V94.2854Z" stroke="#DAE7F8" stroke-width="6" stroke-linecap="round" stroke-linejoin="round"/>
<path d="M38.7461 81.4284L81.6032 38.5713" stroke="#DAE7F8" stroke-width="6" stroke-linecap="round" stroke-linejoin="round"/>
<path d="M43.0318 47.1427C45.3987 47.1427 47.3175 45.2239 47.3175 42.857C47.3175 40.4901 45.3987 38.5713 43.0318 38.5713C40.6649 38.5713 38.7461 40.4901 38.7461 42.857C38.7461 45.2239 40.6649 47.1427 43.0318 47.1427Z" stroke="#DAE7F8" stroke-width="6" stroke-linecap="round" stroke-linejoin="round"/>
<path d="M77.317 81.4279C79.6839 81.4279 81.6027 79.5091 81.6027 77.1422C81.6027 74.7752 79.6839 72.8564 77.317 72.8564C74.95 72.8564 73.0312 74.7752 73.0312 77.1422C73.0312 79.5091 74.95 81.4279 77.317 81.4279Z" stroke="#DAE7F8" stroke-width="6" stroke-linecap="round" stroke-linejoin="round"/>
</svg>
