<svg width="24" height="24" viewBox="0 0 24 24" fill="none" xmlns="http://www.w3.org/2000/svg">
<path d="M13.5 20.7002H10.5C10.05 20.7002 9.75 21.0002 9.75 21.4502C9.75 21.9002 10.05 22.2002 10.5 22.2002H13.5C13.95 22.2002 14.25 21.9002 14.25 21.4502C14.25 21.0002 13.95 20.7002 13.5 20.7002Z" fill="#000104"/>
<path d="M20.25 16.8003C19.8 16.8003 19.5 16.6503 19.2 16.3503C18.9 16.0503 18.75 15.7503 18.75 15.3003V10.2003C18.75 8.40029 18 6.75029 16.8 5.40029C15.45 4.05029 13.8 3.30029 12 3.30029C10.2 3.30029 8.55 4.05029 7.2 5.25029C6 6.60029 5.25 8.25029 5.25 10.2003V15.4503C5.25 15.9003 5.1 16.2003 4.8 16.5003C4.5 16.8003 4.2 16.9503 3.75 16.9503C3.3 16.9503 3 17.2503 3 17.7003C3 18.1503 3.3 18.4503 3.75 18.4503H20.25C20.7 18.4503 21 18.1503 21 17.7003C21 17.2503 20.7 16.8003 20.25 16.8003ZM6.3 16.8003C6.6 16.3503 6.75 15.9003 6.75 15.3003V10.2003C6.75 8.85029 7.35 7.50029 8.25 6.45029C10.2 4.50029 13.8 4.50029 15.75 6.45029C16.8 7.50029 17.25 8.70029 17.25 10.2003V15.4503C17.25 16.0503 17.4 16.5003 17.7 16.9503H6.3V16.8003Z" fill="#000104"/>
</svg>
