<svg width="313" height="419" viewBox="0 0 313 419" fill="none" xmlns="http://www.w3.org/2000/svg">
<g clip-path="url(#clip0_2516_5931)">
<rect width="313" height="419" fill="#002E33"/>
<g clip-path="url(#clip1_2516_5931)">
<mask id="mask0_2516_5931" style="mask-type:luminance" maskUnits="userSpaceOnUse" x="0" y="145" width="304" height="274">
<path d="M303.975 145H0V418.844H303.975V145Z" fill="white"/>
</mask>
<g mask="url(#mask0_2516_5931)">
<path d="M171.143 172.314C170.701 165.896 175.681 162.878 177.27 162.209C181.586 160.39 186.492 160.264 191.066 161.268C194.258 161.969 197.438 163.276 199.647 165.687C201.671 167.897 202.715 170.867 203.081 173.842C203.352 176.042 203.278 178.281 202.908 180.466C201.924 186.281 198.775 191.703 194.215 195.435C193.756 195.81 193.197 196.19 192.619 196.057C192.265 195.976 191.983 195.715 191.73 195.454C189.595 193.263 188.181 190.489 186.666 187.829C182.941 181.289 178.232 175.023 171.143 172.314Z" fill="#010101" stroke="#010101" stroke-width="1.5" stroke-linecap="round" stroke-linejoin="round"/>
<path d="M194.849 188.942C195.665 189.519 196.915 189.484 197.705 189.304C200.149 188.747 200.2 185.101 199.739 183.965C199.278 182.829 198.455 181.859 197.474 181.125C197.083 180.833 195.519 180.29 194.289 181.126C193.726 181.509 193.381 182.137 193.016 182.547C192.613 180.649 192.813 178.682 192.992 176.75C193.172 174.818 191.992 168.407 188.432 167.743C186.281 167.341 184.116 167.991 181.928 168.01C179.215 168.032 176.386 166.659 173.893 167.733C171.713 168.672 171.479 170.098 170.911 172.405C169.666 177.462 169.731 182.773 170.48 187.927C170.751 189.796 171.125 191.689 172.042 193.339C173.632 196.196 176.889 198.039 180.154 197.929C180.421 200.784 180.688 203.641 180.955 206.496C181.09 207.938 181.287 209.514 182.338 210.509C183.428 211.54 185.085 211.615 186.584 211.581C189.222 211.522 191.857 211.312 194.471 210.95C195.049 210.87 195.656 210.77 196.11 210.402C196.923 209.745 196.935 208.531 196.864 207.488C196.431 201.098 195.547 194.745 194.851 188.943L194.849 188.942Z" fill="white" stroke="#010101" stroke-width="1.5" stroke-linecap="round" stroke-linejoin="round"/>
<path d="M188.163 196.479C185.696 197.717 182.883 198.254 180.134 198.015L188.163 196.479Z" fill="white"/>
<path d="M188.163 196.479C185.696 197.717 182.883 198.254 180.134 198.015" stroke="#010101" stroke-width="1.5" stroke-linecap="round" stroke-linejoin="round"/>
<path d="M178.109 178.805C177.519 180.059 176.962 181.328 176.437 182.61C176.303 182.938 176.169 183.275 176.162 183.629C176.153 184.159 176.708 184.897 178.569 185.904" fill="white"/>
<path d="M178.109 178.805C177.519 180.059 176.962 181.328 176.437 182.61C176.303 182.938 176.169 183.275 176.162 183.629C176.153 184.159 176.708 184.897 178.569 185.904" stroke="#010101" stroke-width="1.5" stroke-linecap="round" stroke-linejoin="round"/>
<path d="M195.905 182.955C196.555 183.002 197.178 183.349 197.562 183.877C197.946 184.405 198.084 185.104 197.93 185.738" fill="white"/>
<path d="M195.905 182.955C196.555 183.002 197.178 183.349 197.562 183.877C197.946 184.405 198.084 185.104 197.93 185.738" stroke="#010101" stroke-width="1.5" stroke-linecap="round" stroke-linejoin="round"/>
<path d="M175.686 177.324C174.961 176.91 171.813 176.838 171.072 177.026C170.332 177.215 169.639 177.732 169.414 178.463C169.328 178.743 169.313 179.04 169.305 179.333C169.286 179.966 169.305 180.638 169.641 181.175C170.059 181.843 170.868 182.148 171.64 182.304C172.643 182.506 173.683 182.529 174.694 182.373C175.145 182.303 175.633 182.223 175.972 181.915C177 180.979 177.367 178.285 175.687 177.324H175.686Z" fill="white" stroke="#010101" stroke-width="1.5" stroke-linecap="round" stroke-linejoin="round"/>
<path d="M186.224 177.324C185.498 176.91 182.35 176.838 181.61 177.026C180.87 177.215 180.177 177.732 179.952 178.463C179.866 178.743 179.851 179.04 179.843 179.333C179.824 179.966 179.843 180.638 180.179 181.175C180.597 181.843 181.406 182.148 182.178 182.304C183.181 182.506 184.221 182.529 185.232 182.373C185.683 182.303 186.171 182.223 186.51 181.915C187.538 180.979 187.905 178.285 186.225 177.324H186.224Z" fill="white" stroke="#010101" stroke-width="1.5" stroke-linecap="round" stroke-linejoin="round"/>
<path d="M187.29 178.805C190.034 178.805 192.674 178.89 195.394 179.154C195.904 179.203 196.49 179.351 196.693 179.821" stroke="#010101" stroke-width="1.5" stroke-linecap="round" stroke-linejoin="round"/>
<path d="M179.993 178.325C178.569 177.136 176.499 178.183 176.509 178.171L179.993 178.325Z" fill="white"/>
<path d="M179.993 178.325C178.569 177.136 176.499 178.183 176.509 178.171" stroke="#010101" stroke-width="1.5" stroke-linecap="round" stroke-linejoin="round"/>
<path d="M93.4401 213.27C89.389 208.549 85.9545 204.652 81.9033 199.932C81.2813 199.207 79.8477 197.9 79.0395 198.786C78.4636 199.417 79.2146 201.922 82.6484 205.324C79.2408 201.595 77.6187 199.996 74.2111 196.266C73.7805 195.795 73.2326 195.28 72.6614 195.413C72.0761 195.549 71.8258 196.346 71.9892 196.993C72.1526 197.64 72.6042 198.162 73.0383 198.652C75.5298 201.464 75.4633 201.876 77.9548 204.689C74.794 200.975 74.6026 200.417 71.0451 197.162C70.4558 196.622 69.6377 196.061 69.0204 196.477C67.6859 197.661 70.0526 200.011 71.8561 201.877C72.8895 202.946 73.8844 203.952 76.4109 206.402C73.7992 204.056 72.851 202.959 70.2346 200.62C69.7433 200.181 69.2129 199.723 68.5967 199.639C67.9806 199.556 67.2944 200.04 67.372 200.712C67.421 201.14 67.7431 201.477 68.0436 201.772C70.8298 204.507 71.6181 205.736 74.4043 208.471C72.3539 206.516 72.1315 206.283 69.7871 204.794C69.091 204.352 68.0506 204.009 67.6737 204.734C67.3253 205.404 67.9607 206.223 68.532 206.749C74.1551 211.92 78.6177 215.326 84.2408 220.497" fill="white"/>
<path d="M93.4401 213.27C89.389 208.549 85.9545 204.652 81.9033 199.932C81.2813 199.207 79.8477 197.9 79.0395 198.786C78.4636 199.417 79.2146 201.922 82.6484 205.324C79.2408 201.595 77.6187 199.996 74.2111 196.266C73.7805 195.795 73.2326 195.28 72.6614 195.413C72.0761 195.549 71.8258 196.346 71.9892 196.993C72.1526 197.64 72.6042 198.162 73.0383 198.652C75.5298 201.464 75.4633 201.876 77.9548 204.689C74.794 200.975 74.6026 200.417 71.0451 197.162C70.4558 196.622 69.6377 196.061 69.0204 196.477C67.6859 197.661 70.0526 200.011 71.8561 201.877C72.8895 202.946 73.8844 203.952 76.4109 206.402C73.7992 204.056 72.851 202.959 70.2346 200.62C69.7433 200.181 69.2129 199.723 68.5967 199.639C67.9806 199.556 67.2944 200.04 67.372 200.712C67.421 201.14 67.7431 201.477 68.0436 201.772C70.8298 204.507 71.6181 205.736 74.4043 208.471C72.3539 206.516 72.1315 206.283 69.7871 204.794C69.091 204.352 68.0506 204.009 67.6737 204.734C67.3253 205.404 67.9607 206.223 68.532 206.749C74.1551 211.92 78.6177 215.326 84.2408 220.497" stroke="#010101" stroke-width="1.5" stroke-linecap="round" stroke-linejoin="round"/>
<path d="M82.6484 205.324C81.9995 206.369 81.4376 207.487 81.1791 208.69C80.9206 209.892 80.9836 211.194 81.5356 212.293" stroke="#010101" stroke-width="1.5" stroke-linecap="round" stroke-linejoin="round"/>
<path d="M75.8927 389.748C69.6035 381.273 61.7754 373.551 53.9744 366.195C46.1723 358.841 36.7448 352.642 25.9639 349.813C23.3198 349.118 20.4755 348.635 17.8418 349.36C13.5107 350.553 10.9176 354.739 10.2441 358.82C9.23586 364.922 11.513 371.054 14.105 376.754C19.925 389.555 31.8236 405.219 42.056 416.998C57.094 416.998 82.2893 416.883 99.474 417C102.957 417.024 88.4638 403.439 75.8937 389.748H75.8927Z" fill="#26890D" stroke="#010101" stroke-width="1.5" stroke-linecap="round" stroke-linejoin="round"/>
<path d="M129.879 388.433C120.067 372.9 108.717 358.156 96.0092 344.434C86.7493 334.434 75.9011 324.509 61.8199 321.576C56.7708 320.525 50.8032 320.674 47.2353 324.061C44.3508 326.799 43.8255 330.918 44.0439 334.689C44.5141 342.787 47.693 350.574 51.6696 357.848C60.2274 373.498 72.4913 387.218 84.6523 400.795C87.9195 404.443 91.1868 408.09 94.453 411.737C95.9249 413.381 97.4571 415.07 99.5323 416.052C104.415 418.365 110.369 416.049 114.997 413.344C120.214 410.294 125.152 406.606 128.28 401.764C131.408 396.92 131.691 391.302 129.879 388.433Z" fill="#26890D" stroke="#010101" stroke-width="1.5" stroke-linecap="round" stroke-linejoin="round"/>
<path d="M70 416C54.9077 394.322 33.6572 369.283 15 350" stroke="#010101" stroke-width="1.5" stroke-linecap="round" stroke-linejoin="round"/>
<path d="M47 387C37.9305 384.637 25.2867 382.491 16 381" stroke="#010101" stroke-width="1.5" stroke-linecap="round" stroke-linejoin="round"/>
<path d="M41 357C39.3641 362.032 37.6372 367.967 36 373" stroke="#010101" stroke-width="1.5" stroke-linecap="round" stroke-linejoin="round"/>
<path d="M112 399C91.1734 374.803 69.8266 348.197 49 324" stroke="#010101" stroke-width="1.5" stroke-linecap="round" stroke-linejoin="round"/>
<path d="M89 372C77.3333 368.667 65.6667 365.333 54 362" stroke="#010101" stroke-width="1.5" stroke-linecap="round" stroke-linejoin="round"/>
<path d="M89 339C86.4726 348.132 84.5178 353.902 82 363" stroke="#010101" stroke-width="1.5" stroke-linecap="round" stroke-linejoin="round"/>
<path d="M302.925 330.117L298.856 418.406L171.706 417.947L178.568 330.117H302.925Z" fill="white" stroke="#010101" stroke-width="1.5" stroke-linecap="round" stroke-linejoin="round"/>
<path d="M178.568 330.117H302.925L303.537 314.65L179.803 314.386L178.568 330.117Z" fill="#010101" stroke="#010101" stroke-width="1.5" stroke-linecap="round" stroke-linejoin="round"/>
<path d="M7 274C30.2927 269.665 77 266 77 266L7 274Z" fill="white"/>
<path d="M7 304C15.6663 300.944 33 300 33 300L7 304Z" fill="white"/>
<path d="M19.6825 263.31C19.6312 264.222 19.5798 265.134 19.5291 266.046L19.6825 263.31Z" fill="white"/>
<path d="M210.591 299.792L216.39 280.067L162.538 275.218L154.564 291.083L166.577 303.422L195.575 304.354L210.591 299.792Z" fill="#010101" stroke="#010101" stroke-width="1.5" stroke-linecap="round" stroke-linejoin="round"/>
<path d="M254.981 304.354C256.617 307.318 260.044 308.777 263.318 309.63C266.592 310.483 270.066 310.986 272.878 312.868C273.157 313.054 273.442 313.272 273.557 313.587C273.748 314.109 273.377 314.701 272.881 314.951C272.386 315.201 271.806 315.196 271.252 315.186C264.447 315.062 257.643 314.939 250.839 314.815C249.465 314.79 248.004 314.739 246.864 313.97C246.141 313.481 245.623 312.75 245.131 312.029C243.822 310.112 242.576 308.15 241.398 306.15" fill="white"/>
<path d="M254.981 304.354C256.617 307.318 260.044 308.777 263.318 309.63C266.592 310.483 270.066 310.986 272.878 312.868C273.157 313.054 273.442 313.272 273.557 313.587C273.748 314.109 273.377 314.701 272.881 314.951C272.386 315.201 271.806 315.196 271.252 315.186C264.447 315.062 257.643 314.939 250.839 314.815C249.465 314.79 248.004 314.739 246.864 313.97C246.141 313.481 245.623 312.75 245.131 312.029C243.822 310.112 242.576 308.15 241.398 306.15" stroke="#010101" stroke-width="1.5" stroke-linecap="round" stroke-linejoin="round"/>
<path d="M199.563 204.375C192.064 207.211 184.131 208.241 176.771 205.058C174.361 213.075 174.036 220.626 173.561 228.985C172.984 239.133 172.406 249.296 172.675 259.458C172.858 266.343 173.429 273.217 174.386 280.038C184.883 281.052 195.415 281.694 205.957 281.963C211.671 272.65 212.191 261.083 211.415 250.18C210.335 235.027 206.231 219.702 199.562 204.375H199.563Z" fill="white" stroke="#010101" stroke-width="1.5" stroke-linecap="round" stroke-linejoin="round"/>
<path d="M192.369 210.062C191.093 208.568 189.653 207.214 188.084 206.032C186.468 206.8 184.943 207.761 183.575 209.036C184.361 210.508 185.147 211.979 185.934 213.45C186.146 213.846 186.36 214.25 186.452 214.689C186.607 215.431 186.401 216.194 186.221 216.93C185.259 220.876 180.385 266.915 180.385 266.915C180.385 266.915 184.263 273.068 188.721 282.209C193.379 274.569 197.025 268.301 197.115 267.834C197.266 267.046 188.966 215.24 189.107 214.369C189.337 212.943 192.483 210.83 192.369 210.062H192.369Z" fill="#26890D" stroke="#010101" stroke-width="1.5" stroke-linecap="round" stroke-linejoin="round"/>
<path d="M207.183 282.076C195.935 281.884 184.697 281.155 173.518 279.891L207.183 282.076Z" fill="white"/>
<path d="M207.183 282.076C195.935 281.884 184.697 281.155 173.518 279.891" stroke="#010101" stroke-width="1.5" stroke-linecap="round" stroke-linejoin="round"/>
<path d="M184.133 303.766C171.485 310.929 158.897 316.649 147.427 325.291C155.362 341.729 165.526 357.783 174.456 373.647C168.008 380.745 163.14 387.042 156.222 394.424C144.866 374.437 132.805 352.991 121.449 333.004C119.996 330.447 118.518 327.82 118.043 324.917C117.284 320.278 119.238 315.524 122.22 311.892C125.357 308.071 145.735 290.99 154.971 284.884" fill="#010101"/>
<path d="M184.133 303.766C171.485 310.929 158.897 316.649 147.427 325.291C155.362 341.729 165.526 357.783 174.456 373.647C168.008 380.745 163.14 387.042 156.222 394.424C144.866 374.437 132.805 352.991 121.449 333.004C119.996 330.447 118.518 327.82 118.043 324.917C117.284 320.278 119.238 315.524 122.22 311.892C125.357 308.071 145.735 290.99 154.971 284.884" stroke="#010101" stroke-width="1.5" stroke-linecap="round" stroke-linejoin="round"/>
<path d="M171.361 372.821C174.365 375.917 177.461 378.925 180.641 381.839C180.779 381.966 180.812 382.17 180.721 382.334C179.795 384.02 179.021 385.789 178.411 387.614C178.32 387.887 177.993 387.981 177.769 387.802C176.854 387.073 175.869 386.435 174.83 385.9C175.039 387.491 175.394 389.062 176.002 390.623C176.188 391.101 176.211 391.626 176.036 392.108L169.409 410.403C169.095 411.27 168.136 411.716 167.272 411.398L165.927 410.902C165.588 410.777 165.232 410.64 165.004 410.359C164.828 410.144 164.749 409.867 164.678 409.598C163.785 406.234 163.411 402.755 162.659 399.357C161.907 395.959 160.727 392.559 158.476 389.908" fill="white"/>
<path d="M171.361 372.821C174.365 375.917 177.461 378.925 180.641 381.839C180.779 381.966 180.812 382.17 180.721 382.334C179.795 384.02 179.021 385.789 178.411 387.614C178.32 387.887 177.993 387.981 177.769 387.802C176.854 387.073 175.869 386.435 174.83 385.9C175.039 387.491 175.394 389.062 176.002 390.623C176.188 391.101 176.211 391.626 176.036 392.108L169.409 410.403C169.095 411.27 168.136 411.716 167.272 411.398L165.927 410.902C165.588 410.777 165.232 410.64 165.004 410.359C164.828 410.144 164.749 409.867 164.678 409.598C163.785 406.234 163.411 402.755 162.659 399.357C161.907 395.959 160.727 392.559 158.476 389.908" stroke="#010101" stroke-width="1.5" stroke-linecap="round" stroke-linejoin="round"/>
<path d="M149.936 405.233C148.262 409.151 146.702 413.117 145.259 417.125C145.162 417.395 144.896 417.559 144.611 417.53C142.857 417.351 141.087 417.316 139.328 417.428C138.903 417.455 138.565 417.068 138.675 416.657C138.952 415.617 139.135 414.552 139.22 413.479C137.686 414.372 136.243 415.828 134.936 417.206C134.821 417.326 134.666 417.395 134.5 417.4L111.003 417.918C110.082 417.962 109.302 417.249 109.262 416.327L109.2 414.894C109.184 414.532 109.173 414.15 109.344 413.831C109.476 413.585 109.7 413.406 109.92 413.237C112.676 411.115 119.285 409.428 122.126 407.423C124.967 405.417 127.646 403.017 129.222 399.915" fill="white"/>
<path d="M149.936 405.233C148.262 409.151 146.702 413.117 145.259 417.125C145.162 417.395 144.896 417.559 144.611 417.53C142.857 417.351 141.087 417.316 139.328 417.428C138.903 417.455 138.565 417.068 138.675 416.657C138.952 415.617 139.135 414.552 139.22 413.479C137.686 414.372 136.243 415.828 134.936 417.206C134.821 417.326 134.666 417.395 134.5 417.4L111.003 417.918C110.082 417.962 109.302 417.249 109.262 416.327L109.2 414.894C109.184 414.532 109.173 414.15 109.344 413.831C109.476 413.585 109.7 413.406 109.92 413.237C112.676 411.115 119.285 409.428 122.126 407.423C124.967 405.417 127.646 403.017 129.222 399.915" stroke="#010101" stroke-width="1.5" stroke-linecap="round" stroke-linejoin="round"/>
<path d="M257.392 311.719C259.065 312.03 260.728 312.396 262.364 312.863C262.666 312.949 262.973 313.042 263.228 313.225C263.483 313.408 263.681 313.7 263.67 314.014C263.65 314.564 263.032 314.896 262.484 314.945C261.937 314.993 261.367 314.878 260.846 315.055" fill="white"/>
<path d="M257.392 311.719C259.065 312.03 260.728 312.396 262.364 312.863C262.666 312.949 262.973 313.042 263.228 313.225C263.483 313.408 263.681 313.7 263.67 314.014C263.65 314.564 263.032 314.896 262.484 314.945C261.937 314.993 261.367 314.878 260.846 315.055" stroke="#010101" stroke-width="1.5" stroke-linecap="round" stroke-linejoin="round"/>
<path d="M184.151 303.771C163.906 342.878 146.225 370.363 124.502 403.201C133.179 405.982 140.608 408.966 149.017 412.021C198.184 341.112 189.701 354.707 198.706 341.719C206.198 330.913 214.321 318.791 219.988 306.923C221.9 302.919 223.822 298.813 224.308 294.401C224.793 289.989 223.59 285.141 220.169 282.319" fill="#010101"/>
<path d="M184.151 303.771C163.906 342.878 146.225 370.363 124.502 403.201C133.179 405.982 140.608 408.966 149.017 412.021C198.184 341.112 189.701 354.707 198.706 341.719C206.198 330.913 214.321 318.791 219.988 306.923C221.9 302.919 223.822 298.813 224.308 294.401C224.793 289.989 223.59 285.141 220.169 282.319" stroke="#010101" stroke-width="1.5" stroke-linecap="round" stroke-linejoin="round"/>
<path d="M199.624 204.726C199.076 228.388 200.621 251.82 202.593 275.407C203.017 280.474 203.664 285.928 207.096 289.677C211.132 294.085 218.598 294.481 224.556 294.887C224.972 282.764 224.176 274.524 223.903 264.197C224.697 267.75 233.495 293.423 237.498 308.697C245.267 307.86 251.299 305.933 258.148 303.913C250.813 275.927 245.225 256.276 237.387 231.808C234.812 223.769 230.903 215.675 224.088 210.704C217.46 205.871 208.024 205.22 199.624 204.726Z" fill="#D3D3D3" stroke="#010101" stroke-width="1.5" stroke-linecap="round" stroke-linejoin="round"/>
<path d="M223.624 263.706C221.509 257.563 219.394 251.42 217.278 245.276L223.624 263.706Z" fill="white"/>
<path d="M223.624 263.706C221.509 257.563 219.394 251.42 217.278 245.276" stroke="#010101" stroke-width="1.5" stroke-linecap="round" stroke-linejoin="round"/>
<path d="M129.359 233.244C127.147 235.948 123.975 240.109 123.975 240.109C123.975 240.109 96.9964 212.814 91.1282 206.145C86.9807 211.963 82.5713 215.674 79.0913 221.916C86.4754 231.859 95.4974 243.353 104.803 251.521C111.429 257.337 118.304 262.607 127.114 262.641C134.478 262.669 151.638 250.932 157.03 241.36C159.158 256.883 159.039 268.14 157.657 274.305C156.704 278.557 154.141 285.028 150.81 287.832C156.041 289.306 161.64 289.449 166.94 288.247C170.548 287.427 174.264 285.782 176.109 282.57C177.588 279.996 177.616 276.867 177.603 273.896C177.503 250.36 177.236 227.722 176.696 204.54C176.36 203.963 165.737 203.286 158.533 206.033C151.861 208.576 137.755 222.981 129.358 233.244H129.359Z" fill="#D3D3D3" stroke="#010101" stroke-width="1.5" stroke-linecap="round" stroke-linejoin="round"/>
<path d="M187.635 206.011C185.869 204.235 183.894 202.666 181.765 201.348C181.208 201.004 180.614 200.668 179.96 200.628C178.699 200.552 177.495 202.471 176.721 203.47C176.507 203.746 176.29 204.046 176.252 204.394C176.209 204.79 176.404 205.171 176.599 205.518C177.796 207.655 179.384 208.768 181 210.608C181.413 211.078 181.919 211.574 182.545 211.564C183.016 211.556 183.427 211.259 183.788 210.956C185.289 209.697 186.524 208.119 187.636 206.011L187.635 206.011Z" fill="white" stroke="#010101" stroke-width="1.5" stroke-linecap="round" stroke-linejoin="round"/>
<path d="M191.453 210.694C190.151 209.085 188.737 207.401 187.483 205.826C189.437 204.336 191.454 202.504 194.174 201.14C195.096 200.678 196.174 200.209 197.117 200.626C197.672 200.871 199.95 203.18 200.688 205.109C198.74 207.093 195.154 209.652 193.116 210.967C192.574 211.317 191.86 211.196 191.453 210.694Z" fill="white" stroke="#010101" stroke-width="1.5" stroke-linecap="round" stroke-linejoin="round"/>
<path d="M192.418 363.865C190.53 364.676 188.806 366.012 187.864 367.839C186.922 369.667 186.875 372.016 188.04 373.711C189.06 375.194 190.826 375.993 192.583 376.382C195.152 376.951 198.265 376.57 199.73 374.381C200.926 372.596 200.623 370.17 199.744 368.208C199.044 366.646 197.982 365.207 196.536 364.292C195.089 363.378 193.481 363.409 192.418 363.865H192.418Z" fill="white" stroke="#010101" stroke-width="1.5" stroke-linecap="round" stroke-linejoin="round"/>
<path d="M198.934 366.728L217.921 346.146" stroke="#010101" stroke-width="1.5" stroke-linecap="round" stroke-linejoin="round"/>
<path d="M217.921 346.146C219.526 351.026 227.642 349.587 228.585 344.925C229.068 342.536 228.06 339.732 225.326 338.948C218.233 336.915 216.968 343.247 217.921 346.146Z" fill="#D3D3D3" stroke="#010101" stroke-width="1.5" stroke-linecap="round" stroke-linejoin="round"/>
<path d="M228.585 344.925C228.585 344.925 247.877 359.929 251.556 362.963" stroke="#010101" stroke-width="1.5" stroke-linecap="round" stroke-linejoin="round"/>
<path d="M251.739 363.396C251.237 364.3 251.019 365.344 251.308 366.338C252.02 368.782 254.721 370.525 257.206 369.988C259.692 369.45 261.201 366.285 260.375 363.877C259.549 361.469 254.479 358.462 251.739 363.396Z" fill="#010101" stroke="#010101" stroke-width="1.5" stroke-linecap="round" stroke-linejoin="round"/>
<path d="M260.375 363.877C264.622 360.523 268.87 357.169 273.117 353.815" stroke="#010101" stroke-width="1.5" stroke-linecap="round" stroke-linejoin="round"/>
<path d="M277.192 346.066C272.522 344.376 270.265 350.035 272.575 352.6C273.738 353.891 275.455 354.796 277.165 354.497C278.875 354.197 280.348 352.61 280.272 350.873C280.189 348.989 279.116 346.762 277.192 346.065V346.066Z" fill="white" stroke="#010101" stroke-width="1.5" stroke-linecap="round" stroke-linejoin="round"/>
<path d="M239.692 402.135C238.181 402.153 236.659 402.004 235.212 401.569C232.972 400.896 230.926 399.505 229.612 397.569C228.298 395.633 227.762 393.147 228.321 390.874C228.933 388.384 230.08 386.053 232.115 384.498C233.462 383.469 235.197 382.829 236.992 382.54C236.755 380.811 236.518 379.083 236.282 377.355C233.457 377.779 230.716 378.773 228.601 380.389C225.485 382.768 223.731 386.337 222.794 390.146C221.939 393.624 222.76 397.428 224.77 400.391C226.781 403.354 229.912 405.482 233.338 406.512C235.553 407.178 237.883 407.405 240.195 407.378C241.834 407.358 243.488 407.202 245.071 406.794C244.528 405.059 243.985 403.325 243.443 401.59C242.241 401.981 240.96 402.12 239.692 402.135Z" fill="#D3D3D3" stroke="#010101" stroke-width="1.5" stroke-linecap="round" stroke-linejoin="round"/>
<path d="M244.135 401.334C243.908 401.431 243.676 401.513 243.442 401.59C243.985 403.325 244.527 405.059 245.07 406.794C245.725 406.626 246.37 406.419 246.994 406.153C251.481 404.244 254.309 399.651 254.91 394.778C253.009 394.748 251.11 394.646 249.218 394.464C248.687 397.434 246.894 400.161 244.135 401.334Z" fill="#010101" stroke="#010101" stroke-width="1.5" stroke-linecap="round" stroke-linejoin="round"/>
<path d="M254.489 388.817C252.626 382.196 246.715 378.027 242.776 377.377C240.732 377.04 238.481 377.024 236.28 377.355C236.517 379.084 236.754 380.812 236.99 382.54C238.474 382.301 239.998 382.302 241.379 382.53C243.953 382.955 247.815 385.679 249.033 390.006C249.437 391.445 249.481 392.984 249.217 394.464C251.109 394.646 253.008 394.748 254.909 394.777C255.155 392.782 255.03 390.741 254.488 388.817L254.489 388.817Z" fill="#26890D" stroke="#010101" stroke-width="1.5" stroke-linecap="round" stroke-linejoin="round"/>
<path d="M264.876 380.828C263.248 380.806 261.62 380.858 259.997 380.985C259.97 382.408 259.943 383.832 259.915 385.255C261.54 385.315 264.789 385.118 264.789 385.118C264.789 385.118 265.231 381.877 264.876 380.828H264.876Z" fill="#26890D" stroke="#010101" stroke-width="1.5" stroke-linecap="round" stroke-linejoin="round"/>
<path d="M264.535 390.031C262.908 390.009 261.28 390.061 259.657 390.187C259.629 391.611 259.603 393.035 259.575 394.458C261.2 394.518 264.449 394.321 264.449 394.321C264.449 394.321 264.891 391.08 264.536 390.031H264.535Z" fill="#D3D3D3" stroke="#010101" stroke-width="1.5" stroke-linecap="round" stroke-linejoin="round"/>
<path d="M264.535 399.233C262.908 399.211 261.28 399.263 259.657 399.389C259.629 400.813 259.603 402.237 259.575 403.66C261.2 403.72 264.449 403.523 264.449 403.523C264.449 403.523 264.891 400.282 264.536 399.233H264.535Z" fill="#010101" stroke="#010101" stroke-width="1.5" stroke-linecap="round" stroke-linejoin="round"/>
<path d="M268.765 382.684C273.394 382.5 278.03 382.526 282.657 382.761" stroke="#010101" stroke-width="1.5" stroke-linecap="round" stroke-linejoin="round"/>
<path d="M268.218 391.951C273.033 392.009 277.848 392.069 282.663 392.128" stroke="#010101" stroke-width="1.5" stroke-linecap="round" stroke-linejoin="round"/>
<path d="M267.878 401.494C272.725 401.497 277.571 401.5 282.418 401.503" stroke="#010101" stroke-width="1.5" stroke-linecap="round" stroke-linejoin="round"/>
<path d="M35.3815 224.51L35.3534 224.506C35.0762 224.469 34.7706 224.609 34.6183 224.842C34.4655 225.076 34.4601 225.414 34.6055 225.653L35.3815 224.51ZM35.3815 224.51C35.9864 224.612 36.195 225.301 35.9099 225.691L35.9098 225.691C35.7797 225.869 35.5302 225.983 35.2399 225.974C34.9499 225.964 34.717 225.836 34.6056 225.653L35.3815 224.51Z" fill="white" stroke="white"/>
</g>
</g>
<path d="M312.382 241.51L312.353 241.506C312.076 241.469 311.771 241.609 311.618 241.842C311.466 242.076 311.46 242.414 311.606 242.653L312.382 241.51ZM312.382 241.51C312.986 241.612 313.195 242.301 312.91 242.691L312.91 242.691C312.78 242.869 312.53 242.983 312.24 242.974C311.95 242.964 311.717 242.836 311.606 242.653L312.382 241.51Z" fill="white" stroke="white"/>
<path d="M287.087 87C297.495 88.1167 304.859 98.2707 307.095 108.478C311.276 127.569 300.606 148.984 282.651 156.777C276.852 159.294 269.085 160.022 265.092 155.127C262.59 152.06 262.529 147.26 264.954 144.131C267.378 141.001 272.048 139.853 275.652 141.501C279.089 143.073 281.182 146.7 282.045 150.376C284.538 160.992 278.033 172.256 268.704 177.932C259.375 183.607 247.89 184.598 237 183.719" stroke="white" stroke-width="1.5" stroke-linecap="round" stroke-linejoin="round"/>
<path d="M191.79 100.333L191.79 100.333C192.158 99.7697 192.868 99.4365 193.536 99.5101L193.578 99.5157C195.093 99.7206 195.623 101.423 194.905 102.404C194.561 102.874 193.946 103.128 193.296 103.107C192.646 103.086 192.06 102.795 191.76 102.302L191.76 102.302C191.402 101.715 191.415 100.909 191.79 100.333Z" fill="white" stroke="white"/>
<path d="M235.754 45.1429L244.295 12.8244L176.663 1.81333L168 34.2884L235.754 45.1429Z" fill="#ECF7F9" stroke="#010101" stroke-width="1.5" stroke-linecap="round" stroke-linejoin="round"/>
<path d="M203.362 18.6984C213.529 19.7475 233.75 22.764 233.75 22.764" stroke="#010101" stroke-width="1.5" stroke-linecap="round" stroke-linejoin="round"/>
<path d="M201.893 25.1831C205.864 25.5756 213.707 26.9087 213.707 26.9087" stroke="#010101" stroke-width="1.5" stroke-linecap="round" stroke-linejoin="round"/>
<path d="M188.286 10.5559C185.839 10.3705 183.37 11.3532 181.562 13.0158C179.755 14.6786 178.59 16.9761 178.091 19.3824C177.839 20.6018 177.751 21.8742 178.022 23.0893C178.325 24.4478 179.065 25.6773 179.969 26.7343C181.385 28.3889 183.244 29.6785 185.324 30.3183C187.404 30.9583 189.701 30.93 191.728 30.137C194.033 29.2354 195.919 27.3606 196.936 25.1018C197.953 22.8437 198.115 20.2304 197.492 17.834C197.157 16.5474 196.594 15.3033 195.718 14.3041C193.736 12.0413 191.759 10.9649 188.286 10.5564L188.286 10.5559Z" fill="white" stroke="#010101" stroke-width="1.5" stroke-linecap="round" stroke-linejoin="round"/>
<path d="M191.538 17.4177C191.197 16.4992 190.267 15.864 189.293 15.7683C188.319 15.6727 187.332 16.072 186.61 16.7332C185.933 17.3524 185.462 18.3751 185.893 19.1845C186.172 19.707 186.752 19.9956 187.325 20.1447C187.897 20.2937 188.497 20.3364 189.054 20.5352C190.158 20.9288 191.008 21.9629 191.181 23.1238C191.281 23.7902 191.145 24.5288 190.667 25.0026C190.41 25.2565 190.075 25.4166 189.734 25.5341C187.797 26.1994 185.469 25.4722 184.256 23.8222" stroke="#010101" stroke-width="1.5" stroke-linecap="round" stroke-linejoin="round"/>
<path d="M187.251 25.8753C187.099 26.7523 186.899 27.6211 186.652 28.4768" stroke="#010101" stroke-width="1.5" stroke-linecap="round" stroke-linejoin="round"/>
<path d="M190.302 13.1045C190.1 13.9405 189.897 14.7764 189.696 15.6124" stroke="#010101" stroke-width="1.5" stroke-linecap="round" stroke-linejoin="round"/>
<path d="M117.526 122.917C109.678 109.646 100.873 96.9199 91.1983 84.8691C90.5854 84.1062 89.9025 83.3 88.9483 83.0511C87.8944 82.7751 86.8078 83.251 85.8321 83.7238C78.5895 87.2353 71.5801 91.2067 64.8603 95.6073C52.0197 77.6849 39.1791 59.7625 26.3374 41.8399" stroke="white" stroke-width="2" stroke-linecap="round" stroke-linejoin="round"/>
<path d="M51.0635 46.9373C42.9365 43.466 34.4992 40.7402 25.8857 38.8041C24.8062 48.1316 23.5355 57.4377 22.0776 66.7134" stroke="white" stroke-width="2" stroke-linecap="round" stroke-linejoin="round"/>
<path d="M103.689 128.369C106.683 128.943 108.365 129.166 111.351 130.015C109.519 136.355 109.058 144.284 107.026 150.354C106.805 151.012 99.1695 148.851 99.1695 148.851C100.959 142.614 102.469 136.794 103.691 128.368L103.689 128.369Z" fill="#26890D"/>
<path d="M89.9334 100.326C86.8674 116.419 85.468 126.952 81.8005 146.199C79.7161 145.356 76.4032 145.305 74.3188 144.461C76.6415 132.271 80.5858 112.941 82.9085 100.75C83.4551 97.8813 83.1178 100.26 89.9334 100.326Z" fill="#26890D"/>
<path d="M64.0476 107.6C61.9158 118.699 59.5333 129.748 56.901 140.734C54.7756 140.328 51.6481 140.168 49.6722 139.256C50.9919 129.414 56.8332 106.517 56.8332 106.517C56.8332 106.517 62.1537 107.322 64.0476 107.6Z" fill="#26890D"/>
<path d="M40.7651 77.1876C38.2318 96.7125 35.253 115.679 31.2752 136.279C28.4867 135.998 25.7166 134.987 22.589 134.498C29.649 89.1277 32.2554 75.5702 32.2554 75.5702C32.2554 75.5702 36.9953 75.953 40.7651 77.1876Z" fill="#26890D"/>
</g>
<defs>
<clipPath id="clip0_2516_5931">
<rect width="313" height="419" fill="white"/>
</clipPath>
<clipPath id="clip1_2516_5931">
<rect width="304" height="274" fill="white" transform="translate(0 145)"/>
</clipPath>
</defs>
</svg>
