<svg width="30" height="30" viewBox="0 0 30 30" fill="none" xmlns="http://www.w3.org/2000/svg">
<path d="M28.9302 2.14258H17.1445" stroke="#C07300" stroke-width="2" stroke-linecap="round" stroke-linejoin="round"/>
<path d="M28.9302 8.57129H17.1445" stroke="#C07300" stroke-width="2" stroke-linecap="round" stroke-linejoin="round"/>
<path d="M28.9302 15H17.1445" stroke="#C07300" stroke-width="2" stroke-linecap="round" stroke-linejoin="round"/>
<path d="M28.9302 27.8564H17.1445" stroke="#C07300" stroke-width="2" stroke-linecap="round" stroke-linejoin="round"/>
<path d="M28.9302 21.4287H17.1445" stroke="#C07300" stroke-width="2" stroke-linecap="round" stroke-linejoin="round"/>
<path d="M1.07227 3.21401V11.7854C1.07227 12.3772 1.55196 12.8569 2.14369 12.8569H10.7151C11.3069 12.8569 11.7866 12.3772 11.7866 11.7854V3.21401C11.7866 2.62228 11.3069 2.14258 10.7151 2.14258H2.14369C1.55196 2.14258 1.07227 2.62228 1.07227 3.21401Z" stroke="#C07300" stroke-width="2" stroke-linecap="round" stroke-linejoin="round"/>
<path d="M1.07227 18.214V26.7854C1.07227 27.3771 1.55196 27.8569 2.14369 27.8569H10.7151C11.3069 27.8569 11.7866 27.3771 11.7866 26.7854V18.214C11.7866 17.6223 11.3069 17.1426 10.7151 17.1426H2.14369C1.55196 17.1426 1.07227 17.6223 1.07227 18.214Z" stroke="#C07300" stroke-width="2" stroke-linecap="round" stroke-linejoin="round"/>
</svg>
