<svg width="24" height="24" viewBox="0 0 24 24" fill="none" xmlns="http://www.w3.org/2000/svg">
<path d="M18.75 12.75C18.3 12.75 18 13.05 18 13.5V16.5H3V3.75C3 3.3 3.3 3 3.75 3H13.5C13.95 3 14.25 2.7 14.25 2.25C14.25 1.8 13.95 1.5 13.5 1.5H3.75C2.55 1.5 1.5 2.55 1.5 3.75V20.25C1.5 21.45 2.55 22.5 3.75 22.5H17.25C18.45 22.5 19.5 21.45 19.5 20.25V13.5C19.5 13.05 19.2 12.75 18.75 12.75ZM17.25 21H3.75C3.3 21 3 20.7 3 20.25V18H18V20.25C18 20.7 17.7 21 17.25 21Z" fill="#000104"/>
<path d="M10.5 6C10.5 5.55 10.2 5.25 9.75 5.25H6.75C6.3 5.25 6 5.55 6 6C6 6.45 6.3 6.75 6.75 6.75H9.75C10.2 6.75 10.5 6.45 10.5 6Z" fill="#000104"/>
<path d="M6.75 9C6.3 9 6 9.3 6 9.75C6 10.2 6.3 10.5 6.75 10.5H8.25C8.7 10.5 9 10.2 9 9.75C9 9.3 8.7 9 8.25 9H6.75Z" fill="#000104"/>
<path d="M22.35 4.50078C22.2 4.20078 22.05 4.05078 21.9 3.75078L20.25 2.10078C20.1 1.95078 19.8 1.65078 19.5 1.65078C18.9 1.35078 18.3 1.35078 17.7 1.65078C17.4 1.80078 17.25 1.95078 16.95 2.10078L10.65 8.55078C10.65 8.55078 10.5 8.70078 10.5 8.85078L9.75 13.5008C9.75 13.8008 9.75 13.9508 9.9 14.1008C10.05 14.2508 10.35 14.2508 10.5 14.2508H10.65L15.15 13.5008C15.3 13.5008 15.45 13.3508 15.6 13.3508L21.9 7.05078C22.05 6.90078 22.35 6.60078 22.35 6.30078C22.5 6.00078 22.5 5.70078 22.5 5.40078C22.5 5.10078 22.5 4.80078 22.35 4.50078ZM21 5.70078C21 5.85078 20.85 5.85078 20.85 6.00078L14.7 12.0008L11.4 12.6008L12 9.30078L18.15 3.15078C18.15 3.15078 18.3 3.00078 18.45 3.00078C18.6 3.00078 18.75 3.00078 18.9 3.00078C19.05 3.00078 19.05 3.15078 19.2 3.15078L20.85 4.80078C20.85 4.80078 21 4.95078 21 5.10078C21 5.25078 21 5.25078 21 5.40078C21 5.40078 21 5.55078 21 5.70078Z" fill="#000104"/>
</svg>
