<svg width="24" height="24" viewBox="0 0 24 24" fill="none" xmlns="http://www.w3.org/2000/svg">
<path d="M12 6C11.55 6 11.25 6.3 11.25 6.75V12.75C11.25 13.05 11.4 13.35 11.7 13.35L15.6 15.3C15.75 15.3 15.75 15.45 15.9 15.45C16.2 15.45 16.5 15.3 16.5 15C16.65 14.7 16.5 14.25 16.2 13.95L12.75 12.3V6.75C12.75 6.3 12.45 6 12 6Z" fill="black"/>
<path d="M21.75 3.75C21.3 3.75 21 4.05 21 4.5V6.6C19.05 3.45 15.75 1.5 12 1.5C6.15 1.5 1.5 6.15 1.5 12C1.5 17.85 6.15 22.5 12 22.5C16.95 22.5 21.15 19.2 22.2 14.4C22.35 13.95 22.05 13.65 21.6 13.5C21.15 13.35 20.85 13.65 20.7 14.1C19.8 18.15 16.2 21 12 21C7.05 21 3 16.95 3 12C3 7.05 7.05 3 12 3C15.3 3 18.15 4.65 19.8 7.5H18C17.55 7.5 17.25 7.8 17.25 8.25C17.25 8.7 17.55 9 18 9H21.75C22.2 9 22.5 8.7 22.5 8.25V4.5C22.5 4.05 22.2 3.75 21.75 3.75Z" fill="black"/>
</svg>
