<svg width="24" height="24" viewBox="0 0 24 24" fill="none" xmlns="http://www.w3.org/2000/svg">
<path d="M22.4999 8.25C22.4999 8.1 22.4999 7.95 22.4999 7.95L20.3999 3.6C20.0999 3 19.6499 2.4 19.0499 2.1C18.2999 1.65 17.5499 1.5 16.9499 1.5H7.0499C6.4499 1.5 5.6999 1.65 5.0999 2.1C4.6499 2.4 4.1999 3 3.8999 3.6L1.6499 7.95V8.1V8.25V20.25C1.6499 20.85 1.9499 21.45 2.2499 21.9C2.5499 22.35 3.1499 22.5 3.7499 22.5H20.2499C20.8499 22.5 21.4499 22.2 21.8999 21.9C22.3499 21.6 22.4999 20.85 22.4999 20.25V8.25ZM17.9999 3.3C18.2999 3.45 18.5999 3.9 18.8999 4.2L20.5499 7.5H12.7499V3H16.9499C17.2499 3 17.6999 3.15 17.9999 3.3ZM5.0999 4.2C5.3999 3.9 5.6999 3.6 5.9999 3.3C6.2999 3.15 6.7499 3 7.0499 3H11.2499V7.5H3.4499L5.0999 4.2ZM20.9999 20.25C20.9999 20.4 20.8499 20.7 20.8499 20.85C20.8499 21 20.3999 21 20.2499 21H3.7499C3.5999 21 3.2999 20.85 3.1499 20.85C3.1499 20.7 2.9999 20.4 2.9999 20.25V9H20.9999V20.25Z" fill="#000104"/>
<path d="M11.25 11.25V14.25H8.25C7.8 14.25 7.5 14.55 7.5 15C7.5 15.45 7.8 15.75 8.25 15.75H11.25V18.75C11.25 19.2 11.55 19.5 12 19.5C12.45 19.5 12.75 19.2 12.75 18.75V15.75H15.75C16.2 15.75 16.5 15.45 16.5 15C16.5 14.55 16.2 14.25 15.75 14.25H12.75V11.25C12.75 10.8 12.45 10.5 12 10.5C11.55 10.5 11.25 10.8 11.25 11.25Z" fill="#000104"/>
</svg>
