<svg width="24" height="24" viewBox="0 0 24 24" fill="none" xmlns="http://www.w3.org/2000/svg">
<path d="M21 10.5H15C14.1 10.5 13.5 11.1 13.5 12V21C13.5 21.9 14.1 22.5 15 22.5H21C21.9 22.5 22.5 21.9 22.5 21V12C22.5 11.1 21.9 10.5 21 10.5ZM21 21H15V12H21V21Z" fill="black"/>
<path d="M21 1.5H15C14.1 1.5 13.5 2.1 13.5 3V6C13.5 6.9 14.1 7.5 15 7.5H21C21.9 7.5 22.5 6.9 22.5 6V3C22.5 2.1 21.9 1.5 21 1.5ZM21 6H15V3H21V6Z" fill="black"/>
<path d="M9 1.5H3C2.1 1.5 1.5 2.1 1.5 3V12C1.5 12.9 2.1 13.5 3 13.5H9C9.9 13.5 10.5 12.9 10.5 12V3C10.5 2.1 9.9 1.5 9 1.5ZM9 12H3V3H9V12Z" fill="black"/>
<path d="M9 16.5H3C2.1 16.5 1.5 17.1 1.5 18V21C1.5 21.9 2.1 22.5 3 22.5H9C9.9 22.5 10.5 21.9 10.5 21V18C10.5 17.1 9.9 16.5 9 16.5ZM9 21H3V18H9V21Z" fill="black"/>
</svg>
