<svg width="24" height="24" viewBox="0 0 24 24" fill="none" xmlns="http://www.w3.org/2000/svg">
<path d="M19.1998 7.35L14.0998 2.1C13.6498 1.8 13.0498 1.5 12.4498 1.5H4.0498C3.4498 1.5 2.8498 1.8 2.5498 2.1C2.2498 2.4 1.7998 3.15 1.7998 3.75V20.25C1.7998 20.85 2.0998 21.45 2.3998 21.9C2.6998 22.35 3.4498 22.5 4.0498 22.5H17.5498C18.1498 22.5 18.7498 22.2 19.1998 21.9C19.6498 21.6 19.7998 20.85 19.7998 20.25V8.85C19.7998 8.25 19.6498 7.65 19.1998 7.35ZM18.2998 20.25C18.2998 20.4 18.1498 20.7 18.1498 20.85C18.1498 21 17.8498 21 17.5498 21H4.0498C3.8998 21 3.5998 20.85 3.4498 20.85C3.2998 20.7 3.2998 20.55 3.2998 20.25V3.75C3.2998 3.6 3.4498 3.3 3.4498 3.15C3.4498 3 3.8998 3 4.0498 3H12.4498C12.5998 3 12.8998 3.15 13.0498 3.15L18.1498 8.25C18.2998 8.4 18.2998 8.55 18.2998 8.85V20.25Z" fill="#000104"/>
<path d="M15.4502 10.35H11.7002C11.2502 10.35 10.9502 10.65 10.9502 11.1C10.9502 11.55 11.2502 11.85 11.7002 11.85H15.4502C15.9002 11.85 16.2002 11.55 16.2002 11.1C16.2002 10.65 15.9002 10.35 15.4502 10.35Z" fill="#000104"/>
<path d="M15.4502 15.4501H11.7002C11.2502 15.4501 10.9502 15.7501 10.9502 16.2001C10.9502 16.6501 11.2502 16.9501 11.7002 16.9501H15.4502C15.9002 16.9501 16.2002 16.6501 16.2002 16.2001C16.2002 15.7501 15.9002 15.4501 15.4502 15.4501Z" fill="#000104"/>
<path d="M8.5498 14.1L7.0498 16.35L6.4498 15.6C6.1498 15.3 5.6998 15.3 5.3998 15.6C5.0998 15.9 5.0998 16.35 5.3998 16.65L6.5998 18C6.7498 18.15 6.8998 18.15 7.1998 18.15C7.3498 18.15 7.6498 18 7.7998 17.85L9.8998 14.85C10.1998 14.55 10.0498 14.1 9.7498 13.8C9.2998 13.65 8.8498 13.8 8.5498 14.1Z" fill="#000104"/>
<path d="M8.5498 8.69996L7.0498 10.95L6.4498 10.35C6.1498 10.05 5.6998 10.05 5.3998 10.35C5.0998 10.65 5.0998 11.1 5.3998 11.4L6.5998 12.6C6.7498 12.75 6.8998 12.75 7.1998 12.75C7.3498 12.75 7.6498 12.6 7.7998 12.45L9.8998 9.44996C10.1998 9.14996 10.0498 8.69996 9.7498 8.39996C9.2998 8.39996 8.8498 8.39996 8.5498 8.69996Z" fill="#000104"/>
</svg>
