<svg width="20" height="20" viewBox="0 0 20 20" fill="none" xmlns="http://www.w3.org/2000/svg">
<path d="M18.75 6.75C18.625 5.875 18.25 5 17.5 4.375L17 3.875C16.375 3.25 15.25 3.25 14.5 3.875L12.625 6C12.375 6.25 12.125 6.75 12.125 7.125C12.125 7.625 12.25 8 12.625 8.375C12.75 8.5 12.75 8.625 12.75 8.75C12.75 8.875 12.75 9 12.625 9.125L9.5 12.375C9.25 12.5 9 12.5 8.75 12.375C8.125 11.75 7 11.75 6.25 12.375L4.25 14.375C3.875 14.75 3.75 15.125 3.75 15.625C3.75 16.125 3.875 16.5 4.25 16.875L4.75 17.375C5.375 18 6.25 18.375 7.125 18.5C7.25 18.5 7.375 18.5 7.5 18.5C8.25 18.5 9 18.25 9.625 17.875C13 15.625 15.75 12.875 18 9.5C18.625 8.625 18.875 7.75 18.75 6.75ZM17.125 8.75C15 11.875 12.25 14.625 9.125 16.75C8.625 17.125 8 17.25 7.375 17.125C6.75 17 6.125 16.75 5.75 16.375L5.25 15.875C5.125 15.875 5 15.75 5 15.5C5 15.375 5 15.25 5.125 15.125L7.125 13.125C7.25 13.125 7.375 13.125 7.5 13.125C7.625 13.125 7.75 13.125 7.875 13.25C8.5 13.875 9.75 13.875 10.375 13.25L13.5 10C13.875 9.625 14 9.25 14 8.75C14 8.25 13.875 7.875 13.5 7.5C13.5 7.5 13.375 7.375 13.375 7.125C13.375 7 13.375 6.875 13.5 6.75L15.375 4.75C15.625 4.5 15.875 4.625 16.125 4.75L16.625 5.25C17.125 5.625 17.375 6.25 17.5 6.875C17.5 7.625 17.375 8.25 17.125 8.75Z" fill="#2161B2"/>
<path d="M7.625 8.625C7.75 8.75 8 8.75 8.125 8.75C8.25 8.75 8.5 8.75 8.625 8.625C8.75 8.375 8.75 7.875 8.625 7.625L3.375 2.5H6.25C6.625 2.5 6.875 2.25 6.875 1.875C6.875 1.5 6.625 1.25 6.25 1.25H1.875C1.75 1.25 1.75 1.25 1.625 1.25C1.5 1.375 1.375 1.5 1.25 1.625C1.25 1.75 1.25 1.75 1.25 1.875V6.25C1.25 6.625 1.5 6.875 1.875 6.875C2.25 6.875 2.5 6.625 2.5 6.25V3.375L7.625 8.625Z" fill="#2161B2"/>
</svg>
