<svg width="24" height="24" viewBox="0 0 24 24" fill="none" xmlns="http://www.w3.org/2000/svg">
<path d="M20.25 1.5H3.75C2.55 1.5 1.5 2.55 1.5 3.75V12.75C1.5 13.95 2.55 15 3.75 15H20.25C21.45 15 22.5 13.95 22.5 12.75V3.75C22.5 2.55 21.45 1.5 20.25 1.5ZM21 12.75C21 13.2 20.7 13.5 20.25 13.5H3.75C3.3 13.5 3 13.2 3 12.75V3.75C3 3.3 3.3 3 3.75 3H20.25C20.7 3 21 3.3 21 3.75V12.75Z" fill="#000104"/>
<path d="M12 5.25C10.35 5.25 9 6.6 9 8.25C9 9.9 10.35 11.25 12 11.25C13.65 11.25 15 9.9 15 8.25C15 6.6 13.65 5.25 12 5.25ZM12 9.75C11.1 9.75 10.5 9.15 10.5 8.25C10.5 7.35 11.1 6.75 12 6.75C12.9 6.75 13.5 7.35 13.5 8.25C13.5 9.15 12.9 9.75 12 9.75Z" fill="#000104"/>
<path d="M20.25 17.25H3.75C3.3 17.25 3 17.55 3 18C3 18.45 3.3 18.75 3.75 18.75H20.25C20.7 18.75 21 18.45 21 18C21 17.55 20.7 17.25 20.25 17.25Z" fill="#000104"/>
<path d="M18.75 21H5.25C4.8 21 4.5 21.3 4.5 21.75C4.5 22.2 4.8 22.5 5.25 22.5H18.75C19.2 22.5 19.5 22.2 19.5 21.75C19.5 21.3 19.2 21 18.75 21Z" fill="#000104"/>
<path d="M6 7.19995C5.85 7.19995 5.85 7.19995 5.7 7.19995C5.55 7.19995 5.55 7.19995 5.4 7.19995C4.95 7.34995 4.5 7.79995 4.5 8.24995C4.5 8.69995 4.8 9.14995 5.4 9.29995C5.55 9.29995 5.55 9.29995 5.7 9.29995C5.85 9.29995 5.85 9.29995 6 9.29995C6.45 9.14995 6.9 8.69995 6.9 8.24995C6.9 7.79995 6.45 7.34995 6 7.19995Z" fill="#000104"/>
<path d="M18.6001 7.19995C18.4501 7.19995 18.4501 7.19995 18.3001 7.19995C18.1501 7.19995 18.1501 7.19995 18.0001 7.19995C17.5501 7.34995 17.1001 7.79995 17.1001 8.24995C17.1001 8.69995 17.4001 9.14995 18.0001 9.29995C18.1501 9.29995 18.1501 9.29995 18.3001 9.29995C18.4501 9.29995 18.4501 9.29995 18.6001 9.29995C19.0501 9.14995 19.5001 8.69995 19.5001 8.24995C19.5001 7.79995 19.0501 7.34995 18.6001 7.19995Z" fill="#000104"/>
</svg>
