<svg width="40" height="40" viewBox="0 0 40 40" fill="none" xmlns="http://www.w3.org/2000/svg">
<circle cx="20" cy="20" r="15.5" stroke="#004F59"/>
<path d="M27.3222 14.9409L20.4472 11.1792C20.2635 11.0777 20.057 11.0244 19.8472 11.0244C19.6373 11.0244 19.4309 11.0777 19.2472 11.1792L12.3722 14.9424C12.1758 15.0499 12.0119 15.208 11.8976 15.4004C11.7833 15.5928 11.7227 15.8124 11.7222 16.0362V23.5081C11.7227 23.7319 11.7833 23.9514 11.8976 24.1438C12.0119 24.3362 12.1758 24.4944 12.3722 24.6018L19.2472 28.3651C19.4309 28.4666 19.6373 28.5198 19.8472 28.5198C20.057 28.5198 20.2635 28.4666 20.4472 28.3651L27.3222 24.6018C27.5185 24.4944 27.6824 24.3362 27.7967 24.1438C27.9111 23.9514 27.9717 23.7319 27.9722 23.5081V16.037C27.9721 15.8128 27.9117 15.5927 27.7973 15.3999C27.683 15.207 27.5189 15.0485 27.3222 14.9409ZM19.8472 12.2729L26.1237 15.7104L23.7979 16.9838L17.5206 13.5463L19.8472 12.2729ZM19.8472 19.1479L13.5706 15.7104L16.219 14.2604L22.4956 17.6979L19.8472 19.1479ZM12.9722 16.8042L19.2222 20.2245V26.9268L12.9722 23.5088V16.8042ZM26.7222 23.5057L20.4722 26.9268V20.2276L22.9722 18.8596V21.6479C22.9722 21.8137 23.038 21.9726 23.1552 22.0898C23.2724 22.2071 23.4314 22.2729 23.5972 22.2729C23.7629 22.2729 23.9219 22.2071 24.0391 22.0898C24.1563 21.9726 24.2222 21.8137 24.2222 21.6479V18.1752L26.7222 16.8042V23.5049V23.5057Z" fill="#004F59"/>
</svg>
