<svg width="24" height="24" viewBox="0 0 24 24" fill="none" xmlns="http://www.w3.org/2000/svg">
<path d="M20.85 6.9L15.6 1.65C15.45 1.65 15.15 1.5 15 1.5H5.25C4.65 1.5 4.05 1.8 3.6 2.1C3.15 2.4 3 3.15 3 3.75V20.25C3 20.85 3.3 21.45 3.6 21.9C3.9 22.35 4.65 22.5 5.25 22.5H18.75C19.35 22.5 19.95 22.2 20.4 21.9C20.85 21.6 21 20.85 21 20.25V7.5C21 7.35 20.85 7.05 20.85 6.9ZM19.2 7.5H15V3.3L19.2 7.5ZM19.35 20.85C19.2 21 19.05 21 18.75 21H5.25C5.1 21 4.8 20.85 4.65 20.85C4.65 20.7 4.5 20.4 4.5 20.25V3.75C4.5 3.6 4.65 3.3 4.65 3.15C4.65 3 5.1 3 5.25 3H13.5V8.25C13.5 8.7 13.8 9 14.25 9H19.5V20.25C19.5 20.4 19.35 20.7 19.35 20.85Z" fill="#5A3600"/>
</svg>
