<svg width="17" height="16" viewBox="0 0 17 16" fill="none" xmlns="http://www.w3.org/2000/svg">
<path d="M14.4 4.6L10.9 1.1C10.8 1.1 10.6 1 10.5 1H4C3.6 1 3.2 1.2 2.9 1.4C2.6 1.6 2.5 2.1 2.5 2.5V13.5C2.5 13.9 2.7 14.3 2.9 14.6C3.1 14.9 3.6 15 4 15H13C13.4 15 13.8 14.8 14.1 14.6C14.4 14.4 14.5 13.9 14.5 13.5V5C14.5 4.9 14.4 4.7 14.4 4.6ZM13.5 13.5C13.5 13.6 13.4 13.8 13.4 13.9C13.4 14 13.1 14 13 14H4C3.9 14 3.7 13.9 3.6 13.9C3.6 13.8 3.5 13.6 3.5 13.5V2.5C3.5 2.4 3.6 2.2 3.6 2.1C3.6 2 3.9 2 4 2H10.3L13.5 5.2V13.5Z" fill="#000104"/>
<path d="M9.09997 7.9C8.59997 7.3 8.19997 6.8 7.79997 6.3C7.79997 5.5 7.69997 4.8 7.59997 4.5C7.39997 4 6.99997 4 6.69997 4C6.39997 4.1 6.09997 4.4 6.09997 4.9C6.09997 5.3 6.39997 5.9 6.79997 6.6C6.79997 7.1 6.69997 7.8 6.59997 8.5C6.49997 9.1 6.39997 9.5 6.29997 9.9C5.79997 10.2 5.29997 10.4 5.09997 10.7C4.79997 11.1 4.89997 11.5 5.29997 11.8C5.49997 11.9 5.69997 12 5.89997 12C6.09997 12 6.29997 11.9 6.39997 11.8C6.69997 11.6 6.89997 11.2 7.09997 10.6C7.49997 10.5 7.89997 10.3 8.39997 10.2C8.89997 10.1 9.39997 10 9.69997 9.9C10.2 10.3 10.6 10.5 11 10.6C11.4 10.7 11.8 10.5 11.9 10.1C12.1 9.7 11.9 9.3 11.5 9.1C11.2 8.9 10.7 8.9 10.1 8.9C9.79997 8.6 9.39997 8.3 9.09997 7.9ZM7.49997 9.4C7.59997 8.9 7.69997 8.4 7.79997 7.8C8.09997 8.2 8.49997 8.6 8.89997 9C8.39997 9.2 7.89997 9.3 7.49997 9.4Z" fill="#000104"/>
</svg>
