<svg width="24" height="24" viewBox="0 0 24 24" fill="none" xmlns="http://www.w3.org/2000/svg">
<path d="M19.5 19.35C21.3 17.4 22.5 14.85 22.5 12C22.5 6.15 17.85 1.5 12 1.5C6.15 1.5 1.5 6.15 1.5 12C1.5 17.85 6.15 22.5 12 22.5C14.85 22.5 17.4 21.3 19.5 19.35C19.35 19.5 19.35 19.5 19.5 19.35ZM21 12C21 14.25 20.25 16.2 18.9 17.85L12.75 11.7V3C17.4 3.45 21 7.35 21 12ZM3 12C3 7.35 6.6 3.45 11.25 3V12C11.25 12.15 11.4 12.45 11.4 12.6L17.7 18.9C16.2 20.25 14.25 21 12 21C7.05 21 3 16.95 3 12Z" fill="#000104"/>
</svg>
