<svg width="30" height="30" viewBox="0 0 30 30" fill="none" xmlns="http://www.w3.org/2000/svg">
<g clip-path="url(#clip0_3345_59923)">
<path d="M3.21317 28.9275H26.7846C27.9681 28.9275 28.9275 27.9681 28.9275 26.7846V3.21317C28.9275 2.0297 27.9681 1.07031 26.7846 1.07031H3.21317C2.0297 1.07031 1.07031 2.0297 1.07031 3.21317V26.7846C1.07031 27.9681 2.0297 28.9275 3.21317 28.9275Z" stroke="#EB4028" stroke-width="1.5" stroke-linecap="round" stroke-linejoin="round"/>
<path d="M3.75 28.9286L19.3929 14.1857C19.5854 14.0253 19.828 13.9375 20.0786 13.9375C20.3291 13.9375 20.5717 14.0253 20.7643 14.1857L28.9286 20.0357" stroke="#EB4028" stroke-width="1.5" stroke-linecap="round" stroke-linejoin="round"/>
<path d="M9.64397 12.8563C11.4192 12.8563 12.8583 11.4172 12.8583 9.64202C12.8583 7.86681 11.4192 6.42773 9.64397 6.42773C7.86877 6.42773 6.42969 7.86681 6.42969 9.64202C6.42969 11.4172 7.86877 12.8563 9.64397 12.8563Z" stroke="#EB4028" stroke-width="1.5" stroke-linecap="round" stroke-linejoin="round"/>
</g>
<defs>
<clipPath id="clip0_3345_59923">
<rect width="30" height="30" fill="white"/>
</clipPath>
</defs>
</svg>
