<svg width="24" height="24" viewBox="0 0 24 24" fill="none" xmlns="http://www.w3.org/2000/svg">
<path d="M21.45 2.55C21 1.95 20.25 1.65 19.5 1.5C19.35 1.5 19.35 1.5 19.2 1.5H8.25C7.2 1.5 6.3 1.95 5.55 2.55C4.8 3.15 4.5 4.2 4.5 5.25V18.75C4.5 19.35 4.2 19.95 3.9 20.4C3.6 20.85 2.85 21 2.25 21C1.8 21 1.5 21.3 1.5 21.75C1.5 22.2 1.8 22.5 2.25 22.5H13.5C14.55 22.5 15.45 22.05 16.2 21.45C16.95 20.85 17.25 19.8 17.25 18.75V7.5H21C21.45 7.5 21.75 7.35 22.05 7.05C22.35 6.75 22.5 6.45 22.5 6V4.8C22.5 3.9 22.2 3.15 21.45 2.55ZM15.75 18.75C15.75 19.35 15.45 19.95 15.15 20.4C14.85 20.85 14.1 21 13.5 21H5.25C5.7 20.4 6 19.5 6 18.75V5.25C6 4.65 6.3 4.05 6.6 3.6C6.9 3.15 7.65 3 8.25 3H16.35C15.9 3.6 15.75 4.2 15.75 4.8V6.6V18.75ZM21 6H17.25V4.8C17.25 4.35 17.4 3.9 17.85 3.45C18.6 2.7 19.8 2.7 20.55 3.45C20.85 3.9 21 4.35 21 4.8V6Z" fill="#000104"/>
<path d="M12.75 6.75H10.5C10.05 6.75 9.75 7.05 9.75 7.5C9.75 7.95 10.05 8.25 10.5 8.25H12.75C13.2 8.25 13.5 7.95 13.5 7.5C13.5 7.05 13.2 6.75 12.75 6.75Z" fill="#000104"/>
<path d="M12.75 11.25H9C8.55 11.25 8.25 11.55 8.25 12C8.25 12.45 8.55 12.75 9 12.75H12.75C13.2 12.75 13.5 12.45 13.5 12C13.5 11.55 13.2 11.25 12.75 11.25Z" fill="#000104"/>
<path d="M12.75 15.75H9C8.55 15.75 8.25 16.05 8.25 16.5C8.25 16.95 8.55 17.25 9 17.25H12.75C13.2 17.25 13.5 16.95 13.5 16.5C13.5 16.05 13.2 15.75 12.75 15.75Z" fill="#000104"/>
</svg>
