<svg width="18" height="23" viewBox="0 0 18 23" fill="none" xmlns="http://www.w3.org/2000/svg">
<path d="M8.71442 10.1428C11.0814 10.1428 13.0001 8.22406 13.0001 5.85713C13.0001 3.49019 11.0814 1.57141 8.71442 1.57141C6.34749 1.57141 4.42871 3.49019 4.42871 5.85713C4.42871 8.22406 6.34749 10.1428 8.71442 10.1428Z" stroke="#C07300" stroke-width="1.5" stroke-linecap="round" stroke-linejoin="round"/>
<path d="M1 22.1429H8.71429H16.4286V21.2136C16.4149 19.9069 16.0703 18.625 15.427 17.4877C14.7836 16.3503 13.8625 15.3946 12.7496 14.7097C11.6367 14.0249 10.3684 13.6333 9.06318 13.5715C8.94681 13.566 8.83048 13.5631 8.71429 13.5629C8.59809 13.5631 8.48176 13.566 8.36539 13.5715C7.06015 13.6333 5.79186 14.0249 4.67898 14.7097C3.56611 15.3946 2.64498 16.3503 2.00161 17.4877C1.35825 18.625 1.01365 19.9069 1 21.2136V22.1429Z" stroke="#C07300" stroke-width="1.5" stroke-linecap="round" stroke-linejoin="round"/>
</svg>
