<svg width="24" height="24" viewBox="0 0 24 24" fill="none" xmlns="http://www.w3.org/2000/svg">
<path d="M3.29996 12C3.44996 12 3.44996 12 3.59996 12L19.2 4.95004L18.6 6.45004C18.45 6.90004 18.6 7.20004 19.05 7.35004C19.2 7.35004 19.2 7.35004 19.35 7.35004C19.65 7.35004 19.95 7.20004 20.1 6.90004L21.3 3.75004C21.3 3.75004 21.3 3.75004 21.3 3.60004V3.45004C21.3 3.30004 21.3 3.30004 21.3 3.15004L21.15 3.00004C21.15 3.00004 21 2.85004 20.85 2.85004L17.7 1.50004C17.25 1.35004 16.95 1.50004 16.8 1.95004C16.65 2.40004 16.8 2.70004 17.25 2.85004L18.75 3.45004L2.99996 10.65C2.69996 10.8 2.54996 11.25 2.69996 11.55C2.84996 11.85 2.99996 12 3.29996 12Z" fill="#000104"/>
<path d="M21.7502 10.2C21.4502 9.9 21.1502 9.75 20.7002 9.75H18.4502C18.0002 9.75 17.7002 9.9 17.4002 10.2C17.1002 10.5 16.9502 10.8 16.9502 11.25V21.75C16.9502 22.2 17.2502 22.5 17.7002 22.5H21.4502C21.9002 22.5 22.2002 22.2 22.2002 21.75V11.25C22.2002 10.8 21.9002 10.5 21.7502 10.2ZM20.7002 21H18.4502V11.25H20.7002V21Z" fill="#000104"/>
<path d="M13.1998 12H10.7998C10.4998 12 10.0498 12.15 9.7498 12.45C9.4498 12.75 9.2998 13.05 9.2998 13.5V21.75C9.2998 22.2 9.5998 22.5 10.0498 22.5H13.7998C14.2498 22.5 14.5498 22.2 14.5498 21.75V13.5C14.5498 13.05 14.3998 12.75 14.0998 12.45C13.7998 12.15 13.4998 12 13.1998 12ZM13.1998 21H10.7998V13.5H13.0498V21H13.1998Z" fill="#000104"/>
<path d="M5.6998 14.25H3.2998C2.9998 14.25 2.5498 14.4 2.2498 14.7C1.9498 15 1.7998 15.3 1.7998 15.75V21.75C1.7998 22.2 2.0998 22.5 2.5498 22.5H6.2998C6.7498 22.5 7.0498 22.2 7.0498 21.75V15.75C7.0498 15.3 6.8998 15 6.5998 14.7C6.2998 14.4 5.9998 14.25 5.6998 14.25ZM5.6998 21H3.2998V15.75H5.5498V21H5.6998Z" fill="#000104"/>
</svg>
