<svg width="24" height="24" viewBox="0 0 24 24" fill="none" xmlns="http://www.w3.org/2000/svg">
<path d="M9.3 13.2002H3C2.1 13.2002 1.5 13.8002 1.5 14.7002V21.0002C1.5 21.9002 2.1 22.5002 3 22.5002H9.3C10.2 22.5002 10.8 21.9002 10.8 21.0002V14.7002C10.8 13.8002 10.2 13.2002 9.3 13.2002ZM9.3 21.0002H3V14.7002H9.3V21.0002Z" fill="#000104"/>
<path d="M20.9992 13.2002H14.6992C13.7992 13.2002 13.1992 13.8002 13.1992 14.7002V21.0002C13.1992 21.9002 13.7992 22.5002 14.6992 22.5002H20.9992C21.8992 22.5002 22.4992 21.9002 22.4992 21.0002V14.7002C22.4992 13.8002 21.8992 13.2002 20.9992 13.2002ZM20.9992 21.0002H14.6992V14.7002H20.9992V21.0002Z" fill="#000104"/>
<path d="M8.84961 10.8H15.1496C16.0496 10.8 16.6496 10.2 16.6496 9.3V3C16.6496 2.1 16.0496 1.5 15.1496 1.5H8.84961C7.94961 1.5 7.34961 2.1 7.34961 3V9.3C7.34961 10.2 7.94961 10.8 8.84961 10.8ZM8.84961 3H15.1496V9.3H8.84961V3Z" fill="#000104"/>
</svg>
