<svg width="22" height="22" viewBox="0 0 22 22" fill="none" xmlns="http://www.w3.org/2000/svg">
<path d="M21.5 17.75C21.5 17.6 21.35 17.6 21.35 17.45L18.5 14.6C18.2 14.3 17.75 14.3 17.45 14.6C17.15 14.9 17.15 15.35 17.45 15.65L18.95 17.15H11.6C11.3 15.95 10.25 15.05 8.9 15.05C7.55 15.05 6.5 15.95 6.2 17.15H5.15C3.35 17.15 2 15.8 2 14.15C2 12.5 3.35 11 5.15 11H10.4C10.7 12.2 11.75 13.1 13.1 13.1C14.45 13.1 15.5 12.2 15.8 11H17.3C19.55 11 21.5 9.2 21.5 6.8C21.5 4.4 19.55 2.6 17.3 2.6H10.25C9.95 1.4 8.75 0.5 7.55 0.5C6.2 0.5 5.15 1.4 4.85 2.6H1.25C0.8 2.6 0.5 2.9 0.5 3.35C0.5 3.8 0.8 4.1 1.25 4.1H4.85C5.15 5.3 6.2 6.2 7.55 6.2C8.9 6.2 9.95 5.3 10.25 4.1H17.3C18.8 4.1 20 5.3 20 6.8C20 8.3 18.8 9.5 17.3 9.5H15.8C15.5 8.3 14.45 7.4 13.1 7.4C11.75 7.4 10.7 8.3 10.4 9.5H5.15C2.6 9.5 0.5 11.6 0.5 14.15C0.5 16.7 2.6 18.8 5.15 18.8H6.2C6.5 20 7.55 20.9 8.9 20.9C10.25 20.9 11.3 20 11.6 18.8H18.95L17.45 20.3C17.15 20.6 17.15 21.05 17.45 21.35C17.6 21.5 17.75 21.5 18.05 21.5C18.35 21.5 18.5 21.5 18.65 21.35L21.5 18.5C21.5 18.5 21.65 18.35 21.65 18.2C21.5 18.05 21.5 17.9 21.5 17.75ZM7.55 4.7C6.8 4.7 6.2 4.1 6.2 3.35C6.2 2.6 6.8 2 7.55 2C8.3 2 8.9 2.6 8.9 3.35C8.9 4.1 8.3 4.7 7.55 4.7ZM13.1 8.9C13.85 8.9 14.45 9.5 14.45 10.25C14.45 11 13.85 11.6 13.1 11.6C12.35 11.6 11.75 11 11.75 10.25C11.75 9.5 12.35 8.9 13.1 8.9ZM8.9 19.25C8.15 19.25 7.55 18.65 7.55 17.9C7.55 17.15 8.15 16.55 8.9 16.55C9.65 16.55 10.25 17.15 10.25 17.9C10.25 18.65 9.65 19.25 8.9 19.25Z" fill="#000104"/>
</svg>
