<svg width="24" height="24" viewBox="0 0 24 24" fill="none" xmlns="http://www.w3.org/2000/svg">
<path d="M22.5 18.3C22.65 18.15 22.65 17.85 22.5 17.7C22.5 17.55 22.35 17.55 22.35 17.4L18.6 13.65C18.3 13.35 17.85 13.35 17.55 13.65C17.25 13.95 17.25 14.4 17.55 14.7L19.95 17.1H2.25C1.8 17.25 1.5 17.55 1.5 18C1.5 18.45 1.8 18.75 2.25 18.75H19.95L17.55 21.15C17.25 21.45 17.25 21.9 17.55 22.2C17.7 22.35 17.85 22.35 18.15 22.35C18.45 22.35 18.6 22.35 18.75 22.2L22.5 18.45C22.35 18.45 22.35 18.3 22.5 18.3Z" fill="#000104"/>
<path d="M2.7002 9.45C2.2502 9.45 1.9502 9.75 1.9502 10.2C1.9502 10.65 2.2502 10.95 2.7002 10.95H6.9002C7.3502 10.95 7.6502 10.65 7.6502 10.2C7.6502 9.75 7.3502 9.45 6.9002 9.45H5.5502V3.75C5.5502 3.3 5.2502 3 4.8002 3C4.3502 3 4.0502 3.3 4.0502 3.75C4.0502 4.2 3.6002 4.65 3.1502 4.65H2.7002C2.2502 4.65 1.9502 4.95 1.9502 5.4C1.9502 5.85 2.2502 6.15 2.7002 6.15H3.3002C3.6002 6.15 3.9002 6.15 4.2002 6V9.45H2.7002Z" fill="#000104"/>
<path d="M9.8999 10.95H14.0999C14.5499 10.95 14.8499 10.65 14.8499 10.2C14.8499 9.75 14.5499 9.45 14.0999 9.45H10.6499V9.3C10.6499 9 10.7999 8.7 11.0999 8.55L13.4999 7.5C14.3999 7.2 14.8499 6.3 14.8499 5.4C14.8499 4.05 13.7999 3 12.5999 3H11.3999C10.4999 3 9.5999 3.6 9.2999 4.65C9.1499 5.1 9.2999 5.4 9.7499 5.55C10.1999 5.7 10.4999 5.55 10.6499 5.1C10.7999 4.8 11.0999 4.5 11.3999 4.5H12.4499C12.8999 4.5 13.1999 4.8 13.1999 5.25C13.3499 5.7 13.1999 6 12.8999 6L10.4999 7.05C9.5999 7.5 9.1499 8.25 9.1499 9.3V10.2C9.1499 10.65 9.4499 10.95 9.8999 10.95Z" fill="#000104"/>
<path d="M19.7999 9.45H18.7499C18.4499 9.45 17.9999 9.15 17.9999 8.85C17.8499 8.4 17.3999 8.25 17.0999 8.4C16.4999 8.55 16.3499 9 16.4999 9.3C16.7999 10.2 17.6999 10.8 18.7499 10.8H19.7999C21.1499 10.8 22.1999 9.75 22.1999 8.4V8.25C22.1999 7.65 21.8999 6.9 21.4499 6.6C21.7499 6.15 21.8999 5.7 21.8999 5.25C21.8999 4.65 21.5999 4.05 21.2999 3.75C20.9999 3.45 20.2499 3 19.6499 3H18.8999C17.8499 3 17.0999 3.6 16.7999 4.65C16.6499 5.1 16.9499 5.4 17.2499 5.55C17.6999 5.7 17.9999 5.4 18.1499 5.1C18.2999 4.8 18.4499 4.5 18.8999 4.5H19.6499C19.7999 4.5 19.9499 4.5 20.0999 4.65C20.2499 4.8 20.2499 4.95 20.2499 5.1C20.3999 5.7 20.0999 6 19.4999 6C19.0499 6 18.7499 6.3 18.7499 6.75C18.7499 7.2 19.1999 7.5 19.6499 7.5C19.6499 7.5 19.6499 7.5 19.7999 7.5C20.2499 7.5 20.6999 7.95 20.6999 8.4V8.7C20.6999 9 20.2499 9.45 19.7999 9.45Z" fill="#000104"/>
</svg>
