<svg width="24" height="24" viewBox="0 0 24 24" fill="none" xmlns="http://www.w3.org/2000/svg">
<path d="M10.5 12.9C6.9 12.9 4.2 12 3.3 11.1C3.15 10.95 3 10.65 3 10.5V7.65C4.65 8.7 7.65 9.3 10.5 9.3C13.35 9.3 16.35 8.7 18 7.65V10.5C18 10.95 18.3 11.25 18.75 11.25C19.2 11.25 19.5 10.95 19.5 10.5V5.4C19.5 2.85 14.85 1.5 10.5 1.5C6.15 1.5 1.5 2.85 1.5 5.4V15.6C1.5 18 5.55 19.2 9 19.5C9.45 19.5 9.75 19.2 9.75 18.75C9.75 18.3 9.45 18 9 18C5.1 17.7 3 16.5 3 15.6V12.75C4.5 13.8 7.2 14.4 10.2 14.4C10.35 14.4 10.35 14.4 10.5 14.4C10.95 14.4 11.25 14.1 11.25 13.65C11.25 13.2 10.95 12.9 10.5 12.9ZM10.5 3C15.15 3 18 4.5 18 5.4C18 6.3 15.15 7.8 10.5 7.8C5.85 7.8 3 6.3 3 5.4C3 4.5 5.85 3 10.5 3Z" fill="#000104"/>
<path d="M22.1998 18.1501C22.0498 17.8501 21.7498 17.8501 21.4498 17.8501C21.4498 16.8001 21.1498 15.7501 20.5498 14.8501C19.7998 13.9501 18.7498 13.2001 17.3998 13.0501C16.6498 12.9001 15.8998 13.0501 15.1498 13.3501C14.6998 13.5001 14.5498 13.9501 14.6998 14.2501C14.8498 14.7001 15.2998 14.8501 15.7498 14.7001C16.1998 14.5501 16.7998 14.4001 17.2498 14.5501C18.1498 14.7001 18.7498 15.0001 19.3498 15.7501C19.7998 16.3501 20.0998 17.1001 19.9498 17.8501C19.6498 17.5501 19.1998 17.5501 18.8998 17.7001C18.5998 18.0001 18.4498 18.4501 18.7498 18.7501L19.6498 19.9501C19.7998 20.1001 19.9498 20.2501 20.2498 20.2501C20.3998 20.2501 20.5498 20.2501 20.6998 20.1001L21.8998 19.2001C22.3498 18.9001 22.4998 18.4501 22.1998 18.1501Z" fill="#000104"/>
<path d="M17.9999 20.55C17.5499 20.7 16.9499 20.85 16.4999 20.7C14.8499 20.55 13.6499 19.05 13.7999 17.4C13.9499 17.55 14.0999 17.7 14.3999 17.7C14.5499 17.7 14.6999 17.7 14.8499 17.55C15.1499 17.25 15.2999 16.8 14.9999 16.5L13.9499 15.3C13.6499 15 13.1999 15 12.8999 15.15L11.5499 16.2C11.2499 16.5 11.0999 16.95 11.3999 17.25C11.5499 17.55 11.8499 17.55 12.1499 17.55C11.9999 19.95 13.7999 22.05 16.1999 22.35C16.3499 22.35 16.4999 22.35 16.7999 22.35C17.3999 22.35 17.9999 22.2 18.4499 22.05C18.8999 21.9 19.0499 21.45 18.8999 21C18.7499 20.55 18.2999 20.4 17.9999 20.55Z" fill="#000104"/>
</svg>
