<svg width="17" height="16" viewBox="0 0 17 16" fill="none" xmlns="http://www.w3.org/2000/svg">
<path d="M10.5 4C7.6 4 5.5 5.1 5.5 6.5V12.5C5.5 13.9 7.6 15 10.5 15C13.4 15 15.5 13.9 15.5 12.5V6.5C15.5 5.1 13.4 4 10.5 4ZM14.5 9.5C14.5 10.1 12.9 11 10.5 11C8.1 11 6.5 10.1 6.5 9.5V8C7.4 8.6 8.8 9 10.5 9C12.2 9 13.6 8.6 14.5 8V9.5ZM10.5 5C12.9 5 14.5 5.9 14.5 6.5C14.5 7.1 12.9 8 10.5 8C8.1 8 6.5 7.1 6.5 6.5C6.5 5.9 8.1 5 10.5 5ZM10.5 14C8.1 14 6.5 13.1 6.5 12.5V11C7.4 11.6 8.8 12 10.5 12C12.2 12 13.6 11.6 14.5 11V12.5C14.5 13.1 12.9 14 10.5 14Z" fill="#000104"/>
<path d="M3.3 5.49996C3.4 5.49996 3.4 5.49996 3.5 5.49996C3.7 5.49996 3.9 5.39996 4 5.19996C4.1 4.89996 4 4.69996 3.7 4.49996C3 4.19996 2.5 3.79996 2.5 3.49996C2.5 2.89996 4.1 1.99996 6.5 1.99996C7.8 1.89996 9 2.29996 10.1 2.89996C10.4 3.09996 10.7 2.99996 10.8 2.79996C10.9 2.59996 10.9 2.29996 10.6 2.09996C9.4 1.29996 8 0.899965 6.5 0.999965C3.6 0.999965 1.5 2.09996 1.5 3.49996V9.49996C1.5 10.3 2.1 11 3.3 11.5C3.4 11.5 3.4 11.5 3.5 11.5C3.7 11.5 3.9 11.4 4 11.2C4.1 10.9 4 10.7 3.7 10.5C3 10.2 2.5 9.79996 2.5 9.49996V7.99996C2.7 8.19996 3 8.29996 3.3 8.39996C3.4 8.39996 3.4 8.39996 3.5 8.39996C3.7 8.39996 3.9 8.29996 4 8.09996C4.1 7.79996 4 7.59996 3.7 7.39996C3 7.19997 2.5 6.79996 2.5 6.49996V4.99996C2.7 5.19996 3 5.29996 3.3 5.49996Z" fill="#000104"/>
</svg>
