<svg width="24" height="24" viewBox="0 0 24 24" fill="none" xmlns="http://www.w3.org/2000/svg">
<g clip-path="url(#clip0_6547_97372)">
<path d="M8.5 10.2857H15.5" stroke="#C07300" stroke-width="1.5" stroke-linecap="round" stroke-linejoin="round"/>
<path d="M8.5 13.0354H15.5" stroke="#C07300" stroke-width="1.5" stroke-linecap="round" stroke-linejoin="round"/>
<path d="M11.5 10.2857C12.1667 10.4524 13.5 11.0357 13.5 12.7857C13.5 15.7857 9.5 15.7857 9.5 15.7857C9.5 15.7857 11.5 17.5358 14.5 18.2858" stroke="#C07300" stroke-width="1.5" stroke-linecap="round" stroke-linejoin="round"/>
<path d="M12.0006 23.1428C18.0006 23.1428 22.2863 21.0204 22.2863 16.2962C22.2863 11.1613 19.7148 7.73795 14.572 5.17048L16.5948 2.56876C16.6976 2.39807 16.7533 2.20328 16.7564 2.00413C16.7595 1.80498 16.7098 1.60857 16.6123 1.43479C16.5148 1.26102 16.3731 1.11606 16.2014 1.01461C16.0298 0.913162 15.8343 0.858828 15.6348 0.857117H8.36627C8.1668 0.858828 7.97134 0.913162 7.79968 1.01461C7.62802 1.11606 7.48628 1.26102 7.38882 1.43479C7.29135 1.60857 7.24163 1.80498 7.2447 2.00413C7.24777 2.20328 7.3035 2.39807 7.40627 2.56876L9.42913 5.18759C4.28627 7.77219 1.71484 11.1955 1.71484 16.3304C1.71484 21.0204 6.00056 23.1428 12.0006 23.1428Z" stroke="#C07300" stroke-width="1.5" stroke-linecap="round" stroke-linejoin="round"/>
</g>
<defs>
<clipPath id="clip0_6547_97372">
<rect width="24" height="24" fill="white"/>
</clipPath>
</defs>
</svg>
