<svg width="24" height="24" viewBox="0 0 24 24" fill="none" xmlns="http://www.w3.org/2000/svg">
<path d="M20.25 13.5C19.8 13.5 19.5 13.8 19.5 14.25V21H14.25V14.25C14.25 13.8 13.95 13.5 13.5 13.5C13.05 13.5 12.75 13.8 12.75 14.25V15.75H4.5V14.25C4.5 13.8 4.2 13.5 3.75 13.5C3.3 13.5 3 13.8 3 14.25V21C3 21.45 3.15 21.75 3.45 22.05C3.75 22.35 4.05 22.5 4.5 22.5H19.5C19.95 22.5 20.25 22.35 20.55 22.05C20.85 21.75 21 21.45 21 21V14.25C21 13.8 20.7 13.5 20.25 13.5ZM4.5 17.25H12.75V21H4.5V17.25Z" fill="#000104"/>
<path d="M22.4997 6.45C22.3497 6.45 22.3497 6.45 22.4997 6.45L20.6997 2.7C20.5497 2.4 20.2497 1.95 19.7997 1.8C19.3497 1.65 19.0497 1.5 18.5997 1.5H5.39967C5.09967 1.5 4.64967 1.65 4.19967 1.8C3.89967 2.1 3.59967 2.4 3.44967 2.7L1.64967 6.45C1.64967 6.6 1.64967 6.6 1.64967 6.75V9.75C1.49967 10.2 1.64967 10.5 1.94967 10.8C2.24967 11.1 2.54967 11.25 2.99967 11.25H20.9997C21.4497 11.25 21.7497 11.1 22.0497 10.8C22.3497 10.5 22.4997 10.2 22.4997 9.75V6.75C22.4997 6.6 22.4997 6.6 22.4997 6.45ZM4.79967 3.45C4.79967 3.3 4.94967 3.15 5.09967 3.15C5.09967 3 5.24967 3 5.39967 3H18.5997C18.7497 3 18.8997 3 19.0497 3.15C19.1997 3.15 19.1997 3.3 19.3497 3.45L20.5497 6H3.44967L4.79967 3.45ZM2.99967 9.75V7.5H20.9997V9.75H2.99967Z" fill="#000104"/>
</svg>
