<svg width="24" height="24" viewBox="0 0 24 24" fill="none" xmlns="http://www.w3.org/2000/svg">
<path d="M21.9 9.75C22.2 9.75 22.5 9.45 22.5 9V6C22.5 4.8 21.45 3.75 20.25 3.75H3.75C2.55 3.75 1.5 4.8 1.5 6V9C1.5 9.3 1.8 9.6 2.1 9.75C3 10.05 3.75 10.95 3.75 12C3.75 13.05 3 13.95 2.1 14.25C1.8 14.25 1.5 14.55 1.5 15V18C1.5 19.2 2.55 20.25 3.75 20.25H20.25C21.45 20.25 22.5 19.2 22.5 18V15C22.5 14.7 22.2 14.4 21.9 14.25C21 13.95 20.25 13.05 20.25 12C20.25 10.95 21 10.05 21.9 9.75ZM21 15.45V18C21 18.45 20.7 18.75 20.25 18.75H3.75C3.3 18.75 3 18.45 3 18V15.45C4.35 14.85 5.25 13.5 5.25 12C5.25 10.5 4.35 9.15 3 8.55V6C3 5.55 3.3 5.25 3.75 5.25H20.25C20.7 5.25 21 5.55 21 6V8.55C19.65 9.15 18.75 10.5 18.75 12C18.75 13.5 19.65 14.85 21 15.45Z" fill="#000104"/>
<path d="M15.2992 7.65004L7.79922 15.15C7.49922 15.45 7.49922 16.05 7.79922 16.35C7.94922 16.5 8.09922 16.5 8.24922 16.5C8.39922 16.5 8.69922 16.5 8.84922 16.35L16.3492 8.85004C16.6492 8.55004 16.6492 8.10004 16.3492 7.80004C16.0492 7.50004 15.5992 7.50004 15.2992 7.65004Z" fill="#000104"/>
<path d="M9 10.5C9.9 10.5 10.5 9.9 10.5 9C10.5 8.1 9.9 7.5 9 7.5C8.1 7.5 7.5 8.1 7.5 9C7.5 9.9 8.25 10.5 9 10.5Z" fill="#000104"/>
<path d="M15 13.5C14.25 13.5 13.5 14.1 13.5 15C13.5 15.9 14.1 16.5 15 16.5C15.9 16.5 16.5 15.9 16.5 15C16.5 14.1 15.9 13.5 15 13.5Z" fill="#000104"/>
</svg>
