<svg width="24" height="24" viewBox="0 0 24 24" fill="none" xmlns="http://www.w3.org/2000/svg">
<path d="M12 1.5C6.15 1.5 1.5 6.15 1.5 12C1.5 17.85 6.15 22.5 12 22.5C17.85 22.5 22.5 17.85 22.5 12C22.5 6.15 17.85 1.5 12 1.5ZM12 21C7.05 21 3 16.95 3 12C3 7.05 7.05 3 12 3C16.95 3 21 7.05 21 12C21 16.95 16.95 21 12 21Z" fill="#000104"/>
<path d="M15.1499 7.64931L7.64985 15.1493C7.49985 15.4493 7.49985 16.0493 7.64985 16.3493C7.79985 16.4993 8.09985 16.4993 8.24985 16.4993C8.39985 16.4993 8.69985 16.4993 8.84985 16.3493L16.3499 8.84931C16.6499 8.54931 16.6499 8.09931 16.3499 7.79931C16.0499 7.49931 15.4499 7.49931 15.1499 7.64931Z" fill="#000104"/>
<path d="M9 10.5C9.9 10.5 10.5 9.9 10.5 9C10.5 8.1 9.9 7.5 9 7.5C8.1 7.5 7.5 8.1 7.5 9C7.5 9.9 8.1 10.5 9 10.5Z" fill="#000104"/>
<path d="M15 13.5C14.1 13.5 13.5 14.1 13.5 15C13.5 15.9 14.1 16.5 15 16.5C15.9 16.5 16.5 15.9 16.5 15C16.5 14.1 15.9 13.5 15 13.5Z" fill="#000104"/>
</svg>
