<svg width="17" height="16" viewBox="0 0 17 16" fill="none" xmlns="http://www.w3.org/2000/svg">
<path d="M14.8 1.7C14.5 1.3 14 1.1 13.5 1C13.4 1 13.4 1 13.3 1H6C5.3 1 4.7 1.3 4.2 1.7C3.7 2.1 3.5 2.8 3.5 3.5V12.5C3.5 12.9 3.3 13.3 3.1 13.6C2.9 13.9 2.4 14 2 14C1.7 14 1.5 14.2 1.5 14.5C1.5 14.8 1.7 15 2 15H9.5C10.2 15 10.8 14.7 11.3 14.3C11.8 13.9 12 13.2 12 12.5V5H14.5C14.8 5 15 4.9 15.2 4.7C15.4 4.5 15.5 4.3 15.5 4V3.2C15.5 2.6 15.3 2.1 14.8 1.7ZM11 12.5C11 12.9 10.8 13.3 10.6 13.6C10.4 13.9 9.9 14 9.5 14H4C4.3 13.6 4.5 13 4.5 12.5V3.5C4.5 3.1 4.7 2.7 4.9 2.4C5.1 2.1 5.6 2 6 2H11.4C11.1 2.4 11 2.8 11 3.2V4.4V12.5ZM14.5 4H12V3.2C12 2.9 12.1 2.6 12.4 2.3C12.9 1.8 13.7 1.8 14.2 2.3C14.4 2.6 14.5 2.9 14.5 3.2V4Z" fill="#000104"/>
<path d="M9 4.5H7.5C7.2 4.5 7 4.7 7 5C7 5.3 7.2 5.5 7.5 5.5H9C9.3 5.5 9.5 5.3 9.5 5C9.5 4.7 9.3 4.5 9 4.5Z" fill="#000104"/>
<path d="M9 7.5H6.5C6.2 7.5 6 7.7 6 8C6 8.3 6.2 8.5 6.5 8.5H9C9.3 8.5 9.5 8.3 9.5 8C9.5 7.7 9.3 7.5 9 7.5Z" fill="#000104"/>
<path d="M9 10.5H6.5C6.2 10.5 6 10.7 6 11C6 11.3 6.2 11.5 6.5 11.5H9C9.3 11.5 9.5 11.3 9.5 11C9.5 10.7 9.3 10.5 9 10.5Z" fill="#000104"/>
</svg>
