<svg width="24" height="24" viewBox="0 0 24 24" fill="none" xmlns="http://www.w3.org/2000/svg">
<path d="M8.57185 11.1428C10.9388 11.1428 12.8576 9.22406 12.8576 6.85713C12.8576 4.49019 10.9388 2.57141 8.57185 2.57141C6.20492 2.57141 4.28613 4.49019 4.28613 6.85713C4.28613 9.22406 6.20492 11.1428 8.57185 11.1428Z" stroke="#C07300" stroke-width="1.5" stroke-linecap="round" stroke-linejoin="round"/>
<path d="M0.857422 23.1429H8.57171H16.286V22.2136C16.2723 20.9069 15.9277 19.625 15.2844 18.4877C14.641 17.3503 13.7199 16.3946 12.607 15.7097C11.4941 15.0249 10.2258 14.6333 8.9206 14.5715C8.80423 14.566 8.6879 14.5631 8.57171 14.5629C8.45551 14.5631 8.33918 14.566 8.22282 14.5715C6.91758 14.6333 5.64928 15.0249 4.5364 15.7097C3.42354 16.3946 2.5024 17.3503 1.85903 18.4877C1.21567 19.625 0.871069 20.9069 0.857422 22.2136V23.1429Z" stroke="#C07300" stroke-width="1.5" stroke-linecap="round" stroke-linejoin="round"/>
<path d="M15.4287 11.1428C17.7956 11.1428 19.7144 9.22406 19.7144 6.85713C19.7144 4.49019 17.7956 2.57141 15.4287 2.57141" stroke="#C07300" stroke-width="1.5" stroke-linecap="round" stroke-linejoin="round"/>
<path d="M19.715 23.143H23.1436V22.2135C23.1298 20.9069 22.7853 19.6249 22.1419 18.4877C21.4985 17.3502 20.5774 16.3946 19.4645 15.7097C18.7452 15.267 17.9608 14.9468 17.1436 14.7591" stroke="#C07300" stroke-width="1.5" stroke-linecap="round" stroke-linejoin="round"/>
</svg>
