<svg width="24" height="24" viewBox="0 0 24 24" fill="none" xmlns="http://www.w3.org/2000/svg">
<path d="M0.857422 18.8573C0.857422 19.8041 1.62365 20.5716 2.56884 20.5716H21.4318C22.3769 20.5716 23.1431 19.8041 23.1431 18.8573V15.3704C21.6615 14.9681 20.5715 13.6116 20.5715 12.0001C20.5715 10.3887 21.6615 9.03216 23.1431 8.6299V5.143C23.1431 4.19623 22.3769 3.42871 21.4318 3.42871H2.56884C1.62366 3.42871 0.857422 4.19621 0.857422 5.143V8.62236C2.35348 9.01499 3.45724 10.3784 3.45724 12.0001C3.45724 13.6218 2.35348 14.9853 0.857422 15.3779V18.8573Z" stroke="black" stroke-width="1.5" stroke-linecap="round" stroke-linejoin="round"/>
<path d="M7.75 16.2863L16.3214 7.71484" stroke="black" stroke-width="1.5" stroke-linecap="round" stroke-linejoin="round"/>
<path d="M8.60714 9.42913C9.08053 9.42913 9.46429 9.04537 9.46429 8.57199C9.46429 8.0986 9.08053 7.71484 8.60714 7.71484C8.13376 7.71484 7.75 8.0986 7.75 8.57199C7.75 9.04537 8.13376 9.42913 8.60714 9.42913Z" stroke="black" stroke-width="1.5" stroke-linecap="round" stroke-linejoin="round"/>
<path d="M15.4646 16.2856C15.9379 16.2856 16.3217 15.9018 16.3217 15.4284C16.3217 14.955 15.9379 14.5713 15.4646 14.5713C14.9912 14.5713 14.6074 14.955 14.6074 15.4284C14.6074 15.9018 14.9912 16.2856 15.4646 16.2856Z" stroke="black" stroke-width="1.5" stroke-linecap="round" stroke-linejoin="round"/>
</svg>
