<svg width="24" height="24" viewBox="0 0 24 24" fill="none" xmlns="http://www.w3.org/2000/svg">
<path d="M12 1.5C6.15 1.5 1.5 6.15 1.5 12C1.5 17.85 6.15 22.5 12 22.5C17.85 22.5 22.5 17.85 22.5 12C22.5 6.15 17.85 1.5 12 1.5ZM12 21C7.05 21 3 16.95 3 12C3 7.05 7.05 3 12 3C16.95 3 21 7.05 21 12C21 16.95 16.95 21 12 21Z" fill="#000104"/>
<path d="M15.1496 7.64998L7.64961 15.15C7.49961 15.45 7.49961 16.05 7.64961 16.35C7.79961 16.5 8.09961 16.5 8.24961 16.5C8.39961 16.5 8.69961 16.5 8.84961 16.35L16.3496 8.84998C16.6496 8.54998 16.6496 8.09998 16.3496 7.79998C16.0496 7.49998 15.4496 7.49998 15.1496 7.64998Z" fill="#000104"/>
<path d="M9 10.5C9.9 10.5 10.5 9.9 10.5 9C10.5 8.1 9.9 7.5 9 7.5C8.1 7.5 7.5 8.1 7.5 9C7.5 9.9 8.1 10.5 9 10.5Z" fill="#000104"/>
<path d="M15 13.5C14.1 13.5 13.5 14.1 13.5 15C13.5 15.9 14.1 16.5 15 16.5C15.9 16.5 16.5 15.9 16.5 15C16.5 14.1 15.9 13.5 15 13.5Z" fill="#000104"/>
</svg>
