<svg width="24" height="24" viewBox="0 0 24 24" fill="none" xmlns="http://www.w3.org/2000/svg">
<path d="M17.1002 14.2492C18.9002 14.2492 20.2502 12.8992 20.2502 11.0992C20.2502 9.29922 18.9002 7.94922 17.1002 7.94922C15.3002 7.94922 13.9502 9.29922 13.9502 11.0992C13.9502 12.8992 15.4502 14.2492 17.1002 14.2492ZM17.1002 9.44922C18.0002 9.44922 18.7502 10.1992 18.7502 11.0992C18.7502 11.9992 18.0002 12.7492 17.1002 12.7492C16.2002 12.7492 15.4502 11.9992 15.4502 11.0992C15.4502 10.1992 16.2002 9.44922 17.1002 9.44922Z" fill="#000104"/>
<path d="M9.2998 13.5C11.3998 13.5 13.0498 11.85 13.0498 9.75C13.0498 7.65 11.3998 6 9.2998 6C7.1998 6 5.5498 7.65 5.5498 9.75C5.5498 11.85 7.3498 13.5 9.2998 13.5ZM9.2998 7.5C10.4998 7.5 11.5498 8.55 11.5498 9.75C11.5498 10.95 10.6498 12 9.2998 12C8.0998 12 7.0498 10.95 7.0498 9.75C7.0498 8.55 8.0998 7.5 9.2998 7.5Z" fill="#000104"/>
<path d="M12 1.5C6.15 1.5 1.5 6.15 1.5 12C1.5 14.25 2.25 16.5 3.6 18.15C3.6 18.15 3.6 18.15 3.6 18.3C5.55 20.85 8.55 22.5 12 22.5C17.85 22.5 22.5 17.85 22.5 12C22.5 6.15 17.85 1.5 12 1.5ZM12 3C16.95 3 21 7.05 21 12C21 13.35 20.7 14.7 20.1 15.9C19.95 15.9 19.95 15.75 19.8 15.75C18.15 14.85 16.05 14.85 14.4 15.75C14.1 15.75 13.95 16.05 13.65 16.2C13.35 15.75 12.9 15.45 12.3 15.15C10.35 13.95 7.8 13.95 5.85 15.15C5.25 15.45 4.65 16.05 4.2 16.65C3.45 15.15 3 13.65 3 12C3 7.05 7.05 3 12 3ZM5.1 17.85C5.55 17.25 6 16.8 6.6 16.5C8.1 15.6 10.05 15.6 11.55 16.5C12.3 16.95 12.9 17.55 13.35 18.3C13.5 18.6 13.8 19.5 13.95 20.7C13.5 20.85 12.75 21 12 21C9.3 21 6.75 19.8 5.1 17.85ZM15.6 20.25C15.3 18.9 15 18 14.7 17.55C14.7 17.55 14.7 17.4 14.55 17.4C14.7 17.25 14.85 17.1 15 16.95C16.2 16.2 17.85 16.2 19.05 16.95C19.2 16.95 19.2 17.1 19.2 17.1C18.45 18.45 17.1 19.65 15.6 20.25Z" fill="black"/>
</svg>
