<svg width="16" height="16" viewBox="0 0 16 16" fill="none" xmlns="http://www.w3.org/2000/svg">
<path d="M6 8C7.7 8 9 6.7 9 5C9 3.3 7.7 2 6 2C4.3 2 3 3.3 3 5C3 6.7 4.3 8 6 8ZM6 3C7.1 3 8 3.9 8 5C8 6.1 7.1 7 6 7C4.9 7 4 6.1 4 5C4 3.9 4.9 3 6 3Z" fill="black"/>
<path d="M8.6 9.7C7.9 9.3 7.1 9 6.2 9H6H5.8C4.9 9 4.1 9.3 3.4 9.7C2.7 10.1 2.1 10.8 1.7 11.5C1.2 12.3 1 13.1 1 14V14.5C1 14.8 1.2 15 1.5 15H10.5C10.8 15 11 14.8 11 14.5V14C11 13.2 10.8 12.3 10.4 11.6C9.9 10.8 9.3 10.2 8.6 9.7ZM2 14C2 13.3 2.2 12.6 2.5 12C2.8 11.4 3.3 10.9 3.9 10.6C4.5 10.2 5.1 10 5.8 10H6H6.2C6.9 10 7.5 10.2 8.1 10.6C8.7 11 9.2 11.5 9.5 12C9.8 12.6 10 13.3 10 14H2Z" fill="black"/>
<path d="M10 7C9.7 7 9.5 7.2 9.5 7.5C9.5 7.8 9.7 8 10 8C11.7 8 13 6.7 13 5C13 3.3 11.7 2 10 2C9.7 2 9.5 2.2 9.5 2.5C9.5 2.8 9.7 3 10 3C11.1 3 12 3.9 12 5C12 6.1 11.1 7 10 7Z" fill="black"/>
<path d="M14.4 11.5001C14 10.8001 13.4 10.1001 12.7 9.7001C12.2 9.4001 11.7 9.2001 11.2 9.1001C10.8 9.1001 10.6 9.2001 10.5 9.5001C10.5 9.8001 10.6 10.0001 10.9 10.1001C11.3 10.2001 11.7 10.4001 12.1 10.6001C12.7 11.0001 13.2 11.5001 13.5 12.0001C13.8 12.6001 14 13.3001 14 13.9001H12.5C12.2 13.9001 12 14.1001 12 14.4001C12 14.7001 12.2 14.9001 12.5 14.9001H14.5C14.8 14.9001 15 14.7001 15 14.4001V14.0001C15 13.1001 14.8 12.3001 14.4 11.5001Z" fill="black"/>
</svg>
