<svg width="17" height="17" viewBox="0 0 17 17" fill="none" xmlns="http://www.w3.org/2000/svg">
<path d="M12.5 11.2465C11.9933 11.2465 11.54 11.4465 11.1933 11.7599L6.44 8.9932C6.47333 8.83986 6.5 8.68653 6.5 8.52653C6.5 8.36653 6.47333 8.2132 6.44 8.05986L11.14 5.31986C11.5 5.6532 11.9733 5.85986 12.5 5.85986C13.6067 5.85986 14.5 4.96653 14.5 3.85986C14.5 2.7532 13.6067 1.85986 12.5 1.85986C11.3933 1.85986 10.5 2.7532 10.5 3.85986C10.5 4.01986 10.5267 4.1732 10.56 4.32653L5.86 7.06653C5.5 6.7332 5.02667 6.52653 4.5 6.52653C3.39333 6.52653 2.5 7.41986 2.5 8.52653C2.5 9.6332 3.39333 10.5265 4.5 10.5265C5.02667 10.5265 5.5 10.3199 5.86 9.98653L10.6067 12.7599C10.5733 12.8999 10.5533 13.0465 10.5533 13.1932C10.5533 14.2665 11.4267 15.1399 12.5 15.1399C13.5733 15.1399 14.4467 14.2665 14.4467 13.1932C14.4467 12.1199 13.5733 11.2465 12.5 11.2465ZM12.5 3.1932C12.8667 3.1932 13.1667 3.4932 13.1667 3.85986C13.1667 4.22653 12.8667 4.52653 12.5 4.52653C12.1333 4.52653 11.8333 4.22653 11.8333 3.85986C11.8333 3.4932 12.1333 3.1932 12.5 3.1932ZM4.5 9.1932C4.13333 9.1932 3.83333 8.8932 3.83333 8.52653C3.83333 8.15986 4.13333 7.85986 4.5 7.85986C4.86667 7.85986 5.16667 8.15986 5.16667 8.52653C5.16667 8.8932 4.86667 9.1932 4.5 9.1932ZM12.5 13.8732C12.1333 13.8732 11.8333 13.5732 11.8333 13.2065C11.8333 12.8399 12.1333 12.5399 12.5 12.5399C12.8667 12.5399 13.1667 12.8399 13.1667 13.2065C13.1667 13.5732 12.8667 13.8732 12.5 13.8732Z" fill="#EAEBEB"/>
</svg>
