<svg width="20" height="20" viewBox="0 0 20 20" fill="none" xmlns="http://www.w3.org/2000/svg">
<path d="M15.25 11.875C14.125 11.875 13.125 12.375 12.5 13.25L8 11C8.125 10.625 8.125 10.375 8.125 10C8.125 9.625 8.125 9.375 8 9L12.625 6.75C13.25 7.625 14.25 8.125 15.375 8.125C17.25 8.125 18.875 6.625 18.875 4.625C18.875 2.625 17.25 1.25 15.25 1.25C13.25 1.25 11.875 2.75 11.875 4.75C11.875 5.125 11.875 5.375 12 5.75L7.375 8C6.75 7.125 5.75 6.5 4.75 6.5C2.75 6.5 1.25 8.125 1.25 10C1.25 11.875 2.75 13.5 4.75 13.5C5.875 13.5 6.875 13 7.5 12.125L12.125 14.375C12 14.625 12 15 12 15.375C12 17.25 13.5 18.875 15.5 18.875C17.5 18.875 19 17.375 19 15.375C19 13.375 17.25 11.875 15.25 11.875ZM15.25 2.5C16.5 2.5 17.5 3.5 17.5 4.75C17.5 6 16.5 7 15.25 7C14 7 13.125 5.875 13.125 4.75C13.125 3.625 14.125 2.5 15.25 2.5ZM4.75 12.25C3.5 12.25 2.5 11.25 2.5 10C2.5 8.75 3.5 7.75 4.75 7.75C6 7.75 6.875 8.75 6.875 10C6.875 11.25 5.875 12.25 4.75 12.25ZM15.25 17.5C14 17.5 13 16.5 13 15.25C13 14 14 13 15.25 13C16.5 13 17.5 14 17.5 15.25C17.5 16.5 16.5 17.5 15.25 17.5Z" fill="black"/>
</svg>
