<svg width="24" height="24" viewBox="0 0 24 24" fill="none" xmlns="http://www.w3.org/2000/svg">
<path d="M22.2001 13.2V12.75C22.2001 12.6 22.2001 12.45 22.0501 12.45L19.9501 8.09996C19.6501 7.49996 18.9001 6.89996 18 6.89996H15.9001C15.6001 5.99996 14.7001 5.39996 13.8 5.39996H4.05005C2.85005 5.39996 1.80005 6.44996 1.80005 7.64996V17.55C1.80005 18.75 2.85005 19.8 4.05005 19.8H4.65005C4.95005 21 6.00005 22.05 7.35005 22.05C8.70005 22.05 9.75005 21.15 10.05 19.95H14.1C14.4 21.15 15.4501 22.05 16.8 22.05C18.15 22.05 19.3501 21 19.6501 19.65H19.9501C21.1501 19.65 22.2001 18.6 22.2001 17.4V13.2ZM18.75 8.84996L20.5501 12.45H16.05V8.39996H18C18.3001 8.39996 18.6 8.54996 18.75 8.84996ZM3.30005 17.55V7.64996C3.30005 7.19996 3.60005 6.89996 4.05005 6.89996H13.8C14.25 6.89996 14.55 7.19996 14.55 7.64996V17.55C14.4001 17.85 14.2501 18 14.2501 18.3H10.05C9.75005 17.1 8.55005 16.2 7.35005 16.2C6.15005 16.2 4.95005 17.1 4.65005 18.3H4.05005C3.60005 18.3 3.30005 18 3.30005 17.55ZM7.35005 20.55C6.60005 20.55 6.00005 19.95 6.00005 19.2C6.00005 18.45 6.60005 17.85 7.35005 17.85C8.10005 17.85 8.70005 18.45 8.70005 19.2C8.70005 19.95 8.10005 20.55 7.35005 20.55ZM16.8 20.55C16.05 20.55 15.4501 19.95 15.4501 19.2C15.4501 18.45 16.05 17.85 16.8 17.85C17.55 17.85 18.1501 18.45 18.1501 19.2C18.1501 19.95 17.55 20.55 16.8 20.55ZM19.9501 18H19.5C19.0501 16.95 18 16.2 16.8 16.2C16.5 16.2 16.2001 16.2 15.9001 16.35V13.95H20.5501V17.25C20.7001 17.7 20.4001 18 19.9501 18Z" fill="#5A3600"/>
</svg>
