<svg width="16" height="16" viewBox="0 0 16 16" fill="none" xmlns="http://www.w3.org/2000/svg">
<path d="M9.4 1.5C9.4 1.2 9.2 1 8.9 1H1.5C1.2 1 1 1.2 1 1.5C1 1.8 1.2 2 1.5 2H8.9C9.2 2 9.4 1.8 9.4 1.5Z" fill="black"/>
<path d="M9.3998 4.2998C9.3998 3.9998 9.19981 3.7998 8.89981 3.7998H3.7998C3.4998 3.7998 3.2998 3.9998 3.2998 4.2998C3.2998 4.5998 3.4998 4.7998 3.7998 4.7998H8.89981C9.19981 4.7998 9.3998 4.5998 9.3998 4.2998Z" fill="black"/>
<path d="M9.4001 7.09961C9.4001 6.79961 9.2001 6.59961 8.9001 6.59961H6.1001C5.8001 6.59961 5.6001 6.79961 5.6001 7.09961C5.6001 7.39961 5.8001 7.59961 6.1001 7.59961H8.9001C9.2001 7.59961 9.4001 7.29961 9.4001 7.09961Z" fill="black"/>
<path d="M14.8998 11.6C14.6998 11.4 14.3998 11.4 14.1998 11.6L12.5998 13.2V1.5C12.4998 1.2 12.2998 1 11.9998 1C11.6998 1 11.4998 1.2 11.4998 1.5V13.3L9.8998 11.7C9.6998 11.5 9.3998 11.5 9.1998 11.7C8.9998 11.9 8.9998 12.2 9.1998 12.4L11.6998 14.9C11.6998 14.9 11.7998 15 11.8998 15C11.9998 15 11.9998 15 12.0998 15C12.1998 15 12.1998 15 12.2998 15C12.3998 15 12.3998 14.9 12.4998 14.9L14.9998 12.4C14.9998 12.2 14.9998 11.8 14.8998 11.6Z" fill="black"/>
</svg>
