<svg width="24" height="24" viewBox="0 0 24 24" fill="none" xmlns="http://www.w3.org/2000/svg">
<path d="M16.1998 5.25H7.7998C6.8998 5.25 6.2998 5.85 6.2998 6.75V20.85C6.2998 21.75 6.8998 22.35 7.7998 22.35H16.0498C16.9498 22.35 17.5498 21.75 17.5498 20.85V6.75C17.6998 5.85 16.9498 5.25 16.1998 5.25ZM16.1998 20.85H7.7998V6.75H16.0498V20.85H16.1998Z" fill="#000104"/>
<path d="M11.9998 16.3501C13.4998 16.3501 14.6998 15.1501 14.6998 13.6501C14.6998 12.1501 13.4998 11.1001 11.9998 11.1001C10.4998 11.1001 9.2998 12.3001 9.2998 13.8001C9.2998 15.3001 10.4998 16.3501 11.9998 16.3501ZM11.9998 12.6001C12.5998 12.6001 13.1998 13.0501 13.1998 13.8001C13.1998 14.4001 12.7498 15.0001 11.9998 15.0001C11.2498 15.0001 10.7998 14.4001 10.7998 13.8001C10.7998 13.2001 11.3998 12.6001 11.9998 12.6001Z" fill="#000104"/>
<path d="M21.8999 2.0999C21.5999 1.7999 21.2999 1.6499 20.8499 1.6499H3.1499C2.6999 1.6499 2.3999 1.7999 2.0999 2.0999C1.7999 2.3999 1.6499 2.6999 1.6499 3.1499V7.6499C1.6499 8.0999 1.7999 8.3999 2.0999 8.6999C2.3999 8.9999 2.6999 9.1499 3.1499 9.1499H4.3499C4.7999 9.1499 5.0999 8.8499 5.0999 8.3999C5.0999 7.9499 4.7999 7.6499 4.3499 7.6499H3.1499V3.1499H20.8499V7.6499H19.6499C19.1999 7.6499 18.8999 7.9499 18.8999 8.3999C18.8999 8.8499 19.1999 9.1499 19.6499 9.1499H20.8499C21.2999 9.1499 21.5999 8.9999 21.8999 8.6999C22.1999 8.3999 22.3499 8.0999 22.3499 7.6499V3.1499C22.3499 2.6999 22.1999 2.3999 21.8999 2.0999Z" fill="#000104"/>
<path d="M11.7001 10.05C11.8501 10.05 11.8501 10.05 12.0001 10.05C12.1501 10.05 12.1501 10.05 12.3001 10.05C12.6001 9.9 12.9001 9.6 12.9001 9.15C12.9001 8.7 12.6001 8.4 12.3001 8.25C12.1501 8.25 12.1501 8.25 12.0001 8.25C11.8501 8.25 11.8501 8.25 11.7001 8.25C11.4001 8.4 11.1001 8.7 11.1001 9.15C11.1001 9.6 11.4001 9.9 11.7001 10.05Z" fill="#000104"/>
<path d="M12.3001 17.7002C12.1501 17.7002 12.1501 17.7002 12.0001 17.7002C11.8501 17.7002 11.8501 17.7002 11.7001 17.7002C11.4001 17.8502 11.1001 18.1502 11.1001 18.6002C11.1001 19.0502 11.4001 19.3502 11.7001 19.5002C11.8501 19.5002 11.8501 19.5002 12.0001 19.5002C12.1501 19.5002 12.1501 19.5002 12.3001 19.5002C12.6001 19.3502 12.9001 19.0502 12.9001 18.6002C12.9001 18.1502 12.6001 17.7002 12.3001 17.7002Z" fill="#000104"/>
</svg>
