<svg width="24" height="24" viewBox="0 0 24 24" fill="none" xmlns="http://www.w3.org/2000/svg">
<path d="M1.5 11.9993C1.5 12.4493 1.8 12.7493 2.25 12.7493H15.45L11.4 16.7993C11.1 17.0993 11.1 17.5493 11.4 17.8493C11.55 17.9993 11.85 17.9993 12 17.9993C12.15 17.9993 12.45 17.9993 12.6 17.8493L17.85 12.5993C17.85 12.4493 18 12.4493 18 12.2993C18 12.1493 18 11.8493 18 11.6993C18 11.5493 17.85 11.3993 17.85 11.3993L12.6 6.14931C12.3 5.99931 11.85 5.99931 11.55 6.29931C11.25 6.59931 11.25 7.04931 11.55 7.34931L15.45 11.2493H2.25C1.8 11.2493 1.5 11.5493 1.5 11.9993Z" fill="#000104"/>
<path d="M21 6.75V17.25C21 17.7 21.3 18 21.75 18C22.2 18 22.5 17.7 22.5 17.25V6.75C22.5 6.3 22.2 6 21.75 6C21.3 6 21 6.3 21 6.75Z" fill="#000104"/>
</svg>
