<svg width="24" height="24" viewBox="0 0 24 24" fill="none" xmlns="http://www.w3.org/2000/svg">
<g clip-path="url(#clip0_6547_97363)">
<path d="M8.99833 14.1428H1.71261C1.23923 14.1428 0.855469 14.5266 0.855469 15V22.2857C0.855469 22.759 1.23923 23.1428 1.71261 23.1428H8.99833C9.47171 23.1428 9.85547 22.759 9.85547 22.2857V15C9.85547 14.5266 9.47171 14.1428 8.99833 14.1428Z" stroke="#C07300" stroke-width="1.5" stroke-linecap="round" stroke-linejoin="round"/>
<path d="M22.2835 14.1428H14.9978C14.5244 14.1428 14.1406 14.5266 14.1406 15V22.2857C14.1406 22.759 14.5244 23.1428 14.9978 23.1428H22.2835C22.7568 23.1428 23.1406 22.759 23.1406 22.2857V15C23.1406 14.5266 22.7568 14.1428 22.2835 14.1428Z" stroke="#C07300" stroke-width="1.5" stroke-linecap="round" stroke-linejoin="round"/>
<path d="M15.6507 0.857117H8.36496C7.89157 0.857117 7.50781 1.24087 7.50781 1.71426V8.99997C7.50781 9.47336 7.89157 9.85712 8.36496 9.85712H15.6507C16.1241 9.85712 16.5078 9.47336 16.5078 8.99997V1.71426C16.5078 1.24087 16.1241 0.857117 15.6507 0.857117Z" stroke="#C07300" stroke-width="1.5" stroke-linecap="round" stroke-linejoin="round"/>
</g>
<defs>
<clipPath id="clip0_6547_97363">
<rect width="24" height="24" fill="white"/>
</clipPath>
</defs>
</svg>
