<svg width="24" height="24" viewBox="0 0 24 24" fill="none" xmlns="http://www.w3.org/2000/svg">
<path d="M21.3001 9.89922C21.6001 9.74922 21.9001 9.44922 21.9001 9.14922V6.44922C21.9001 5.24922 20.8501 4.19922 19.6501 4.19922H4.3501C3.1501 4.19922 2.1001 5.24922 2.1001 6.44922V9.14922C2.1001 9.44922 2.4001 9.74922 2.7001 9.89922C3.6001 10.1992 4.2001 10.9492 4.2001 11.9992C4.2001 12.8992 3.6001 13.7992 2.7001 14.0992C2.4001 14.0992 2.1001 14.3992 2.1001 14.6992V17.3992C2.1001 18.5992 3.1501 19.6492 4.3501 19.6492H19.6501C20.8501 19.6492 21.9001 18.5992 21.9001 17.3992V14.6992C21.9001 14.3992 21.6001 14.0992 21.3001 13.9492C20.4001 13.6492 19.8001 12.8992 19.8001 11.8492C19.8001 10.7992 20.4001 10.1992 21.3001 9.89922ZM20.4001 15.2992V17.5492C20.4001 17.9992 20.1001 18.2992 19.6501 18.2992H15.9001V16.4992C15.9001 16.0492 15.6001 15.7492 15.1501 15.7492C14.7001 15.7492 14.4001 16.1992 14.4001 16.4992V18.1492H4.3501C3.9001 18.1492 3.6001 17.8492 3.6001 17.3992V15.2992C4.9501 14.6992 5.7001 13.4992 5.7001 11.9992C5.7001 10.4992 4.9501 9.29922 3.6001 8.69922V6.44922C3.6001 5.99922 3.9001 5.69922 4.3501 5.69922H14.4001V7.49922C14.4001 7.94922 14.7001 8.24922 15.1501 8.24922C15.6001 8.24922 15.9001 7.79922 15.9001 7.49922V5.69922H19.6501C20.1001 5.69922 20.4001 5.99922 20.4001 6.44922V8.69922C19.2001 9.29922 18.3001 10.4992 18.3001 11.9992C18.3001 13.4992 19.2001 14.6992 20.4001 15.2992Z" fill="#000104"/>
<path d="M15.1499 10.0508C14.6999 10.0508 14.3999 10.3508 14.3999 10.8008V13.2008C14.3999 13.6508 14.6999 13.9508 15.1499 13.9508C15.5999 13.9508 15.8999 13.6508 15.8999 13.2008V10.8008C15.8999 10.3508 15.5999 10.0508 15.1499 10.0508Z" fill="#000104"/>
</svg>
