<svg width="24" height="24" viewBox="0 0 24 24" fill="none" xmlns="http://www.w3.org/2000/svg">
<path d="M7.8002 14.4016C9.7502 14.4016 11.4002 12.7516 11.4002 10.8016C11.4002 8.85156 9.7502 7.35156 7.8002 7.35156C5.8502 7.35156 4.2002 8.85156 4.2002 10.8016C4.2002 12.7516 5.8502 14.4016 7.8002 14.4016ZM7.8002 8.85156C8.8502 8.85156 9.9002 9.75156 9.9002 10.9516C9.9002 12.1516 8.8502 12.9016 7.8002 12.9016C6.7502 12.9016 5.7002 12.0016 5.7002 10.8016C5.7002 9.60156 6.6002 8.85156 7.8002 8.85156Z" fill="#000104"/>
<path d="M7.79986 15.4492C5.54986 15.4492 3.44986 16.6492 2.39986 18.5992C1.94986 19.4992 1.64986 20.5492 1.64986 21.5992C1.49986 22.1992 1.79986 22.4992 2.24986 22.4992C2.69986 22.4992 2.99986 22.1992 2.99986 21.7492C2.99986 20.9992 3.14986 20.0992 3.59986 19.4992C4.49986 17.9992 5.99986 17.0992 7.79986 17.0992C9.44986 16.9492 11.0999 17.9992 11.9999 19.4992C12.4499 20.2492 12.5999 20.9992 12.5999 21.7492C12.5999 22.1992 12.8999 22.4992 13.3499 22.4992C13.7999 22.4992 14.0999 22.1992 14.0999 21.7492C14.0999 20.6992 13.7999 19.6492 13.3499 18.7492C12.1499 16.7992 10.0499 15.4492 7.79986 15.4492Z" fill="#000104"/>
<path d="M16.3501 4.34844C16.8001 4.34844 17.1001 4.04844 17.1001 3.59844V2.39844C17.1001 1.94844 16.8001 1.64844 16.3501 1.64844C15.9001 1.64844 15.6001 1.94844 15.6001 2.39844V3.59844C15.6001 4.04844 15.9001 4.34844 16.3501 4.34844Z" fill="#000104"/>
<path d="M22.2001 3.89946C21.9001 3.59946 21.4501 3.44946 21.1501 3.74946L20.1001 4.49946C19.8001 4.79946 19.6501 5.24946 19.9501 5.54946C20.1001 5.69946 20.4001 5.84946 20.5501 5.84946C20.7001 5.84946 20.8501 5.84946 21.0001 5.69946L22.0501 4.94946C22.3501 4.79946 22.3501 4.34946 22.2001 3.89946Z" fill="#000104"/>
<path d="M11.7 5.70087C11.85 5.85087 12 5.85087 12.15 5.85087C12.45 5.85087 12.6 5.70087 12.75 5.55087C13.05 5.25087 12.9 4.65087 12.6 4.50087L11.55 3.75087C11.25 3.60087 10.8 3.60087 10.5 3.90087C10.2 4.20087 10.35 4.80087 10.65 4.95087L11.7 5.70087Z" fill="#000104"/>
<path d="M16.1999 5.25C15.2999 5.25 14.2499 5.7 13.4999 6.45C12.8999 7.2 12.4499 8.25 12.5999 9.3C12.5999 10.5 13.3499 11.55 14.2499 12.3V13.35C14.2499 13.65 14.3999 13.95 14.5499 14.1C14.6999 14.25 14.9999 14.4 15.2999 14.4H17.3999C17.6999 14.4 17.9999 14.25 18.1499 14.1C18.2999 13.95 18.4499 13.65 18.4499 13.35V12.15C19.4999 11.4 20.0999 10.35 20.0999 9C20.0999 7.95 19.6499 7.05 18.8999 6.3C18.2999 5.7 17.2499 5.25 16.1999 5.25ZM17.3999 11.1C17.0999 11.25 16.9499 11.55 16.9499 11.7V12.75H15.7499V11.85C15.7499 11.55 15.5999 11.25 15.2999 11.25C14.5499 10.8 14.0999 10.05 14.0999 9.15C14.0999 8.55 14.2499 7.95 14.6999 7.5C15.1499 7.05 15.7499 6.75 16.3499 6.75C16.9499 6.75 17.5499 6.9 17.9999 7.35C18.4499 7.8 18.7499 8.4 18.7499 9C18.5999 9.9 18.1499 10.8 17.3999 11.1Z" fill="#000104"/>
</svg>
