<svg width="30" height="30" viewBox="0 0 30 30" fill="none" xmlns="http://www.w3.org/2000/svg">
<path d="M14.9275 12.8569C17.8861 12.8569 20.2846 10.4584 20.2846 7.49972C20.2846 4.54106 17.8861 2.14258 14.9275 2.14258C11.9688 2.14258 9.57031 4.54106 9.57031 7.49972C9.57031 10.4584 11.9688 12.8569 14.9275 12.8569Z" stroke="#644D00" stroke-width="2" stroke-linecap="round" stroke-linejoin="round"/>
<path d="M5.28516 27.8568H14.928H24.5709V26.6952C24.5538 25.0619 24.1231 23.4595 23.3189 22.0379C22.5147 20.6161 21.3632 19.4215 19.9722 18.5654C18.5811 17.7094 16.9957 17.2199 15.3641 17.1426C15.2187 17.1357 15.0733 17.1321 14.928 17.1318C14.7828 17.1321 14.6374 17.1357 14.4919 17.1426C12.8604 17.2199 11.275 17.7094 9.88388 18.5654C8.4928 19.4215 7.34138 20.6161 6.53716 22.0379C5.73296 23.4595 5.30222 25.0619 5.28516 26.6952V27.8568Z" stroke="#644D00" stroke-width="2" stroke-linecap="round" stroke-linejoin="round"/>
</svg>
