<svg width="24" height="24" viewBox="0 0 24 24" fill="none" xmlns="http://www.w3.org/2000/svg">
<path d="M12 5.25C9.45 5.25 7.5 7.2 7.5 9.75C7.5 12.3 9.45 14.25 12 14.25C14.55 14.25 16.5 12.3 16.5 9.75C16.5 7.2 14.55 5.25 12 5.25ZM12 12.75C10.35 12.75 9 11.4 9 9.75C9 8.1 10.35 6.75 12 6.75C13.65 6.75 15 8.1 15 9.75C15 11.4 13.65 12.75 12 12.75Z" fill="black"/>
<path d="M12 1.5C6.15 1.5 1.5 6.15 1.5 12C1.5 15.15 2.85 18 5.1 19.95C7.05 21.6 9.45 22.5 12 22.5C17.85 22.5 22.5 17.85 22.5 12C22.5 6.15 17.85 1.5 12 1.5ZM6.6 19.2C7.2 18.45 7.8 17.85 8.7 17.4C10.65 16.2 13.35 16.2 15.3 17.4C16.05 17.85 16.8 18.45 17.4 19.2C15.9 20.25 13.95 21 12 21C10.05 21 8.1 20.25 6.6 19.2ZM18.45 18.15C17.85 17.25 16.95 16.5 16.05 16.05C13.65 14.7 10.35 14.7 7.95 16.05C7.05 16.65 6.15 17.25 5.55 18.15C3.9 16.65 3 14.4 3 12C3 7.05 7.05 3 12 3C16.95 3 21 7.05 21 12C21 14.4 20.1 16.65 18.45 18.15Z" fill="black"/>
</svg>
