<svg width="16" height="16" viewBox="0 0 16 16" fill="none" xmlns="http://www.w3.org/2000/svg">
<path d="M6 1H2.5C1.7 1 1 1.7 1 2.5V6C1 6.8 1.7 7.5 2.5 7.5H6C6.8 7.5 7.5 6.8 7.5 6V2.5C7.5 1.7 6.8 1 6 1ZM6.5 6C6.5 6.3 6.3 6.5 6 6.5H2.5C2.2 6.5 2 6.3 2 6V2.5C2 2.2 2.2 2 2.5 2H6C6.3 2 6.5 2.2 6.5 2.5V6Z" fill="#000104"/>
<path d="M13.5 8.5H10C9.2 8.5 8.5 9.2 8.5 10V13.5C8.5 14.3 9.2 15 10 15H13.5C14.3 15 15 14.3 15 13.5V10C15 9.2 14.3 8.5 13.5 8.5ZM14 13.5C14 13.8 13.8 14 13.5 14H10C9.7 14 9.5 13.8 9.5 13.5V10C9.5 9.7 9.7 9.5 10 9.5H13.5C13.8 9.5 14 9.7 14 10V13.5Z" fill="#000104"/>
<path d="M6 8.5H2.5C1.7 8.5 1 9.2 1 10V13.5C1 14.3 1.7 15 2.5 15H6C6.8 15 7.5 14.3 7.5 13.5V10C7.5 9.2 6.8 8.5 6 8.5ZM6.5 13.5C6.5 13.8 6.3 14 6 14H2.5C2.2 14 2 13.8 2 13.5V10C2 9.7 2.2 9.5 2.5 9.5H6C6.3 9.5 6.5 9.7 6.5 10V13.5Z" fill="#000104"/>
<path d="M9 4.8H11.2V7C11.2 7.3 11.4 7.5 11.7 7.5C12 7.5 12.2 7.3 12.2 7V4.8H14.4C14.7 4.8 14.9 4.6 14.9 4.3C14.9 4 14.7 3.8 14.4 3.8H12.2V1.5C12.2 1.2 12 1 11.8 1C11.6 1 11.3 1.2 11.3 1.5V3.7H9C8.7 3.8 8.5 4 8.5 4.2C8.5 4.4 8.7 4.8 9 4.8Z" fill="#000104"/>
</svg>
