<svg width="40" height="40" viewBox="0 0 40 40" fill="none" xmlns="http://www.w3.org/2000/svg">
<path d="M39.1686 29.6765L25.052 3.70153C24.5341 2.82753 23.7975 2.10343 22.9148 1.60046C22.0322 1.0975 21.0337 0.833008 20.0178 0.833008C19.0019 0.833008 18.0035 1.0975 17.1208 1.60046C16.2381 2.10343 15.5016 2.82753 14.9836 3.70153L0.868645 29.6765C0.339545 30.5657 0.0554292 31.5791 0.0452078 32.6137C0.0349863 33.6483 0.299024 34.6671 0.810454 35.5665C1.32188 36.4659 2.06245 37.2138 2.95679 37.734C3.85114 38.2542 4.86733 38.5283 5.90198 38.5282H34.1353C35.1698 38.5277 36.1856 38.2534 37.0797 37.733C37.9737 37.2127 38.714 36.4649 39.2254 35.5657C39.7367 34.6664 40.0008 33.6478 39.9908 32.6134C39.9809 31.5791 39.6972 30.5657 39.1686 29.6765ZM20.017 33.8432C19.5531 33.8452 19.0991 33.7094 18.7124 33.4531C18.3257 33.1969 18.0238 32.8316 17.8449 32.4036C17.666 31.9756 17.6182 31.5041 17.7075 31.0489C17.7967 30.5936 18.0191 30.1752 18.3465 29.8464C18.6738 29.5177 19.0913 29.2935 19.5461 29.2023C20.001 29.1111 20.4726 29.1569 20.9014 29.334C21.3302 29.511 21.6968 29.8114 21.9547 30.1969C22.2126 30.5825 22.3503 31.036 22.3503 31.4999C22.349 32.1189 22.103 32.7123 21.6658 33.1507C21.2287 33.5891 20.636 33.8368 20.017 33.8399V33.8432ZM22.3503 24.4682C22.3503 25.0892 22.1036 25.6849 21.6645 26.124C21.2253 26.5632 20.6297 26.8099 20.0086 26.8099C19.3876 26.8099 18.792 26.5632 18.3528 26.124C17.9137 25.6849 17.667 25.0892 17.667 24.4682V12.7449C17.667 12.1238 17.9137 11.5282 18.3528 11.0891C18.792 10.6499 19.3876 10.4032 20.0086 10.4032C20.6297 10.4032 21.2253 10.6499 21.6645 11.0891C22.1036 11.5282 22.3503 12.1238 22.3503 12.7449V24.4682Z" fill="#FFC402"/>
</svg>
