<svg width="16" height="16" viewBox="0 0 16 16" fill="none" xmlns="http://www.w3.org/2000/svg">
<path d="M14.6 4.9L11.2 1.5C10.9 1.2 10.5 1 10.1 1H5.9C5.5 1 5.1 1.2 4.9 1.4L1.4 4.9C1.2 5.1 1 5.5 1 5.9V10.1C1 10.5 1.2 10.9 1.4 11.2L4.8 14.6C5.1 14.8 5.5 15 5.9 15H10.1C10.5 15 10.9 14.8 11.2 14.6L14.6 11.2C14.8 10.9 15 10.5 15 10.1V5.9C15 5.5 14.8 5.1 14.6 4.9ZM14 10.1C14 10.2 13.9 10.4 13.9 10.5L10.5 13.9C10.3 13.9 10.2 14 10.1 14H5.9C5.8 14 5.6 13.9 5.5 13.9L2.1 10.4C2.1 10.3 2 10.2 2 10.1V5.9C2 5.8 2.1 5.6 2.1 5.5L5.5 2.1C5.7 2.1 5.8 2 5.9 2H10.1C10.2 2 10.4 2.1 10.5 2.1L13.9 5.5C13.9 5.7 14 5.8 14 5.9V10.1Z" fill="#CD2A13"/>
<path d="M8 8.8C8.3 8.8 8.5 8.6 8.5 8.3V5C8.5 4.7 8.3 4.5 8 4.5C7.7 4.5 7.5 4.7 7.5 5V8.2C7.5 8.5 7.7 8.8 8 8.8Z" fill="#CD2A13"/>
<path d="M8.19995 10C8.09995 10 8.09995 10 7.99995 10C7.89995 10 7.89995 10 7.79995 10C7.49995 10.1 7.19995 10.4 7.19995 10.8C7.19995 11.2 7.39995 11.4 7.79995 11.5C7.89995 11.5 7.89995 11.5 7.99995 11.5C8.09995 11.5 8.09995 11.5 8.19995 11.5C8.49995 11.4 8.79995 11.1 8.79995 10.8C8.79995 10.5 8.49995 10.1 8.19995 10Z" fill="#CD2A13"/>
</svg>
